<svg width="436" height="436" viewBox="0 0 436 436" fill="none" xmlns="http://www.w3.org/2000/svg">
<path d="M137.901 79.6172L179.97 95.7902L205.619 58.7291L236.504 91.5535L275.693 69.2911L289.278 112.266L334.245 109.211L327.839 153.824L369.678 170.583L344.549 207.999L374.974 241.251L336.1 264.058L349.084 307.218L304.164 310.9L297.135 355.419L255.066 339.246L229.418 376.307L198.532 343.483L159.343 365.745L145.758 322.771L100.791 325.825L107.197 281.212L65.3581 264.453L90.4869 227.038L60.0623 193.786L98.9365 170.978L85.9525 127.818L130.873 124.137L137.901 79.6172Z" fill="#F1520D"/>
<path d="M267.359 161.992C264.606 163.582 262.295 163.056 261.638 161.918C261.405 161.514 261.624 161.045 261.918 160.876C262.615 160.473 263.134 161.201 263.939 161.324C264.497 161.442 264.979 161.262 265.31 161.071C266.154 160.583 266.466 159.767 265.873 158.739C265.025 157.271 263.699 157.008 262.088 154.218C260.286 151.098 261.643 146.497 265.602 144.113C266.043 143.859 266.126 143.664 265.978 143.407C265.851 143.186 265.64 143.161 265.347 143.331C261.55 145.572 256.85 145.74 254.307 141.335C252.039 137.407 253.883 132.377 258.377 129.733C258.12 129.882 267.095 124.994 267.205 124.931L272.972 121.356C273.43 121.385 273.731 121.652 273.943 122.019C274.155 122.386 274.235 122.78 274.011 123.155L272.175 124.214C272.029 124.299 271.982 124.473 272.067 124.62L285.589 148.041C285.674 148.188 285.848 148.234 285.994 148.15L287.83 147.09C288.288 147.119 288.588 147.386 288.8 147.753C289.012 148.12 289.093 148.514 288.869 148.889L282.91 152.133L276.754 155.883C276.318 155.89 276.017 155.623 275.805 155.256C275.593 154.889 275.512 154.495 275.716 154.084L277.918 152.812C278.065 152.728 278.112 152.554 278.027 152.407L271.69 141.431L270.808 141.939C268.606 143.211 267.061 144.69 269.732 149.316C272.736 154.434 272.976 158.749 267.359 161.992ZM270.206 140.133L270.757 139.815L264.483 128.949C264.42 128.839 264.283 128.771 264.115 128.819C261.472 130.345 260.374 132.937 262.705 136.975C265.058 141.05 267.526 141.681 270.206 140.133Z" fill="white"/>
<path d="M240.966 176.349L237.967 178.276C237.567 178.262 237.23 178.017 237.018 177.65C236.806 177.282 236.762 176.867 236.928 176.478L238.507 175.566C238.764 175.418 239.052 175.154 239.014 174.833L233.314 145.378C233.126 144.458 233.581 143.804 234.572 143.232C235.563 142.66 236.393 142.572 237.059 143.216L259.892 162.926C259.992 163.015 260.203 163.04 260.313 162.976L262.075 161.959C262.532 161.989 262.833 162.255 263.045 162.623C263.257 162.99 263.338 163.384 263.113 163.758L257.155 167.002L250.999 170.752C250.563 170.759 250.262 170.493 250.05 170.125C249.838 169.758 249.757 169.364 249.96 168.953L252.2 167.66C252.347 167.576 252.393 167.402 252.33 167.292C252.266 167.182 252.102 166.983 251.822 166.753L245.857 161.337L239.69 164.898L241.261 173.046C241.273 173.235 241.305 173.461 241.348 173.534C241.453 173.718 241.664 173.743 241.847 173.637L243.977 172.408C244.434 172.438 244.735 172.704 244.947 173.072C245.159 173.439 245.24 173.833 245.015 174.207L240.966 176.349ZM239.227 162.571L244.073 159.773L237.585 153.876L239.227 162.571Z" fill="white"/>
<path d="M197.466 201.661C197.066 201.647 196.765 201.38 196.554 201.013C196.342 200.646 196.261 200.252 196.427 199.862L198.3 198.781C198.447 198.697 198.493 198.523 198.408 198.376L184.886 174.955C184.801 174.808 184.628 174.761 184.481 174.846L182.608 175.927C182.209 175.913 181.908 175.646 181.696 175.279C181.484 174.912 181.403 174.518 181.57 174.128L187.586 170.9L192.987 167.537C193.444 167.566 193.745 167.833 193.957 168.2C194.169 168.567 194.25 168.961 194.025 169.336L192.52 170.205C192.373 170.289 192.327 170.463 192.412 170.61L205.637 193.517C205.722 193.664 205.896 193.711 206.043 193.626L211.586 190.425C211.733 190.341 211.779 190.167 211.694 190.02L198.469 167.113C198.384 166.966 198.21 166.919 198.064 167.004L196.558 167.873C196.159 167.859 195.821 167.614 195.609 167.246C195.397 166.879 195.353 166.464 195.52 166.074L201.169 163.058L206.57 159.695C207.027 159.724 207.328 159.991 207.54 160.358C207.752 160.725 207.833 161.119 207.608 161.494L206.103 162.363C205.956 162.447 205.91 162.621 205.995 162.768L219.22 185.675C219.305 185.822 219.479 185.869 219.625 185.784L225.169 182.583C225.316 182.499 225.362 182.325 225.277 182.178L212.052 159.271C211.967 159.124 211.793 159.077 211.646 159.162L210.141 160.031C209.742 160.017 209.404 159.772 209.192 159.404C208.98 159.037 208.936 158.622 209.103 158.232L214.752 155.215L220.52 151.641C220.977 151.67 221.278 151.937 221.49 152.304C221.702 152.671 221.783 153.065 221.558 153.44L219.686 154.52C219.539 154.605 219.493 154.779 219.577 154.926L233.1 178.347C233.184 178.494 233.358 178.54 233.505 178.456L235.377 177.375C235.835 177.404 236.136 177.671 236.348 178.038C236.56 178.405 236.64 178.799 236.416 179.174L230.457 182.418L203.292 198.102L197.466 201.661Z" fill="white"/>
<path d="M182.426 210.344C181.989 210.352 181.688 210.085 181.476 209.718C181.264 209.351 181.184 208.957 181.387 208.546L183.076 207.571C183.223 207.486 183.269 207.312 183.184 207.165L176.974 196.409C176.636 197.094 175.155 199.956 171.521 202.054C166.124 205.17 161.574 204.664 158.098 198.644L154.537 192.476C154.453 192.33 154.279 192.283 154.132 192.368L152.26 193.449C151.86 193.435 151.559 193.168 151.347 192.801C151.135 192.434 151.055 192.04 151.221 191.65L157.238 188.421L163.005 184.846C163.463 184.876 163.764 185.143 163.976 185.51C164.188 185.877 164.268 186.271 164.044 186.645L162.172 187.726C162.025 187.811 161.978 187.985 162.063 188.131L166.09 195.106C167.892 198.227 169.612 199.681 172.255 198.155C174.201 197.031 175.422 194.907 175.745 194.28L169.662 183.744C169.577 183.597 169.404 183.551 169.257 183.636L167.385 184.716C166.985 184.702 166.647 184.457 166.435 184.09C166.223 183.723 166.179 183.307 166.346 182.918L172.362 179.689L178.13 176.114C178.588 176.144 178.888 176.41 179.1 176.778C179.312 177.145 179.356 177.56 179.169 177.913L177.296 178.994C177.15 179.079 177.103 179.252 177.188 179.399L190.71 202.82C190.795 202.967 190.969 203.014 191.115 202.929L192.988 201.848C193.445 201.878 193.746 202.144 193.958 202.512C194.17 202.879 194.214 203.294 194.026 203.647L188.068 206.891L182.426 210.344Z" fill="white"/>
<path d="M148.146 230.624C145.65 232.065 143.111 230.888 141.669 228.392C140.758 226.813 140.924 225.151 142.466 224.261C143.787 223.498 145.057 224.086 145.735 225.261C146.604 226.766 145.399 227.56 145.844 228.331C146.14 228.845 146.631 229.101 147.475 228.613C148.54 227.999 149.285 226.492 149.028 223.164C148.973 222.56 148.966 222.124 148.847 221.409L128.615 207.392C128.457 207.288 128.341 207.257 128.194 207.342L126.396 208.38C125.996 208.366 125.695 208.1 125.483 207.732C125.271 207.365 125.191 206.971 125.357 206.582L131.997 202.992L137.655 199.481C138.113 199.511 138.413 199.778 138.625 200.145C138.837 200.512 138.918 200.906 138.694 201.28L136.748 202.403C136.491 202.552 136.481 202.704 136.566 202.851C136.651 202.998 137.083 203.238 137.557 203.551L147.495 210.589L146.088 198.234C146.029 197.877 146.027 197.535 145.964 197.425C145.879 197.278 145.705 197.232 145.595 197.295L143.136 198.716C142.736 198.702 142.398 198.456 142.186 198.089C141.974 197.722 141.93 197.307 142.097 196.917L145.911 194.96L149.623 192.572C150.08 192.601 150.381 192.868 150.593 193.235C150.805 193.602 150.886 193.996 150.661 194.371L148.862 195.409C148.642 195.536 148.512 195.905 148.487 196.115L151.062 220.668C151.756 226.533 151.01 228.971 148.146 230.624Z" fill="white"/>
<path d="M117.851 248.165C114.473 250.115 111.975 248.669 110.385 245.916C109.177 243.824 109.621 242.05 111.383 241.032C112.888 240.163 114.154 240.999 114.79 242.1C116.104 244.376 114.363 245.43 114.893 246.348C115.168 246.825 115.942 247.064 116.787 246.576C119.467 245.029 117.686 240.673 116.267 237.283C114.147 232.339 111.277 226.605 108.456 221.381C107.576 219.687 106.835 219.674 105.476 220.458L103.678 221.497C103.278 221.483 102.977 221.216 102.765 220.849C102.553 220.482 102.473 220.088 102.639 219.698L108.692 216.448L117.429 211.404L123.38 207.723C123.838 207.753 124.139 208.019 124.351 208.387C124.563 208.754 124.643 209.148 124.419 209.522L122.547 210.603C122.4 210.688 122.353 210.861 122.438 211.008L135.96 234.43C136.045 234.576 136.219 234.623 136.366 234.538L138.238 233.457C138.696 233.487 138.996 233.754 139.208 234.121C139.42 234.488 139.501 234.882 139.277 235.256L133.318 238.5L127.493 242.06C127.093 242.046 126.792 241.779 126.58 241.412C126.368 241.045 126.287 240.651 126.454 240.261L128.326 239.18C128.473 239.095 128.52 238.921 128.435 238.774L115.209 215.867C115.124 215.72 114.951 215.674 114.804 215.759L111.133 217.878C109.848 218.62 109.861 219.151 110.402 220.258C113.186 225.503 116.129 231.195 118.155 236.144C120.328 241.35 122.036 245.749 117.851 248.165Z" fill="white"/>
<path d="M295.779 223.882L290.772 227.1C290.104 227.077 289.541 226.667 289.187 226.054C288.833 225.441 288.76 224.748 289.038 224.097L291.673 222.575C292.102 222.327 292.583 221.886 292.519 221.351L283.004 172.172C282.69 170.637 283.448 169.545 285.103 168.59C286.758 167.634 288.145 167.488 289.256 168.562L327.378 201.47C327.546 201.619 327.897 201.661 328.081 201.555L331.023 199.856C331.787 199.906 332.289 200.351 332.643 200.964C332.997 201.577 333.132 202.235 332.757 202.86L322.809 208.277L312.53 214.538C311.802 214.55 311.299 214.104 310.946 213.491C310.592 212.878 310.457 212.22 310.796 211.534L314.535 209.376C314.78 209.234 314.858 208.944 314.752 208.76C314.646 208.576 314.372 208.244 313.905 207.86L303.945 198.818L293.648 204.763L296.272 218.367C296.291 218.683 296.345 219.06 296.416 219.183C296.593 219.489 296.944 219.532 297.251 219.355L300.806 217.302C301.57 217.352 302.072 217.797 302.426 218.41C302.78 219.023 302.914 219.681 302.54 220.306L295.779 223.882ZM292.876 200.878L300.966 196.207L290.134 186.361L292.876 200.878Z" fill="white"/>
<path d="M278.267 233.993L268.602 239.901C267.873 239.913 267.371 239.467 267.017 238.854C266.663 238.241 266.528 237.583 266.868 236.897L269.993 235.092C270.239 234.951 270.316 234.661 270.175 234.416L259.736 216.334L245.883 224.332L256.323 242.413C256.464 242.658 256.754 242.736 256.999 242.595L260.125 240.79C260.889 240.839 261.392 241.285 261.746 241.897C262.099 242.51 262.234 243.168 261.859 243.793L251.911 249.21L242.184 255.152C241.517 255.129 241.015 254.684 240.661 254.071C240.307 253.458 240.172 252.8 240.45 252.149L243.576 250.344C243.822 250.203 243.899 249.913 243.758 249.668L221.181 210.563C221.039 210.318 220.749 210.24 220.504 210.382L217.378 212.186C216.711 212.163 216.208 211.717 215.854 211.105C215.501 210.492 215.366 209.834 215.644 209.183L225.689 203.792L235.319 197.824C236.083 197.873 236.585 198.318 236.939 198.931C237.293 199.544 237.428 200.202 237.053 200.827L233.927 202.632C233.682 202.773 233.604 203.063 233.746 203.309L243.831 220.777L257.683 212.779L247.598 195.311C247.456 195.066 247.166 194.988 246.921 195.13L243.795 196.934C243.066 196.946 242.564 196.501 242.21 195.888C241.856 195.275 241.722 194.617 242.061 193.931L252.045 188.576L261.675 182.607C262.439 182.656 262.941 183.102 263.295 183.715C263.649 184.328 263.783 184.986 263.409 185.61L260.344 187.38C260.099 187.521 260.021 187.811 260.163 188.057L282.74 227.161C282.881 227.406 283.171 227.484 283.417 227.343L286.481 225.573C287.245 225.623 287.747 226.068 288.101 226.681C288.455 227.294 288.59 227.952 288.215 228.577L278.267 233.993Z" fill="white"/>
<path d="M211.03 272.811L201.304 278.754C200.636 278.731 200.134 278.285 199.78 277.672C199.426 277.059 199.292 276.402 199.57 275.751L202.695 273.946C202.941 273.804 203.018 273.514 202.877 273.269L180.3 234.164C180.158 233.919 179.868 233.842 179.623 233.983L176.497 235.788C175.83 235.765 175.327 235.319 174.974 234.706C174.62 234.093 174.485 233.435 174.763 232.785L184.808 227.394L207.677 213.782C207.984 213.605 208.274 213.682 208.451 213.989L216.717 227.032C216.755 227.664 216.345 228.228 215.732 228.582C215.119 228.935 214.426 229.009 213.836 228.695L211.902 226.053C208.078 220.987 204.265 220.328 199.098 222.985L193.133 226.101C192.827 226.278 192.688 226.604 192.829 226.849L203.162 244.746L205.998 242.864C209.018 240.875 209.331 238.161 207.561 235.097L207.031 234.177C206.957 233.484 207.403 232.982 208.016 232.628C208.629 232.274 209.286 232.139 209.85 232.549L214.028 240.352L218.838 248.118C218.912 248.811 218.466 249.313 217.853 249.667C217.24 250.021 216.583 250.156 216.019 249.745L215.417 248.703C213.613 245.578 211.167 244.456 207.874 246.112L204.826 247.627L215.053 265.341C215.406 265.953 216.338 266.151 216.951 265.797L223.122 261.907C228.533 258.539 229.779 254.469 227.068 248.924L225.145 244.885C225.071 244.192 225.517 243.69 226.13 243.336C226.743 242.982 227.4 242.847 227.964 243.258L235.993 258.154C236.17 258.461 236.092 258.751 235.785 258.928L211.03 272.811Z" fill="white"/>
<path d="M200.72 291.351C200.046 291.74 199.449 291.84 198.824 291.465L197.666 289.6C194.722 284.926 190.822 284.399 183.441 288.742L157.698 303.604L147.972 309.547C147.304 309.524 146.802 309.078 146.448 308.465C146.094 307.852 145.96 307.194 146.238 306.544L149.363 304.739C149.609 304.597 149.686 304.307 149.545 304.062L126.968 264.957C126.826 264.712 126.536 264.635 126.291 264.776L123.165 266.581C122.498 266.557 121.995 266.112 121.642 265.499C121.288 264.886 121.153 264.228 121.431 263.578L131.476 258.187L141.106 252.218C141.87 252.267 142.372 252.713 142.726 253.326C143.08 253.939 143.215 254.597 142.84 255.222L139.714 257.026C139.469 257.168 139.391 257.458 139.533 257.703L161.65 296.011C161.791 296.256 162.081 296.334 162.327 296.192L175.504 288.584C175.75 288.442 175.827 288.152 175.686 287.907L153.569 249.599C153.427 249.354 153.137 249.276 152.892 249.418L149.766 251.223C149.037 251.235 148.535 250.789 148.181 250.176C147.827 249.563 147.693 248.906 148.032 248.219L158.016 242.864L167.707 236.86C168.41 236.945 168.912 237.39 169.266 238.003C169.62 238.616 169.754 239.274 169.441 239.863L166.315 241.668C166.07 241.81 165.992 242.1 166.134 242.345L188.746 281.511C188.888 281.756 189.178 281.834 189.423 281.692L194.51 278.755C194.817 278.578 195.036 278.533 195.248 278.901L201.705 289.802C201.717 290.53 201.333 290.997 200.72 291.351Z" fill="white"/>
</svg>
