<svg width="881" height="127" viewBox="0 0 881 127" fill="none" xmlns="http://www.w3.org/2000/svg">
<circle cx="14.2044" cy="81.146" r="12.759" transform="rotate(2.84712 14.2044 81.146)" fill="#581B34"/>
<circle cx="867.632" cy="45.3931" r="12.759" transform="rotate(-177.153 867.632 45.3931)" fill="#581B34"/>
<circle cx="46.6881" cy="112.957" r="12.759" transform="rotate(2.84712 46.6881 112.957)" fill="#581B34"/>
<circle cx="835.149" cy="13.5825" r="12.759" transform="rotate(-177.153 835.149 13.5825)" fill="#581B34"/>
<circle cx="251.963" cy="95.2947" r="12.759" transform="rotate(2.84712 251.963 95.2947)" fill="#581B34"/>
<circle cx="629.875" cy="31.2446" r="12.759" transform="rotate(-177.153 629.875 31.2446)" fill="#581B34"/>
<circle cx="354.523" cy="88.0069" r="12.759" transform="rotate(2.84712 354.523 88.0069)" fill="#581B34"/>
<circle cx="527.313" cy="38.5322" r="12.759" transform="rotate(-177.153 527.313 38.5322)" fill="#581B34"/>
<circle cx="80.9008" cy="110.012" r="12.759" transform="rotate(2.84712 80.9008 110.012)" fill="#581B34"/>
<circle cx="800.935" cy="16.5268" r="12.759" transform="rotate(-177.153 800.935 16.5268)" fill="#581B34"/>
<circle cx="286.174" cy="92.3504" r="12.759" transform="rotate(2.84712 286.174 92.3504)" fill="#581B34"/>
<circle cx="595.661" cy="34.1889" r="12.759" transform="rotate(-177.153 595.661 34.1889)" fill="#581B34"/>
<circle cx="183.461" cy="102.727" r="12.759" transform="rotate(2.84712 183.461 102.727)" fill="#581B34"/>
<circle cx="698.375" cy="23.8125" r="12.759" transform="rotate(-177.153 698.375 23.8125)" fill="#581B34"/>
<circle cx="115.074" cy="107.843" r="12.759" transform="rotate(2.84712 115.074 107.843)" fill="#581B34"/>
<circle cx="766.762" cy="18.6987" r="12.759" transform="rotate(-177.153 766.762 18.6987)" fill="#581B34"/>
<circle cx="320.349" cy="90.1785" r="12.759" transform="rotate(2.84712 320.349 90.1785)" fill="#581B34"/>
<circle cx="561.488" cy="36.3608" r="12.759" transform="rotate(-177.153 561.488 36.3608)" fill="#581B34"/>
<circle cx="217.637" cy="100.555" r="12.759" transform="rotate(2.84712 217.637 100.555)" fill="#581B34"/>
<circle cx="664.202" cy="25.9844" r="12.759" transform="rotate(-177.153 664.202 25.9844)" fill="#581B34"/>
<circle cx="422.909" cy="82.8909" r="12.759" transform="rotate(2.84712 422.909 82.8909)" fill="#581B34"/>
<circle cx="458.927" cy="43.6484" r="12.759" transform="rotate(-177.153 458.927 43.6484)" fill="#581B34"/>
<circle cx="150.939" cy="71.6885" r="12.759" transform="rotate(2.84712 150.939 71.6885)" fill="#581B34"/>
<circle cx="730.898" cy="54.8506" r="12.759" transform="rotate(-177.153 730.898 54.8506)" fill="#581B34"/>
<circle cx="356.213" cy="54.0244" r="12.759" transform="rotate(2.84712 356.213 54.0244)" fill="#581B34"/>
<circle cx="525.623" cy="72.5146" r="12.759" transform="rotate(-177.153 525.623 72.5146)" fill="#581B34"/>
<circle cx="82.5524" cy="76.8027" r="12.759" transform="rotate(2.84712 82.5524 76.8027)" fill="#581B34"/>
<circle cx="799.285" cy="49.7368" r="12.759" transform="rotate(-177.153 799.285 49.7368)" fill="#581B34"/>
<circle cx="287.828" cy="59.1406" r="12.759" transform="rotate(2.84712 287.828 59.1406)" fill="#581B34"/>
<circle cx="594.009" cy="67.3987" r="12.759" transform="rotate(-177.153 594.009 67.3987)" fill="#581B34"/>
<circle cx="185.113" cy="69.5171" r="12.759" transform="rotate(2.84712 185.113 69.5171)" fill="#581B34"/>
<circle cx="696.725" cy="57.0222" r="12.759" transform="rotate(-177.153 696.725 57.0222)" fill="#581B34"/>
<circle cx="390.387" cy="51.853" r="12.759" transform="rotate(2.84712 390.387 51.853)" fill="#581B34"/>
<circle cx="491.451" cy="74.6863" r="12.759" transform="rotate(-177.153 491.451 74.6863)" fill="#581B34"/>
<circle cx="116.765" cy="73.8604" r="12.759" transform="rotate(2.84712 116.765 73.8604)" fill="#581B34"/>
<circle cx="765.071" cy="52.6811" r="12.759" transform="rotate(-177.153 765.071 52.6811)" fill="#581B34"/>
<circle cx="322.04" cy="56.1963" r="12.759" transform="rotate(2.84712 322.04 56.1963)" fill="#581B34"/>
<circle cx="559.799" cy="70.343" r="12.759" transform="rotate(-177.153 559.799 70.343)" fill="#581B34"/>
<circle cx="219.326" cy="66.5728" r="12.759" transform="rotate(2.84712 219.326 66.5728)" fill="#581B34"/>
<circle cx="662.511" cy="59.9665" r="12.759" transform="rotate(-177.153 662.511 59.9665)" fill="#581B34"/>
<circle cx="424.6" cy="48.9087" r="12.759" transform="rotate(2.84712 424.6 48.9087)" fill="#581B34"/>
<circle cx="457.237" cy="77.6306" r="12.759" transform="rotate(-177.153 457.237 77.6306)" fill="#581B34"/>
</svg>
