<svg width="991" height="1059" viewBox="0 0 991 1059" fill="none" xmlns="http://www.w3.org/2000/svg">
<path d="M856.783 585.528C839.169 713.98 752.594 804.5 711.066 836.363L705.655 840.7L726.159 868.799C851.315 769.768 886.654 641.727 888.679 590.085L856.783 585.528Z" fill="#FFD175" stroke="#F1520D" stroke-width="15.1888"/>
<path d="M415.069 915.123C286.618 897.509 196.097 810.935 164.234 769.406L159.897 763.995L131.799 784.5C230.829 909.655 358.87 944.994 410.512 947.019L415.069 915.123Z" fill="#FFD175"/>
<path d="M775.354 292.364C856.139 393.773 861.878 518.898 856.267 570.94L855.67 577.849L890.155 582.408C904.889 423.493 836.636 309.542 800.668 272.43L775.354 292.364Z" fill="#FFD175"/>
<path d="M705.179 841.459C601.895 919.833 476.67 922.624 424.775 915.789L417.882 915.029L412.512 949.397C571.035 967.87 686.563 902.32 724.511 867.235L705.179 841.459Z" fill="#FFD175"/>
<path d="M544.654 156.446C673.484 171.029 735.96 244.419 768.791 285.185L773.254 290.492L800.862 269.332C698.912 146.544 582.659 115.484 530.984 114.676L544.654 156.446Z" fill="#FFD175"/>
<path d="M156.1 763.518C77.7259 660.235 74.9354 535.009 81.7704 483.115L82.5299 476.222L48.1622 470.852C29.6892 629.375 95.2394 744.902 130.324 782.851L156.1 763.518Z" fill="#FFD175"/>
<path d="M598.948 343.056C575.229 343.056 556.565 328.28 556.565 299.895C556.565 269.761 577.368 235.738 614.89 235.738C639.192 235.738 657.856 250.125 657.856 280.259C657.856 316.032 631.221 343.056 598.948 343.056ZM598.17 335.279C604.975 335.279 610.807 323.809 614.89 308.45C619.556 290.758 621.889 268.983 621.889 257.707C621.889 248.958 620.723 243.515 616.057 243.515C609.058 243.515 602.836 256.152 599.142 270.539C594.671 288.425 592.338 309.811 592.338 320.698C592.338 331.78 594.476 335.279 598.17 335.279Z" fill="#581B34"/>
<path d="M737.907 507.095C714.771 507.095 696.691 492.514 696.691 464.518C696.691 434.967 716.521 400.166 753.46 400.166C777.373 400.166 795.259 414.553 795.259 443.91C795.259 478.321 770.374 507.095 737.907 507.095ZM737.323 499.318C744.906 499.318 751.516 487.848 755.793 473.072C760.459 456.158 762.986 435.939 762.986 424.662C762.986 414.164 760.459 407.943 754.626 407.943C746.655 407.943 740.045 420.385 735.963 434.383C731.297 451.297 728.964 471.322 728.964 482.404C728.964 494.847 732.269 499.318 737.323 499.318Z" fill="#581B34"/>
<path d="M709.4 731.888C687.042 731.888 669.934 717.501 669.934 689.894C669.934 661.509 688.403 625.348 724.37 625.348C747.311 625.348 764.031 640.123 764.031 668.119C764.031 700.004 742.257 731.888 709.4 731.888ZM708.623 723.917C718.149 723.917 725.537 712.835 730.397 698.448C735.258 683.284 737.591 665.398 737.591 654.121C737.591 640.512 733.119 633.319 725.342 633.319C715.622 633.319 708.234 645.178 703.568 658.787C698.707 674.146 696.374 691.838 696.374 702.92C696.374 718.084 701.429 723.917 708.623 723.917Z" fill="#581B34"/>
<path d="M532.239 878.171C510.659 878.171 494.328 863.979 494.328 836.955C494.328 809.348 511.436 772.02 546.82 772.02C568.983 772.02 584.731 786.796 584.731 814.014C584.731 843.954 565.484 878.171 532.239 878.171ZM531.461 870.2C542.348 870.2 550.514 859.119 555.763 845.315C560.624 831.511 563.151 815.569 563.151 804.293C563.151 788.157 557.124 780.186 547.598 780.186C536.71 780.186 528.35 791.656 523.296 804.876C518.435 818.874 516.102 834.817 516.102 845.898C516.102 863.201 522.518 870.2 531.461 870.2Z" fill="#581B34"/>
<path d="M177.721 659.454C157.696 659.454 143.31 645.65 143.31 619.599C143.31 593.936 157.502 554.275 191.33 554.275C211.938 554.275 225.548 569.245 225.548 594.519C225.548 619.793 211.55 659.454 177.721 659.454ZM176.944 651.289C190.942 651.289 200.857 640.596 206.884 627.959C211.938 617.071 214.466 605.406 214.466 594.13C214.466 572.55 204.745 562.44 191.525 562.44C177.916 562.44 168 573.133 161.974 585.77C156.724 596.658 154.391 608.517 154.391 619.793C154.391 641.762 164.112 651.289 176.944 651.289Z" fill="#581B34"/>
<path d="M312.354 829.568C291.746 829.568 276.387 815.57 276.387 789.129C276.387 762.688 291.941 724 326.352 724C347.738 724 362.319 738.775 362.319 765.021C362.319 792.24 345.794 829.568 312.354 829.568ZM311.577 821.402C324.214 821.402 333.351 810.709 338.989 797.489C344.044 785.435 346.572 771.826 346.572 760.355C346.572 741.303 338.406 732.165 326.936 732.165C314.299 732.165 305.161 743.247 299.717 756.078C294.468 768.326 292.135 781.936 292.135 793.212C292.135 813.042 300.495 821.402 311.577 821.402Z" fill="#581B34"/>
<path fill-rule="evenodd" clip-rule="evenodd" d="M884.922 529.335C884.922 438.862 855.997 355.141 806.892 286.918C805.901 285.541 803.972 285.258 802.618 286.28L495.815 517.989C493.663 519.614 494.538 523.029 497.206 523.419L878.825 579.184C880.515 579.431 882.077 578.238 882.269 576.541C884.021 561.048 884.922 545.297 884.922 529.335ZM879.32 597.717C879.597 596.048 878.445 594.479 876.771 594.234L492.594 538.095C489.907 537.702 488.094 540.764 489.731 542.931L724.301 853.525C725.326 854.882 727.268 855.134 728.597 854.072C806.995 791.441 862.212 701.013 879.32 597.717ZM711.561 866.981C712.94 865.991 713.224 864.06 712.201 862.706L478.79 553.647C477.152 551.479 473.71 552.387 473.354 555.08L422.621 939.017C422.398 940.702 423.601 942.243 425.292 942.422C439.821 943.959 454.573 944.748 469.509 944.748C559.823 944.748 643.405 915.927 711.561 866.981ZM404.096 939.627C405.774 939.892 407.34 938.717 407.562 937.033L458.339 552.771C458.692 550.098 455.647 548.324 453.496 549.949L144.607 783.232C143.252 784.256 142.998 786.192 144.055 787.522C207.308 867.149 299.168 923.03 404.096 939.627ZM131.193 770.45C132.181 771.834 134.116 772.122 135.473 771.097L793.419 274.194C794.778 273.168 795.028 271.225 793.964 269.896C729.893 189.871 636.832 134.064 530.703 118.397C529.043 118.152 527.88 116.617 528.113 114.956L529.378 105.931C529.611 104.269 531.156 103.112 532.816 103.356C740.619 133.978 900.11 313.025 900.11 529.335C900.11 767.15 707.324 959.936 469.509 959.936C231.695 959.936 38.9081 767.15 38.9081 529.335C38.9081 510.035 41.3604 484.019 43.889 464.941C44.1094 463.278 45.643 462.123 47.3048 462.353L56.3322 463.601C57.9941 463.831 59.1549 465.359 58.9347 467.023C56.456 485.746 54.0968 510.99 54.0968 529.335C54.0968 619.236 82.6543 702.466 131.193 770.45Z" fill="#F1520D"/>
<path d="M47.2618 555.628C38.8832 546.656 7.00067 525.137 8.32485 505.498C9.22197 492.193 35.6963 479.879 51.0189 466.3" stroke="#F1520D" stroke-width="15.1888" stroke-linecap="round"/>
<path d="M86.9089 718.791C75.7766 713.617 38.1498 705.63 32.0099 686.929C27.8501 674.259 47.0134 654.624 56.1228 636.288" stroke="#F1520D" stroke-width="15.1888" stroke-linecap="round"/>
<path d="M59.3922 638.958C49.384 631.85 13.8321 617.165 11.1891 597.66C9.39839 584.445 31.8075 568.615 44.094 552.238" stroke="#F1520D" stroke-width="15.1888" stroke-linecap="round"/>
<path d="M136.687 787.145C124.573 785.159 86.1853 787.596 75.2379 771.237C67.8211 760.155 80.9915 736.086 84.829 715.975" stroke="#F1520D" stroke-width="15.1888" stroke-linecap="round"/>
<path d="M189.232 852.08C176.957 851.902 139.348 859.971 126.109 845.405C117.139 835.537 126.617 809.79 127.448 789.333" stroke="#F1520D" stroke-width="15.1888" stroke-linecap="round"/>
<path d="M334.33 936.586C322.885 941.025 291.049 962.613 273.312 954.078C261.296 948.295 260.423 920.873 253.519 901.598" stroke="#F1520D" stroke-width="15.1888" stroke-linecap="round"/>
<path d="M257.709 901.09C245.649 903.378 210.423 918.829 194.531 907.216C183.764 899.348 187.883 872.222 184.593 852.015" stroke="#F1520D" stroke-width="15.1888" stroke-linecap="round"/>
<path d="M418.103 948.076C408.276 955.433 383.427 984.794 364.047 981.348C350.918 979.014 342.695 952.838 330.858 936.133" stroke="#F1520D" stroke-width="15.1888" stroke-linecap="round"/>
<path d="M499.116 954.585C490.363 963.192 469.669 995.616 450.003 994.796C436.679 994.241 425.025 969.402 411.057 954.433" stroke="#F1520D" stroke-width="15.1888" stroke-linecap="round"/>
<path d="M661.209 910.763C656.324 922.025 649.305 959.844 630.767 966.462C618.208 970.946 598.088 952.293 579.525 943.657" stroke="#F1520D" stroke-width="15.1888" stroke-linecap="round"/>
<path d="M582.102 940.32C575.253 950.507 561.486 986.424 542.055 989.567C528.891 991.697 512.491 969.701 495.803 957.839" stroke="#F1520D" stroke-width="15.1888" stroke-linecap="round"/>
<path d="M723.121 865.762C721.447 877.923 730.008 909.72 713.936 921.083C703.047 928.782 678.648 916.234 658.446 912.914" stroke="#F1520D" stroke-width="15.1888" stroke-linecap="round"/>
<path d="M788.737 807.125C788.596 819.399 796.777 856.985 782.252 870.267C772.411 879.267 746.635 869.866 726.176 869.096" stroke="#F1520D" stroke-width="15.1888" stroke-linecap="round"/>
<path d="M872.806 661.771C877.28 673.203 898.963 704.974 890.481 722.736C884.735 734.769 857.315 735.725 838.061 742.686" stroke="#F1520D" stroke-width="15.1888" stroke-linecap="round"/>
<path d="M837.54 738.497C839.865 750.551 855.421 785.73 843.856 801.657C836.02 812.448 808.883 808.41 788.685 811.761" stroke="#F1520D" stroke-width="15.1888" stroke-linecap="round"/>
<path d="M889.438 586.291C896.824 596.096 920.864 612.528 917.477 631.918C915.182 645.054 889.031 653.355 872.362 665.243" stroke="#F1520D" stroke-width="15.1888" stroke-linecap="round"/>
<path d="M896.884 503.111C905.263 512.082 937.145 533.602 935.821 553.24C934.924 566.546 909.794 577.558 894.472 591.137" stroke="#F1520D" stroke-width="15.1888" stroke-linecap="round"/>
<path d="M857.237 339.944C868.369 345.117 905.996 353.105 912.136 371.806C916.296 384.476 897.133 404.111 888.023 422.446" stroke="#F1520D" stroke-width="15.1888" stroke-linecap="round"/>
<path d="M884.754 419.779C894.762 426.887 930.314 441.572 932.957 461.077C934.748 474.292 912.338 490.122 900.052 506.499" stroke="#F1520D" stroke-width="15.1888" stroke-linecap="round"/>
<path d="M807.459 271.594C819.572 273.579 857.96 271.143 868.908 287.501C876.325 298.584 863.154 322.653 859.317 342.764" stroke="#F1520D" stroke-width="15.1888" stroke-linecap="round"/>
<path d="M753.345 208.874C765.614 209.293 803.375 201.965 816.325 216.788C825.099 226.831 815.116 252.387 813.883 272.824" stroke="#F1520D" stroke-width="15.1888" stroke-linecap="round"/>
<path d="M609.937 121.534C621.467 117.321 653.721 96.3623 671.286 105.245C683.187 111.262 683.52 138.697 690.044 158.103" stroke="#F1520D" stroke-width="15.1888" stroke-linecap="round"/>
<path d="M685.845 158.528C697.948 156.477 733.471 141.722 749.132 153.646C759.742 161.723 755.09 188.763 757.983 209.031" stroke="#F1520D" stroke-width="15.1888" stroke-linecap="round"/>
<path d="M527.187 113.919C537.157 106.757 561.796 72.3719 581.104 76.1979C594.185 78.79 601.891 105.122 613.398 122.056" stroke="#F1520D" stroke-width="15.1888" stroke-linecap="round"/>
<path d="M467.231 527.526C481.897 519 488.734 497.558 483.067 449.91C482.697 446.799 484.266 443.802 486.746 441.889C501.19 430.75 517.024 402.202 501.565 356.888C500.519 353.821 501.414 350.42 503.697 348.12C516.092 335.635 531.547 310.314 519.906 282.719C518.554 279.515 519.154 275.761 521.226 272.967C530.988 259.802 540.319 230.235 520.557 187.43C519.48 185.098 519.551 182.361 521.007 180.245C531.696 164.709 552.652 144.324 527.946 114.677" stroke="#F1520D" stroke-width="15.1888" stroke-linecap="round"/>
<path d="M51.7788 466.297C59.1137 480.967 82.2715 486.331 130.091 480.935C133.204 480.584 136.188 482.178 138.081 484.674C149.103 499.207 177.522 515.271 222.959 500.178C226.035 499.156 229.429 500.079 231.71 502.381C244.095 514.876 269.29 530.534 296.978 519.116C300.193 517.79 303.942 518.421 306.719 520.515C319.806 530.383 349.296 539.952 392.259 520.537C394.6 519.479 397.33 519.583 399.488 520.977C414.613 530.745 432.945 544.59 471.028 526.006" stroke="#F1520D" stroke-width="15.1888" stroke-linecap="round"/>
<path d="M79.1178 480.725C72.2829 532.62 78.2065 662.23 156.58 765.514" stroke="#F1520D" stroke-width="15.1888"/>
<path d="M421.625 917.592C473.52 924.427 603.131 918.503 706.414 840.129" stroke="#F1520D" stroke-width="15.1888"/>
<path d="M854.695 584.959C861.53 533.064 855.606 403.453 777.232 300.17" stroke="#F1520D" stroke-width="15.1888"/>
<path d="M161.867 768.648C193.73 810.176 289.567 897.636 418.018 915.25" stroke="#F1520D" stroke-width="15.1888"/>
<path d="M773.465 295.519C741.603 253.99 663.992 171.781 535.541 154.167" stroke="#F1520D" stroke-width="15.1888"/>
</svg>
