<svg width="253" height="520" viewBox="0 0 253 520" fill="none" xmlns="http://www.w3.org/2000/svg">
<path d="M114.239 127.058C113.782 126.538 113.746 125.932 113.912 125.313C114.077 124.695 114.395 124.25 115.051 124.028L116.597 124.443C116.844 124.509 117.079 124.373 117.145 124.126L123.986 98.5945C124.036 98.409 123.9 98.1738 123.653 98.1076L122.108 97.6935C121.651 97.1735 121.614 96.5674 121.78 95.9492C121.945 95.331 122.28 94.8244 122.919 94.6643L130.597 96.9203L138.065 98.7226C147.259 101.253 151.258 105.372 150.018 110.738C148.607 115.263 145.143 116.322 140.308 115.822C140.122 115.772 139.595 115.763 139.561 115.887C139.528 116.01 139.928 116.25 140.175 116.316C145.145 118.045 148.369 121.096 147.094 125.856C145.504 131.791 139.046 133.638 130.267 131.286L122.017 128.943L114.239 127.058ZM132.413 112.646L132.474 112.663C135.998 113.607 137.777 112.162 138.887 108.02C139.93 104.125 138.675 102.133 136.017 101.42L135.831 101.371C135.646 101.321 135.411 101.457 135.345 101.704L132.413 112.646ZM128.96 127.755L129.888 128.004C132.546 128.716 134.432 127.366 135.575 123.101C136.734 118.773 136.123 116.357 132.043 115.264L131.734 115.181L128.537 127.112C128.454 127.421 128.59 127.656 128.96 127.755Z" fill="#F1520D"/>
<path d="M111.222 285.514C110.827 285.01 110.79 284.404 110.956 283.786C111.122 283.168 111.456 282.661 112.034 282.485L113.826 282.965C114.074 283.031 114.309 282.895 114.375 282.648L117.208 272.077C115.397 272.652 112.989 272.736 110.393 272.04C103.037 270.069 100.073 262.583 102.906 252.012C105.738 241.441 113.638 236.932 120.315 238.721C122.849 239.4 124.55 240.717 125.258 242.033L128.488 229.978C128.554 229.731 128.418 229.496 128.171 229.429L126.255 228.916C125.843 228.474 125.745 227.852 125.911 227.234C126.076 226.615 126.473 226.125 127.066 225.887C128.781 226.412 130.524 227.078 132.44 227.592C134.913 228.254 136.591 228.174 138.569 228.704C140.3 229.168 140.592 230.306 140.194 231.79L136.682 244.895C138.493 244.32 140.839 244.22 143.497 244.932C150.853 246.904 153.817 254.39 151.001 264.899C148.152 275.532 140.252 280.041 133.513 278.235C131.041 277.573 129.34 276.255 128.632 274.939L125.75 285.696C125.684 285.943 125.819 286.178 126.005 286.228L127.736 286.692C128.147 287.134 128.246 287.756 128.08 288.374C127.914 288.993 127.518 289.483 126.924 289.721L119.263 287.403L111.222 285.514ZM115.484 269.362C116.658 269.677 117.549 269.319 118.003 269.11L124.446 245.062C124.253 244.547 123.986 243.812 123.059 243.564C120.957 243.001 117.799 246.13 115.331 255.341C112.83 264.676 113.567 268.849 115.484 269.362ZM130.831 273.409C132.933 273.972 136.091 270.842 138.575 261.569C141.06 252.297 140.323 248.124 138.345 247.594C137.232 247.295 136.296 247.575 135.887 247.863L129.444 271.91C129.637 272.426 129.904 273.16 130.831 273.409Z" fill="#B4000F"/>
<path d="M118.829 455.945C118.149 455.763 117.585 455.148 117.764 453.738L117.955 452.53C118.611 448.598 117.166 446.819 112.654 445.61L93.7988 440.558L85.7744 438.607C85.3627 438.165 85.3263 437.559 85.4919 436.941C85.6576 436.323 85.9921 435.816 86.5861 435.578L88.3788 436.058C88.6261 436.124 88.8612 435.988 88.9275 435.741L95.7686 410.21C95.8349 409.963 95.6991 409.727 95.4518 409.661L93.6591 409.181C93.2639 408.677 93.2275 408.071 93.3932 407.453C93.5588 406.835 93.8768 406.39 94.4707 406.152L102.396 408.474L109.926 410.293C110.383 410.813 110.435 411.357 110.27 411.975C110.104 412.593 109.77 413.1 109.114 413.322L107.63 412.924C107.445 412.875 107.21 413.01 107.143 413.258L100.286 438.851C100.219 439.098 100.355 439.333 100.541 439.383L107.341 441.205C107.588 441.271 107.823 441.136 107.889 440.888L114.747 415.295C114.813 415.048 114.678 414.813 114.43 414.746L112.947 414.349C112.552 413.845 112.453 413.223 112.619 412.605C112.785 411.986 113.164 411.558 113.758 411.32L121.374 413.559L129.213 415.461C129.67 415.981 129.723 416.525 129.557 417.143C129.392 417.761 129.057 418.268 128.401 418.49L126.609 418.01C126.423 417.96 126.188 418.096 126.122 418.343L119.281 443.874C119.214 444.122 119.35 444.357 119.536 444.406L121.885 445.036C122.812 445.284 123.067 445.816 122.819 446.744L120.466 455.522C120.008 455.996 119.448 456.11 118.829 455.945Z" fill="#B4000F"/>
<path d="M104.713 504.046C100.361 504.046 97.9925 502.126 97.9925 498.158C97.9925 495.598 99.2725 493.806 101.641 493.806C103.945 493.806 105.353 495.15 105.353 497.006C105.353 498.798 104.329 498.99 104.329 500.206C104.329 500.718 104.521 501.358 105.417 501.358C106.697 501.358 107.785 498.926 108.745 492.91C109.129 490.542 109.385 487.662 109.705 485.422C109.961 482.478 110.153 479.342 110.409 475.502C110.473 473.646 110.089 473.006 108.169 473.006H106.249C105.737 472.622 105.545 472.046 105.545 471.406C105.545 470.766 105.737 470.254 106.249 469.87L115.721 470.062H125.833L133.897 469.87C134.409 470.254 134.665 470.766 134.665 471.406C134.665 472.046 134.409 472.622 133.897 473.006H131.977C131.849 473.006 131.657 473.198 131.657 473.454V499.886C131.657 500.142 131.849 500.334 131.977 500.334H133.897C134.409 500.718 134.665 501.294 134.665 501.934C134.665 502.574 134.409 503.15 133.897 503.47L125.833 503.278L117.897 503.47C117.321 503.15 117.128 502.574 117.128 501.934C117.128 501.294 117.321 500.718 117.897 500.334H119.369C119.625 500.334 119.817 500.142 119.817 499.886V473.39C119.817 473.134 119.625 472.942 119.369 472.942H116.041C113.929 472.942 113.737 473.646 113.609 475.502C113.289 479.726 113.161 483.182 112.969 485.422C112.649 487.726 112.393 490.798 111.945 493.358C110.729 500.718 108.873 504.046 104.713 504.046Z" fill="#B4000F"/>
<path d="M131.944 339.021C131.379 339.36 130.784 339.238 130.23 338.918C129.675 338.598 129.272 338.144 129.228 337.453L130.124 335.901C130.252 335.68 130.214 335.362 129.992 335.234L107.101 322.018C106.879 321.89 106.585 322.016 106.457 322.237L105.561 323.789C104.973 324.041 104.346 323.974 103.791 323.654C103.237 323.334 102.922 322.857 102.845 322.221L107.14 315.167L111.005 308.088C111.626 307.781 112.165 307.871 112.719 308.191C113.274 308.511 113.677 308.965 113.721 309.656L112.793 311.263C112.697 311.429 112.767 311.692 112.989 311.82L135.88 325.036C136.102 325.164 136.364 325.093 136.46 324.927L137.388 323.32C138.008 323.013 138.603 323.135 139.158 323.455C139.712 323.775 140.115 324.229 140.104 324.888L135.905 331.775L131.944 339.021ZM115.92 366.647C115.332 366.898 114.792 366.808 114.238 366.488C113.628 366.136 113.281 365.714 113.204 365.079L114.132 363.471C114.26 363.25 114.19 362.987 113.968 362.859L91.0777 349.643C90.9114 349.547 90.6491 349.618 90.5211 349.839L89.5931 351.447C89.0046 351.698 88.4097 351.576 87.8555 351.256C87.3012 350.936 86.9538 350.514 86.8773 349.879L91.1715 342.825L95.4213 335.08C96.0418 334.773 96.5812 334.863 97.1355 335.183C97.6897 335.503 98.0926 335.957 98.1371 336.648L96.8251 338.92C96.7291 339.087 96.7994 339.349 97.0211 339.477L104.892 344.021L105.724 342.58C110.186 335.106 115.742 329.963 122.227 333.707C128.379 337.259 128.816 344.31 124.208 352.291L119.882 359.401L115.92 366.647ZM120.5 352.442L121.012 351.555C122.388 349.171 121.272 346.753 116.45 343.969C112.238 341.537 109.634 341.438 107.522 345.096L107.33 345.429L119.856 352.661C120.078 352.789 120.34 352.719 120.5 352.442Z" fill="#69AF90"/>
<path d="M168.628 313.414H168.18C167.028 316.102 164.916 318.982 158.836 318.982C154.996 318.982 149.428 316.614 149.428 309.51C149.428 298.95 162.164 295.43 167.988 295.43V290.758C167.988 288.326 167.54 286.726 164.083 286.726C160.628 286.726 159.284 288.07 159.284 289.222C159.284 290.31 160.5 291.462 160.5 292.87C160.5 295.174 158.132 296.902 155.38 296.902C152.052 296.902 150.068 294.726 150.068 292.422C150.068 286.598 159.284 283.782 165.812 283.782C175.54 283.782 179.828 285.574 179.828 292.422V312.07C179.828 313.094 180.276 313.606 180.852 313.606C181.3 313.606 181.684 313.414 182.196 312.39C182.644 311.686 183.028 311.302 183.86 311.302C184.564 311.302 185.268 311.878 185.268 312.71C185.268 313.67 183.156 318.79 176.308 318.79C171.572 318.79 168.628 316.422 168.628 313.414ZM163.7 313.35C167.028 313.35 167.924 308.614 167.988 305.094V298.182C162.548 298.182 160.564 302.15 160.564 307.59C160.564 311.622 161.332 313.35 163.7 313.35Z" fill="#581B34"/>
<path d="M148.004 436.47C147.492 436.15 147.299 435.574 147.299 434.934C147.299 434.294 147.492 433.718 148.004 433.334H149.86C150.116 433.334 150.308 433.142 150.308 432.886V406.454C150.308 406.198 150.116 406.006 149.86 406.006H148.004C147.492 405.622 147.299 405.046 147.299 404.406C147.299 403.766 147.492 403.254 148.004 402.87L156.26 403.062H175.908L183.972 402.87C184.548 403.254 184.74 403.766 184.74 404.406C184.74 405.046 184.548 405.622 183.972 406.006H182.116C181.924 406.006 181.732 406.198 181.732 406.454V432.886C181.732 433.142 181.924 433.334 182.116 433.334H183.972C184.548 433.718 184.74 434.294 184.74 434.934C184.74 435.574 184.548 436.15 183.972 436.47L175.908 436.278L167.972 436.47C167.46 436.15 167.204 435.574 167.204 434.934C167.204 434.294 167.46 433.718 167.972 433.334H169.508C169.764 433.334 169.956 433.142 169.956 432.886V406.39C169.956 406.134 169.764 405.942 169.508 405.942H162.468C162.276 405.942 162.083 406.134 162.083 406.39V432.886C162.083 433.142 162.276 433.334 162.468 433.334H164.003C164.58 433.718 164.772 434.294 164.772 434.934C164.772 435.574 164.58 436.15 164.003 436.47L156.26 436.278L148.004 436.47Z" fill="#581B34"/>
<path d="M70.4812 261.404C65.0411 259.946 61.3068 255.831 62.4122 251.953C62.876 250.222 64.3333 248.493 67.2388 249.271C69.588 249.901 70.0559 251.616 69.6959 252.712C69.1416 254.286 68.4814 254.772 68.2164 255.761C67.7901 257.105 68.8277 258.178 71.2387 258.824C73.5878 259.453 75.023 259.043 75.3874 257.683C75.6524 256.694 75.0144 255.86 75.4451 254.253C75.8051 253.157 76.9444 251.872 79.2936 252.501C82.1991 253.28 82.5963 255.506 82.1325 257.237C81.1508 261.148 75.8594 262.845 70.4812 261.404ZM42.8578 294.022C42.446 293.58 42.4097 292.974 42.5753 292.356C42.7409 291.738 43.0755 291.231 43.6694 290.992L45.4622 291.473C45.7095 291.539 45.9446 291.403 46.0109 291.156L52.852 265.625C52.9182 265.377 52.7825 265.142 52.5352 265.076L50.7424 264.596C50.3473 264.092 50.3109 263.486 50.4765 262.868C50.6422 262.25 50.9601 261.805 51.5541 261.567L59.4791 263.889L67.318 265.79C67.775 266.31 67.8279 266.855 67.6623 267.473C67.4966 268.091 67.1621 268.598 66.5063 268.82L64.7136 268.339C64.5281 268.29 64.293 268.425 64.2267 268.673L59.1249 287.713L72.8847 271.721L73.0669 271.041C73.1331 270.794 72.9974 270.559 72.7501 270.493L71.0191 270.029C70.5622 269.509 70.5258 268.903 70.6914 268.285C70.8571 267.666 71.175 267.221 71.8308 267L79.7558 269.322L87.5947 271.224C87.9899 271.727 88.0428 272.271 87.8772 272.889C87.7115 273.508 87.377 274.014 86.7831 274.253L84.9285 273.756C84.743 273.706 84.5079 273.842 84.4416 274.089L77.6005 299.62C77.5342 299.868 77.67 300.103 77.8555 300.153L79.71 300.65C80.1052 301.153 80.1416 301.759 79.9759 302.377C79.8103 302.995 79.4758 303.502 78.8984 303.679L71.1589 301.406L63.1345 299.455C62.6609 298.997 62.6245 298.39 62.7902 297.772C62.9558 297.154 63.2904 296.647 63.9461 296.426L65.6771 296.889C65.9244 296.956 66.1595 296.82 66.2258 296.573L71.311 277.594L57.5678 293.524L57.3856 294.204C57.3193 294.451 57.4551 294.686 57.6406 294.736L59.4333 295.216C59.8903 295.736 59.9267 296.342 59.7611 296.961C59.5954 297.579 59.2609 298.086 58.6217 298.246L50.8821 295.973L42.8578 294.022Z" fill="#69AF90"/>
<path d="M43.863 363.238C37.911 363.238 36.823 359.142 36.823 355.366C36.823 354.726 36.823 354.086 36.887 353.446C36.951 352.166 37.719 351.078 38.615 351.142C39.511 351.206 39.575 352.102 39.575 352.806C39.575 353.638 39.511 354.47 39.511 355.302C39.511 357.606 39.767 359.718 40.919 359.718C41.687 359.718 42.071 358.822 42.199 357.286C42.455 355.11 42.775 352.614 43.671 350.758C45.143 348.262 46.871 346.214 52.055 346.214C52.311 346.214 52.439 346.022 52.439 345.766C52.439 345.638 52.311 345.382 52.055 345.382C45.399 345.446 41.559 343.718 41.559 337.702C41.559 331.238 47.703 328.934 56.535 328.87L64.663 329.062L72.663 328.87C73.239 329.19 73.431 329.766 73.431 330.406C73.431 331.046 73.239 331.622 72.663 332.006H71.063C70.807 332.006 70.615 332.198 70.615 332.454V358.886C70.615 359.078 70.807 359.27 71.063 359.27H72.663C73.239 359.654 73.431 360.166 73.431 360.806C73.431 361.446 73.239 362.022 72.663 362.406C72.535 362.406 64.599 362.214 64.599 362.214C64.855 362.214 55.575 362.406 56.023 362.406C55.447 362.022 55.255 361.446 55.255 360.806C55.255 360.166 55.447 359.654 56.023 359.27H58.455C58.647 359.27 58.839 359.078 58.839 358.822V346.982C56.343 346.982 55.831 348.838 54.871 352.934L54.615 354.15C53.527 360.294 51.031 363.238 43.863 363.238ZM58.455 344.166H58.839V332.454C58.839 332.198 58.647 332.006 58.327 332.006H57.815C54.935 332.006 53.399 332.774 53.399 338.342C53.399 343.334 54.103 344.166 58.455 344.166Z" fill="#F1520D"/>
<path d="M61.8904 229.884C54.9212 222.914 54.5591 211.872 62.0714 204.36C65.7823 200.649 71.2129 199.201 74.245 199.518C75.9194 199.653 77.9559 200.604 79.042 201.69C81.2142 203.862 81.5763 207.03 78.861 209.745C76.734 211.872 74.1092 211.872 72.3443 210.107C70.9866 208.75 71.1224 206.351 69.9005 205.129C67.9546 203.183 66.0086 204.496 64.9677 205.537C61.7999 208.704 64.5152 213.592 70.9866 220.063C77.6844 226.761 81.6668 229.657 85.785 225.539C88.9528 222.371 89.1338 216.036 86.0565 212.325C85.4229 211.601 85.3324 210.696 86.0112 210.017C86.7353 209.293 87.5499 209.564 88.2287 210.243C88.8623 210.877 89.8579 212.777 90.1747 213.366C92.7542 218.66 91.1703 225.584 86.8258 229.929C79.7661 236.989 69.3575 237.351 61.8904 229.884Z" fill="#F1520D"/>
<path d="M56.2375 416.55C55.3721 416.782 54.2339 416.49 53.5979 415.601L37.0367 390.885C36.9086 390.654 36.7022 390.378 36.5167 390.428C36.3931 390.461 36.3026 390.618 36.4516 391.174L43.1271 416.087C43.1437 416.149 43.222 416.194 43.3457 416.161L46.4366 415.333C47.0306 415.571 47.4269 416.061 47.5926 416.68C47.7582 417.298 47.6435 417.859 47.2483 418.362L42.0676 419.551L38.2845 420.764C37.6453 420.604 37.3108 420.097 37.1451 419.479C36.9795 418.861 37.0159 418.255 37.4729 417.735L39.6983 417.138C39.822 417.105 39.8672 417.027 39.8507 416.965L32.9268 391.125C32.8605 390.877 32.749 390.709 32.5017 390.775L30.2144 391.388C29.5586 391.166 29.2241 390.659 29.0584 390.041C28.8928 389.423 28.9457 388.879 29.4027 388.359L32.8977 387.555L44.3012 384.366C45.3521 384.085 45.7561 384.109 46.7266 385.506L55.3749 398.494C55.503 398.724 55.7547 398.922 55.8783 398.889C56.1256 398.823 56.278 398.649 56.2856 398.183L57.3054 382.207C57.366 381.197 57.716 380.772 59.5087 380.292C60.1269 380.126 60.1435 380.188 61.0255 380.018L73.2944 376.598C73.9502 376.82 74.2681 377.264 74.4338 377.883C74.5994 378.501 74.563 379.107 74.1061 379.627L72.3133 380.107C72.1278 380.157 71.9921 380.392 72.0583 380.639L78.8994 406.171C78.9657 406.418 79.2009 406.554 79.3863 406.504L81.1791 406.024C81.8348 406.246 82.1694 406.752 82.335 407.37C82.5007 407.989 82.4643 408.595 81.9907 409.053L74.1518 410.955L66.165 413.293C65.5876 413.117 65.2531 412.61 65.0874 411.992C64.9218 411.374 64.9582 410.768 65.3533 410.264L67.2079 409.767C67.4552 409.701 67.591 409.466 67.5247 409.219L60.7333 383.873C60.6173 383.44 60.5058 383.271 60.2585 383.337C59.8876 383.437 59.9131 384.026 59.8601 384.57L58.1726 414.375C58.0998 415.587 57.305 416.33 56.2375 416.55Z" fill="#F1520D"/>
<path d="M140.917 369.172C140.362 368.852 140.047 368.374 140.058 367.715L144.602 359.845C145.082 359.013 145.638 358.817 146.47 359.297L147.911 360.129C151.836 359.218 154.887 355.215 159.302 349.487C161.139 347.074 162.879 344.827 165.315 341.504C166.409 339.993 166.397 339.247 164.734 338.287L163.071 337.327C162.764 336.706 162.886 336.111 163.206 335.557C163.526 335.003 163.948 334.655 164.639 334.611L172.746 339.513L181.171 344.377L188.306 348.275C188.557 348.863 188.468 349.403 188.148 349.957C187.828 350.511 187.373 350.914 186.738 350.991L185.075 350.031C184.909 349.935 184.647 350.005 184.519 350.227L171.303 373.117C171.175 373.339 171.245 373.601 171.411 373.697L173.573 374.945C174.381 375.338 174.513 376.005 174.033 376.837L169.489 384.707C168.868 385.014 168.297 384.98 167.743 384.66C167.133 384.308 166.747 383.568 167.34 382.284L167.837 381.167C169.489 377.539 168.554 375.447 164.507 373.111L152.591 366.231C148.489 363.863 146.266 364.131 143.894 367.343L143.175 368.332C142.36 369.488 141.526 369.524 140.917 369.172ZM151.015 361.921L160.492 367.393C160.714 367.521 160.976 367.451 161.104 367.229L174.352 344.283C174.48 344.061 174.41 343.799 174.188 343.671L171.417 342.071C169.588 341.015 169.102 341.473 167.975 343.04C165.26 346.719 163.328 349.299 161.962 351.023C157.221 356.932 153.878 360.545 151.015 361.921Z" fill="#B4000F"/>
<path d="M133.388 188.096C132.77 188.262 131.974 188.012 131.362 186.718L130.924 185.576C129.587 181.826 127.447 181.008 122.934 182.218L89.2426 191.245L81.3176 193.568C80.7402 193.391 80.4057 192.884 80.24 192.266C80.0744 191.648 80.1108 191.042 80.5059 190.538L82.2987 190.058C82.546 189.992 82.6817 189.757 82.6155 189.509L75.7744 163.978C75.7081 163.731 75.473 163.595 75.2257 163.661L73.4329 164.142C72.839 163.903 72.5045 163.397 72.3388 162.778C72.1732 162.16 72.2261 161.616 72.6213 161.112L80.6457 159.161L87.3961 157.154C88.0518 157.375 88.3698 157.82 88.5355 158.438C88.7011 159.057 88.6647 159.663 88.2077 160.183L87.4041 160.398C87.2186 160.448 87.0829 160.683 87.1491 160.93L94.0068 186.523C94.073 186.771 94.3082 186.906 94.4937 186.857L99.1919 185.598C99.4392 185.532 99.575 185.296 99.5087 185.049L92.651 159.456C92.5848 159.209 92.3496 159.073 92.1023 159.139L91.1751 159.388C90.5193 159.166 90.1848 158.659 90.0191 158.041C89.8535 157.423 89.9064 156.878 90.3634 156.358L97.5223 154.639L104.458 152.582C105.052 152.82 105.37 153.265 105.536 153.883C105.701 154.501 105.665 155.107 105.27 155.611L104.281 155.876C104.095 155.926 103.96 156.161 104.026 156.408L110.883 182.001C110.95 182.249 111.185 182.384 111.37 182.335L116.007 181.092C116.254 181.026 116.39 180.791 116.324 180.544L109.466 154.95C109.4 154.703 109.164 154.567 108.917 154.634L108.175 154.832C107.52 154.611 107.185 154.104 107.019 153.486C106.854 152.868 106.907 152.323 107.364 151.803L114.399 150.117L122.138 147.844C122.732 148.083 123.112 148.511 123.278 149.129C123.444 149.747 123.345 150.37 122.95 150.874L121.096 151.37C120.972 151.404 120.836 151.639 120.902 151.886L127.744 177.417C127.872 177.648 128.107 177.784 128.169 177.767L130.58 177.121C131.569 176.856 132.056 177.19 132.242 178.133L134.594 186.912C134.496 187.534 134.068 187.914 133.388 188.096Z" fill="#581B34"/>
<path d="M167.073 493.688C166.434 493.528 166.099 493.021 165.933 492.403C165.768 491.785 165.804 491.179 166.261 490.659L169.29 489.847C169.538 489.781 169.673 489.546 169.607 489.298L166.642 478.233C166.704 478.216 165.33 480.506 159.828 481.98C152.533 483.935 147.982 481.046 146.376 475.05L144.653 468.62C144.587 468.373 144.352 468.237 144.104 468.304L142.373 468.767C141.718 468.545 141.383 468.039 141.217 467.421C141.052 466.802 141.105 466.258 141.562 465.738L149.586 463.787L156.584 461.713C157.239 461.935 157.557 462.38 157.723 462.998C157.889 463.616 157.852 464.222 157.395 464.742L156.283 465.04C156.097 465.09 155.961 465.325 156.028 465.572L158.214 473.733C159.142 477.194 160.355 478.261 162.828 477.598C165.362 476.919 166.053 475.541 165.946 475.636L162.766 463.767C162.7 463.52 162.465 463.384 162.217 463.45L161.166 463.732C160.572 463.493 160.176 463.003 160.01 462.385C159.845 461.767 159.96 461.206 160.355 460.703L167.637 458.95L175.439 456.661C176.033 456.899 176.351 457.344 176.516 457.962C176.682 458.581 176.645 459.187 176.25 459.69L174.396 460.187C174.21 460.237 174.074 460.472 174.141 460.719L180.982 486.25C181.048 486.498 181.283 486.633 181.469 486.584L183.323 486.087C183.917 486.325 184.252 486.832 184.417 487.45C184.583 488.068 184.547 488.674 184.135 489.116L176.234 491.034L167.073 493.688Z" fill="#581B34"/>
<path d="M169.865 99.8901C163.824 96.4021 163.205 92.8668 165.524 87.1854L166.006 85.838C167.756 81.5274 168.345 79.3549 165.74 77.8509L165.075 77.4669L158.739 88.4412C158.611 88.6629 158.682 88.9252 158.848 89.0212L160.511 89.9812C160.762 90.5697 160.696 91.1966 160.376 91.7508C160.056 92.3051 159.546 92.6759 158.943 92.697L152 88.4667L144.754 84.505C144.47 83.9719 144.592 83.3771 144.912 82.8228C145.232 82.2686 145.686 81.8657 146.322 81.7892L147.929 82.7172C148.151 82.8452 148.413 82.7749 148.541 82.5532L161.757 59.6624C161.885 59.4407 161.815 59.1784 161.593 59.0504L159.986 58.1224C159.734 57.5339 159.856 56.939 160.176 56.3848C160.496 55.8305 160.918 55.4831 161.554 55.4066L168.608 59.7008L175.743 63.5986C175.994 64.1871 175.96 64.7585 175.64 65.3128C175.32 65.867 174.81 66.2379 174.175 66.3144L172.512 65.3544C172.346 65.2584 172.083 65.3287 171.955 65.5504L166.355 75.2499L168.073 76.2419C170.457 77.6179 172.161 76.4585 175.288 73.0908C175.256 73.1462 177.13 71.0509 177.066 71.1617C180.505 67.3825 182.967 66.9569 186.127 68.7809C190.228 71.1489 190.427 74.5156 188.891 77.176C186.971 80.5016 184.577 81.7055 181.639 80.0095C179.256 78.6335 178.623 76.273 179.918 74.2862C181.062 72.4338 183.102 72.3555 183.83 71.2236C184.205 70.7013 184.064 70.1768 183.676 69.9528C182.9 69.5048 181.548 70.0544 179.49 72.3395C179.554 72.2286 176.634 75.4941 176.722 75.4707C174.241 78.1031 172.904 78.883 171.324 78.9316C170.896 78.9058 170.872 78.8184 170.712 79.0955C170.648 79.2064 170.64 79.3493 170.861 79.4773C176.101 82.9458 178.541 85.7589 176.751 90.2678C175.827 92.7643 175.298 93.9368 174.481 95.6081C173.768 96.9703 173.74 97.9149 174.294 98.2349C175.735 99.0669 178.131 95.9419 179.579 93.3049C179.876 92.6632 180.379 91.9193 181.155 92.3673C181.876 92.7833 181.942 94.0775 181.302 95.186C179.126 98.955 175.574 103.186 169.865 99.8901Z" fill="#B4000F"/>
<path d="M178.237 165.208L171.072 169.566C170.381 169.522 169.927 169.119 169.607 168.565C169.287 168.01 169.197 167.471 169.504 166.85L171.278 165.826C171.499 165.698 171.514 165.468 171.386 165.246L151.194 130.273C151.066 130.051 150.804 129.981 150.582 130.109L148.864 131.101C148.205 131.112 147.751 130.709 147.431 130.155C147.111 129.6 146.989 129.005 147.328 128.44C148.912 127.6 150.14 127.039 151.858 126.047C154.075 124.767 154.595 123.875 156.369 122.851C157.921 121.955 158.963 122.609 159.699 123.884L161.651 127.265C161.778 123.645 162.811 118.393 167.356 115.769C173.508 112.217 182.498 114.86 187.81 124.061C193.154 133.317 190.579 143.45 183.429 147.578C180.658 149.178 178.04 149.507 175.569 148.938L181.585 159.358C181.713 159.58 181.919 159.682 182.141 159.554L185.079 157.858C185.714 157.935 186.192 158.25 186.512 158.805C186.832 159.359 186.898 159.986 186.647 160.574L178.237 165.208ZM166.95 120.954C164.844 122.17 164.31 125.213 164.177 129.207L173.553 145.446C175.598 146.557 177.288 146.541 178.951 145.581C182.665 143.437 182.278 140.335 176.614 130.525C170.918 120.659 169.389 119.546 166.95 120.954Z" fill="#581B34"/>
<path d="M198.694 46.6901C201.345 36.799 211.122 31.4678 220.024 33.8531C228.617 36.1556 233.893 43.665 231.441 52.8143C230.944 54.6689 229.484 55.6689 227.629 55.172L211.123 50.7493L210.792 51.9857C209.152 58.1058 208.981 63.6917 214.977 65.2984C219.304 66.4579 224.803 63.4921 226.664 59.0213C227.036 58.1272 227.713 57.5797 228.578 57.8116C229.567 58.0766 229.801 58.9344 229.553 59.8617C229.321 60.7271 228.111 62.5232 227.776 63.0298C224.502 67.5855 217.614 70.0467 211.061 68.2909C201.665 65.7731 195.994 56.7667 198.694 46.6901ZM212.08 47.4276L218.88 49.2497C219.745 49.4816 220.451 49.0743 220.683 48.2088C222.405 41.7796 221.813 37.3141 219.464 36.6847C216.682 35.9393 214.141 40.2279 212.08 47.4276Z" fill="#69AF90"/>
<path d="M152.402 212.302C152.118 211.769 152.24 211.174 152.56 210.62C152.88 210.065 153.334 209.663 153.97 209.586L155.577 210.514C155.799 210.642 156.061 210.572 156.189 210.35L169.405 187.459C169.533 187.238 169.463 186.975 169.241 186.847L167.634 185.919C167.382 185.331 167.504 184.736 167.824 184.182C168.144 183.627 168.566 183.28 169.202 183.203L176.256 187.498L183.335 191.363C183.642 191.984 183.552 192.523 183.232 193.078C182.912 193.632 182.458 194.035 181.767 194.079L180.16 193.151C179.994 193.055 179.731 193.126 179.603 193.347L169.747 210.418L187.177 198.533L187.529 197.923C187.657 197.702 187.587 197.439 187.365 197.311L185.813 196.415C185.507 195.795 185.628 195.2 185.948 194.646C186.268 194.091 186.691 193.744 187.381 193.699L194.435 197.994L201.515 201.859C201.766 202.448 201.677 202.987 201.357 203.542C201.037 204.096 200.582 204.499 199.947 204.575L198.284 203.615C198.118 203.519 197.856 203.59 197.728 203.811L184.512 226.702C184.384 226.924 184.454 227.186 184.62 227.282L186.283 228.242C186.534 228.831 186.413 229.425 186.093 229.98C185.773 230.534 185.318 230.937 184.715 230.958L177.827 226.76L170.581 222.798C170.243 222.233 170.364 221.638 170.684 221.084C171.004 220.529 171.459 220.127 172.149 220.082L173.701 220.978C173.923 221.106 174.185 221.036 174.313 220.814L184.137 203.798L166.739 215.628L166.387 216.238C166.259 216.46 166.33 216.722 166.496 216.818L168.103 217.746C168.41 218.367 168.288 218.961 167.968 219.516C167.648 220.07 167.194 220.473 166.535 220.462L159.648 216.264L152.402 212.302Z" fill="#69AF90"/>
<path d="M18.3161 454.361C23.6281 445.161 34.2512 443.017 43.0638 448.105C51.8211 453.161 55.2761 463.433 49.9641 472.633C44.6201 481.889 34.0291 483.978 25.2718 478.922C16.4592 473.834 12.9721 463.617 18.3161 454.361ZM29.5121 460.825C23.4641 471.301 23.4011 474.738 26.6158 476.594C29.8859 478.482 32.7202 476.645 38.7682 466.169C44.8162 455.694 44.9579 452.376 41.6878 450.488C38.4731 448.632 35.5601 450.35 29.5121 460.825Z" fill="#69AF90"/>
<path d="M53.9686 491.939C53.6297 491.373 53.7515 490.779 54.0715 490.224C54.3915 489.67 54.8457 489.267 55.5366 489.223L58.1416 490.727C58.3633 490.855 58.6255 490.784 58.7535 490.563L72.0015 467.616C72.1295 467.395 72.0593 467.132 71.8376 467.004L71.2833 466.684C67.9172 464.963 66.0024 465.335 63.8927 468.477L62.8539 470.021C62.0944 471.208 61.2053 471.212 60.5956 470.86C60.0414 470.54 59.758 470.007 59.7368 469.404L64.4814 461.058C64.9934 460.171 65.55 459.975 66.3814 460.455L79.3744 468.03L91.2355 474.878C92.0669 475.358 92.2074 475.883 91.6954 476.77L86.84 485.052C86.3069 485.335 85.7034 485.356 85.1492 485.036C84.5395 484.684 84.0984 483.912 84.747 482.661L85.5641 480.989C87.2304 477.591 86.5956 475.747 83.3107 473.628L82.7564 473.308C82.6456 473.244 82.3279 473.283 82.1999 473.504L68.9519 496.451C68.8239 496.672 68.9496 496.967 69.0604 497.031L71.4437 498.407C71.7505 499.027 71.6288 499.622 71.3088 500.176C70.9888 500.731 70.5345 501.133 69.8757 501.123L62.2676 496.508L53.9686 491.939Z" fill="#69AF90"/>
<path d="M202.472 118.037C193.77 113.013 189.829 103.2 196.709 91.2832C198.085 88.8999 199.659 86.5572 201.391 84.4533C207.568 77.0823 216.136 72.8655 227.825 79.2444L234.041 82.6855C236.9 84.2621 238.117 83.561 238.469 82.9513C238.926 82.0325 239.553 82.0988 240.052 82.3868C240.938 82.8988 240.991 83.4468 240.351 84.5553C237.009 90.0893 232.686 92.8405 226.461 89.5422L221.995 87.0376C213.553 82.4593 208.543 82.8181 204.189 87.0298C202.786 88.4366 201.436 90.3913 200.013 92.5998C205.695 85.8299 213.045 86.1563 218.864 89.5163C227.621 94.5723 231.292 104.599 226.46 112.968C221.596 121.393 211.284 123.125 202.472 118.037ZM203.76 115.677C207.03 117.565 209.769 115.895 215.241 106.417C220.745 96.8835 220.79 93.7322 217.52 91.8442C214.25 89.9562 211.488 91.5395 205.984 101.073C200.512 110.551 200.49 113.789 203.76 115.677Z" fill="#69AF90"/>
</svg>
