<svg width="1390" height="986" viewBox="0 0 1390 986" fill="none" xmlns="http://www.w3.org/2000/svg">
<path d="M695 9H62.2281C61.6759 9 61.2283 9.44754 61.2281 9.9997L61.2255 18.8257C61.2176 45.3298 39.7296 66.8114 13.2255 66.8114H10C9.44772 66.8114 9 67.2592 9 67.8114V918.53C9 919.082 9.44794 919.53 10.0004 919.53L13.2109 919.529C39.7274 919.519 61.2284 941.012 61.2284 967.529V976.342C61.2284 976.894 61.6761 977.342 62.2284 977.342H695" stroke="#F1520D" stroke-width="17"/>
<path d="M695 9H1327.77C1328.32 9 1328.77 9.44754 1328.77 9.9997L1328.77 18.8257C1328.78 45.3298 1350.27 66.8114 1376.77 66.8114H1380C1380.55 66.8114 1381 67.2592 1381 67.8114V918.53C1381 919.082 1380.55 919.53 1380 919.53L1376.79 919.529C1350.27 919.519 1328.77 941.012 1328.77 967.529V976.342C1328.77 976.894 1328.32 977.342 1327.77 977.342H695" stroke="#F1520D" stroke-width="17"/>
</svg>
