<svg width="391" height="391" viewBox="0 0 391 391" fill="none" xmlns="http://www.w3.org/2000/svg">
<path d="M236.234 41.2129L254.546 82.3962L298.888 74.3263L297.517 119.376L340.97 131.345L320.188 171.339L354.144 200.975L318.068 227.992L335.803 269.427L291.577 278.115L289.578 323.141L245.963 311.78L224.625 351.48L190.258 322.32L153.809 348.83L135.497 307.647L91.1549 315.717L92.5258 270.667L49.0733 258.698L69.8548 218.704L35.8985 189.067L71.9746 162.051L54.2399 120.616L98.4653 111.928L100.465 66.9018L144.08 78.2629L165.418 38.5631L199.785 67.723L236.234 41.2129Z" fill="#69AF90"/>
<path d="M252.899 234.826C252.554 234.456 252.523 233.949 252.662 233.431C252.801 232.913 253.081 232.488 253.579 232.289L256.22 232.996C256.427 233.052 256.624 232.938 256.679 232.731L265.532 199.693C265.587 199.486 265.474 199.289 265.266 199.233L262.625 198.525C262.281 198.156 262.25 197.648 262.389 197.13C262.528 196.612 262.808 196.188 263.305 195.988L271.573 198.481L279.928 200.442C280.311 200.878 280.341 201.385 280.203 201.903C280.064 202.421 279.784 202.845 279.248 202.98L276.607 202.272C276.4 202.216 276.203 202.33 276.148 202.537L269.376 227.808L288.723 207.183L289.028 206.044C289.097 205.785 288.984 205.588 288.776 205.533L286.135 204.825C285.791 204.455 285.76 203.947 285.899 203.43C286.038 202.912 286.318 202.487 286.815 202.288L295.083 204.78L303.438 206.742C303.769 207.163 303.851 207.685 303.713 208.203C303.574 208.721 303.242 209.131 302.758 209.279L300.117 208.571C299.91 208.516 299.713 208.63 299.658 208.837L290.805 241.875C290.749 242.082 290.863 242.279 291.07 242.335L293.711 243.042C294.042 243.464 294.125 243.985 293.986 244.503C293.847 245.021 293.515 245.432 293.031 245.58L284.801 243.152L276.409 241.126C276.064 240.756 276.033 240.248 276.172 239.73C276.311 239.212 276.591 238.788 277.089 238.588L279.73 239.296C279.937 239.351 280.134 239.238 280.189 239.03L286.947 213.812L267.6 234.436L267.295 235.575C267.24 235.783 267.353 235.98 267.56 236.035L270.201 236.743C270.584 237.178 270.615 237.686 270.476 238.204C270.337 238.722 270.057 239.146 269.521 239.28L261.292 236.853L252.899 234.826ZM283.569 199.697C278.908 198.448 275.86 194.912 276.786 191.663C277.188 190.162 278.461 188.726 280.894 189.379C282.81 189.892 283.189 191.381 282.901 192.247C282.474 193.632 281.921 194.038 281.699 194.867C281.342 195.992 282.212 196.891 284.231 197.432C286.251 197.974 287.453 197.63 287.758 196.49C287.98 195.662 287.446 194.964 287.872 193.579C288.16 192.713 289.128 191.585 291.096 192.112C293.478 192.75 293.863 194.629 293.46 196.131C292.638 199.407 288.229 200.946 283.569 199.697Z" fill="white"/>
<path d="M224.681 227.043L216.288 225.016C215.943 224.646 215.913 224.138 216.051 223.621C216.19 223.103 216.47 222.678 216.968 222.479L219.609 223.186C219.816 223.242 220.013 223.128 220.068 222.921L228.921 189.883C228.977 189.676 228.863 189.479 228.656 189.423L226.015 188.715C225.67 188.346 225.639 187.838 225.778 187.32C225.917 186.802 226.197 186.378 226.695 186.178L234.962 188.671L254.503 193.629C254.762 193.699 254.875 193.896 254.806 194.154L252.247 205.568C251.929 205.927 251.407 206.009 250.89 205.871C250.372 205.732 249.961 205.4 249.813 204.916L250.193 202.465C250.858 197.703 249.169 195.308 244.978 193.963L240.114 192.438C239.855 192.368 239.606 192.468 239.551 192.675L235.499 207.796L238.026 208.307C240.709 208.859 242.33 207.573 243.024 204.984L243.232 204.207C243.564 203.797 244.072 203.766 244.589 203.905C245.107 204.044 245.532 204.324 245.614 204.845L243.672 211.263L242.09 217.999C241.758 218.409 241.25 218.44 240.732 218.301C240.214 218.162 239.79 217.882 239.708 217.36L239.943 216.48C240.651 213.839 239.942 211.928 237.291 211.052L234.847 210.23L230.837 225.196C230.698 225.714 231.091 226.318 231.609 226.457L236.998 227.679C241.7 228.773 244.548 227.26 246.066 222.838L247.199 219.645C247.531 219.235 248.038 219.204 248.556 219.343C249.074 219.482 249.498 219.762 249.581 220.283L245.902 232.563C245.833 232.822 245.636 232.935 245.377 232.866L224.681 227.043Z" fill="white"/>
<path d="M170.321 212.7C169.976 212.33 169.946 211.822 170.085 211.304C170.223 210.786 170.504 210.362 171.001 210.162L173.642 210.87C173.849 210.925 174.046 210.812 174.102 210.605L182.954 177.566C183.01 177.359 182.896 177.162 182.689 177.107L180.048 176.399C179.703 176.029 179.673 175.521 179.811 175.004C179.95 174.486 180.23 174.061 180.728 173.862L188.996 176.354L211.366 182.349L219.721 184.31C220.104 184.745 220.134 185.253 219.996 185.771C219.857 186.289 219.577 186.713 219.041 186.847L216.452 186.154C216.245 186.098 216.048 186.212 215.992 186.419L207.14 219.457C207.084 219.664 207.198 219.861 207.405 219.917L209.994 220.61C210.377 221.046 210.408 221.554 210.269 222.072C210.13 222.589 209.85 223.014 209.315 223.148L201.085 220.721L192.744 218.708C192.347 218.324 192.317 217.816 192.455 217.298C192.594 216.781 192.874 216.356 193.424 216.17L196.013 216.864C196.22 216.92 196.417 216.806 196.472 216.599L205.131 184.285C205.186 184.078 205.072 183.881 204.865 183.826L193.835 180.87C193.628 180.815 193.431 180.929 193.376 181.136L184.717 213.449C184.662 213.656 184.776 213.853 184.983 213.909L187.624 214.616C188.007 215.052 188.037 215.56 187.898 216.077C187.76 216.595 187.479 217.02 186.944 217.154L178.714 214.726L170.321 212.7Z" fill="white"/>
<path d="M149.45 207.885C140.129 205.387 133.352 195.468 136.682 183.04C139.873 171.129 151.597 165.28 160.608 167.694C164.285 168.679 166.347 170.508 167.928 171.653C168.569 172.158 169.084 172.518 169.757 172.699C170.43 172.879 170.748 172.52 170.901 171.951L170.97 171.692C171.109 171.174 171.465 170.881 172.138 171.061C172.76 171.228 172.959 171.725 173.031 172.077L170.063 185.435C169.731 185.846 169.223 185.876 168.705 185.737C168.187 185.599 167.763 185.318 167.681 184.797L168.14 182.256C169.12 176.524 165.6 171.64 161.043 170.419C154.933 168.782 151.961 173.036 148.423 186.241C144.76 199.912 145.442 204.202 152.122 205.992C156.42 207.144 161.544 204.798 163.862 198.426L164.735 195.996C165.053 195.637 165.575 195.555 166.093 195.694C166.611 195.832 167.021 196.164 167.169 196.648L162.971 210.453C162.718 210.774 162.296 211.105 161.675 210.939C161.054 210.772 160.84 210.326 160.979 209.808L161.02 209.653C161.215 208.928 161.119 208.458 160.445 208.278C159.669 208.07 158.964 208.214 158.287 208.255C155.811 208.59 153.697 209.023 149.45 207.885Z" fill="white"/>
<path d="M85.5696 189.991C85.2247 189.621 85.1942 189.113 85.333 188.595C85.4717 188.077 85.752 187.653 86.2495 187.453L88.8905 188.161C89.0976 188.216 89.2946 188.103 89.3501 187.896L98.2027 154.857C98.2582 154.65 98.1444 154.453 97.9373 154.398L95.2963 153.69C94.9514 153.32 94.9209 152.812 95.0597 152.295C95.1985 151.777 95.4787 151.352 95.9762 151.153L104.244 153.646L112.599 155.607C112.982 156.042 113.012 156.55 112.873 157.068C112.735 157.586 112.454 158.01 111.919 158.144L109.278 157.436C109.071 157.381 108.874 157.495 108.818 157.702L102.047 182.972L121.393 162.348L121.699 161.209C121.768 160.95 121.654 160.753 121.447 160.697L118.806 159.99C118.461 159.62 118.431 159.112 118.57 158.594C118.708 158.076 118.989 157.652 119.486 157.452L127.754 159.945L136.109 161.906C136.44 162.328 136.522 162.849 136.383 163.367C136.245 163.885 135.913 164.296 135.429 164.444L132.788 163.736C132.581 163.68 132.384 163.794 132.328 164.001L123.476 197.04C123.42 197.247 123.534 197.444 123.741 197.499L126.382 198.207C126.713 198.628 126.795 199.15 126.657 199.668C126.518 200.186 126.186 200.596 125.702 200.744L117.472 198.317L109.08 196.29C108.735 195.92 108.704 195.413 108.843 194.895C108.982 194.377 109.262 193.952 109.759 193.753L112.4 194.46C112.608 194.516 112.805 194.402 112.86 194.195L119.617 168.976L100.271 189.601L99.9658 190.74C99.9103 190.947 100.024 191.144 100.231 191.2L102.872 191.907C103.255 192.343 103.285 192.851 103.147 193.368C103.008 193.886 102.728 194.311 102.192 194.445L93.9623 192.018L85.5696 189.991Z" fill="white"/>
</svg>
