<svg width="935" height="547" viewBox="0 0 935 547" fill="none" xmlns="http://www.w3.org/2000/svg">
<path d="M723.294 421.69C687.247 421.69 661.294 405.83 658.41 368.822L653.123 297.208C652.162 290.96 650.72 288.077 647.355 287.115L619.479 396.217C615.154 412.558 605.541 418.806 575.262 418.806H565.169C543.06 418.806 534.889 412.558 534.889 399.581C534.889 393.814 539.696 377.473 542.579 364.496L578.626 218.867C580.549 210.696 581.029 206.851 581.029 203.967C581.029 195.797 578.145 192.913 571.897 192.913C559.401 192.913 543.541 214.06 539.215 232.324C538.254 236.169 535.37 243.859 529.122 243.859C524.316 243.859 520.951 240.014 520.951 233.766C520.951 222.712 525.277 209.254 533.928 196.277C545.944 177.052 570.936 160.23 603.619 160.23C643.51 160.23 665.619 179.936 665.619 205.409C665.619 210.696 664.658 217.905 663.697 221.27L652.642 265.487H654.084C666.1 265.487 674.751 257.317 681.96 243.378L706.472 195.797C718.968 170.804 738.674 160.23 762.705 160.23C794.427 160.23 812.69 183.3 812.69 209.254C812.69 234.727 793.465 257.797 764.147 257.797C746.364 257.797 731.945 248.665 731.945 231.844C731.945 218.867 744.922 202.525 744.922 196.277C744.922 192.913 742.519 190.99 739.635 190.99C735.79 190.99 730.503 197.719 726.178 205.409L701.666 253.952C694.457 267.41 683.402 274.138 674.27 275.58C670.906 276.061 668.503 276.542 668.503 279.425C668.503 282.309 670.425 282.79 673.309 282.79C714.162 282.309 735.79 299.131 738.193 327.968L740.597 370.744C742.038 386.124 751.17 389.008 757.899 389.008C769.434 389.008 785.775 368.341 790.582 350.077C791.543 346.232 794.427 338.542 800.675 338.542C805 338.542 808.365 342.387 808.365 348.635C808.365 359.69 804.039 373.147 795.868 385.643C783.372 405.349 755.977 421.69 723.294 421.69Z" fill="#B4000F"/>
<path d="M758.231 388.846C751.441 388.846 742.149 385.789 740.694 370.034C716.949 385.392 719.37 410.789 723.444 421.786C756.424 421.786 783.937 405.585 796.547 385.4C804.792 372.599 809.157 358.813 809.157 347.489C809.157 341.089 805.762 337.15 801.397 337.15C795.092 337.15 791.88 344.741 790.829 349.01C786.304 367.382 769.871 388.846 758.231 388.846Z" fill="white"/>
<path d="M619.479 396.217L647.355 287.116C666.196 210.985 610.988 199.962 581.029 203.968C581.029 206.851 580.548 210.696 578.626 218.867L542.579 364.496C539.695 377.473 534.889 393.814 534.889 399.582C534.889 412.559 543.06 418.807 565.169 418.807H575.262C605.541 418.807 615.153 412.559 619.479 396.217Z" fill="white"/>
<path d="M267.623 448.369C211.871 448.369 194.088 420.012 194.088 380.12C194.088 369.546 195.049 358.492 197.452 345.996C201.297 327.251 203.22 312.833 203.22 301.778C203.22 277.266 192.646 269.576 164.289 269.576H161.886L134.971 407.035C134.49 408.958 133.529 415.206 133.529 416.648C133.529 418.089 134.49 419.051 135.451 419.051H160.444C162.366 421.454 163.808 423.857 163.808 427.221C163.808 432.989 160.925 439.237 155.638 442.601L80.6603 440.679L3.76037 442.601C1.35725 441.159 0.395996 438.276 0.395996 434.911C0.395996 428.663 3.76037 422.415 8.08599 419.051H33.0785C35.4816 419.051 37.4041 417.609 37.8847 414.244L95.5597 117.218C96.0403 115.296 97.4821 109.048 97.4821 108.087C97.4821 106.645 96.0403 105.683 95.079 105.683H70.5672C68.1641 104.242 67.2028 101.839 67.2028 98.4741C67.2028 92.7066 70.0866 85.4972 75.854 82.1329L152.754 84.536L227.731 82.1329C229.654 84.0554 230.135 86.4585 230.135 89.8229C230.135 95.5904 227.731 101.838 222.445 105.683H196.971C195.049 105.683 193.126 107.125 192.646 110.49L166.692 243.142H168.134C203.7 243.142 229.173 228.243 236.383 199.405L247.437 152.785C259.453 104.722 276.755 75.8848 318.569 75.8848C345.004 76.3654 356.539 95.1098 355.578 115.777C354.136 140.769 340.678 158.072 320.011 157.11C287.809 157.11 301.267 120.583 286.368 120.583C277.716 120.583 273.391 139.327 269.065 157.591L258.972 199.405C251.763 228.723 235.902 248.429 203.22 254.196C200.816 254.677 200.816 255.158 200.816 255.158C200.816 255.638 201.297 256.119 202.258 256.119C269.065 255.638 295.98 284.956 295.98 325.81C295.98 333.019 295.019 340.709 293.577 348.399C290.213 367.624 281.561 392.136 277.716 411.361C277.716 411.841 278.197 412.322 278.197 412.322C278.678 420.012 282.042 425.779 290.693 425.779C295.98 425.779 303.189 423.857 307.996 419.531C310.879 417.128 314.244 416.167 317.608 416.167C321.934 416.167 325.298 418.089 325.298 422.896C325.298 435.392 310.399 448.369 267.623 448.369Z" fill="#B4000F"/>
<path d="M95.7031 116.492L67.3848 262.757C90.3793 268.783 142.462 273.15 166.836 242.416L192.789 109.763C149.502 96.9088 110.029 108.893 95.7031 116.492Z" fill="white"/>
<path d="M135.58 419.088C134.618 419.088 133.692 417.836 133.692 416.394C97.4499 400.489 54.5163 408.411 37.7355 414.237C37.2549 417.601 35.5792 418.55 33.4229 419.088H8.08618C3.76056 422.452 0 428.473 0 434.721C0 438.086 1.50033 441.509 3.90345 442.951L80.8034 441.028L155.781 442.951C161.068 439.586 163.951 433.338 163.951 427.571C163.951 424.206 162.568 421.491 160.646 419.088H135.58Z" fill="white"/>
<path d="M762.705 160.23C738.674 160.23 718.968 170.804 706.472 195.797L706.656 196.027C711.4 201.957 718.583 205.409 726.178 205.409C730.503 197.719 735.79 190.99 739.635 190.99C742.519 190.99 744.922 192.913 744.922 196.277C744.922 202.525 731.945 218.867 731.945 231.844C731.945 248.665 746.364 257.797 764.147 257.797C793.465 257.797 812.69 234.727 812.69 209.254C812.69 183.3 794.426 160.23 762.705 160.23Z" fill="white"/>
<path d="M809.842 146.463C810.468 148.451 812.587 149.555 814.575 148.928C816.563 148.302 817.667 146.183 817.04 144.195L809.842 146.463ZM851.41 105.437L851.042 101.682L851.41 105.437ZM887.605 55.1274C886.364 53.4533 884 53.1025 882.326 54.3438L855.046 74.5722C853.372 75.8136 853.021 78.1769 854.262 79.851C855.504 81.5251 857.867 81.8759 859.541 80.6346L883.79 62.6538L901.771 86.9031C903.013 88.5772 905.376 88.928 907.05 87.6867C908.724 86.4454 909.075 84.082 907.834 82.4079L887.605 55.1274ZM816.124 139.708C815.905 137.635 814.047 136.133 811.974 136.353C809.902 136.572 808.4 138.43 808.619 140.503L816.124 139.708ZM809.582 128.505C809.027 130.514 810.204 132.593 812.213 133.148C814.222 133.704 816.3 132.527 816.856 130.518L809.582 128.505ZM820.988 122.391C822.282 120.757 822.006 118.384 820.372 117.09C818.738 115.796 816.365 116.072 815.071 117.705L820.988 122.391ZM824.02 109.823C822.252 110.927 821.714 113.254 822.817 115.022C823.92 116.791 826.248 117.329 828.016 116.226L824.02 109.823ZM836.897 112.162C838.876 111.51 839.952 109.377 839.301 107.398C838.649 105.418 836.516 104.342 834.536 104.994L836.897 112.162ZM845.492 102.391C843.434 102.719 842.032 104.654 842.36 106.712C842.688 108.77 844.623 110.172 846.681 109.844L845.492 102.391ZM857.66 108.356C859.708 107.966 861.051 105.99 860.66 103.943C860.27 101.896 858.294 100.553 856.247 100.943L857.66 108.356ZM865.878 97.871C864.005 98.7837 863.226 101.042 864.138 102.916C865.051 104.79 867.31 105.569 869.183 104.656L865.878 97.871ZM879.219 97.1222C880.594 95.5566 880.44 93.1723 878.874 91.7967C877.309 90.4212 874.924 90.5753 873.549 92.141L879.219 97.1222ZM878.254 83.7819C877.587 85.7563 878.646 87.8978 880.62 88.5652C882.595 89.2326 884.736 88.1731 885.404 86.1988L878.254 83.7819ZM887.694 74.3801C887.866 72.3031 886.321 70.4805 884.244 70.3093C882.166 70.1381 880.344 71.6831 880.173 73.7601L887.694 74.3801ZM880.488 62.8833C880.464 64.9672 882.133 66.6767 884.217 66.7016C886.301 66.7264 888.01 65.0572 888.035 62.9733L880.488 62.8833ZM817.04 144.195C816.63 142.894 816.301 141.374 816.124 139.708L808.619 140.503C808.847 142.66 809.278 144.673 809.842 146.463L817.04 144.195ZM816.856 130.518C817.618 127.766 818.927 124.992 820.988 122.391L815.071 117.705C812.341 121.153 810.594 124.85 809.582 128.505L816.856 130.518ZM828.016 116.226C830.458 114.702 833.388 113.317 836.897 112.162L834.536 104.994C830.511 106.319 827.023 107.949 824.02 109.823L828.016 116.226ZM846.681 109.844C848.297 109.586 849.995 109.368 851.779 109.193L851.042 101.682C849.114 101.871 847.265 102.108 845.492 102.391L846.681 109.844ZM851.779 109.193C853.847 108.99 855.806 108.71 857.66 108.356L856.247 100.943C854.632 101.251 852.9 101.5 851.042 101.682L851.779 109.193ZM869.183 104.656C873.34 102.631 876.634 100.064 879.219 97.1222L873.549 92.141C871.646 94.3064 869.164 96.2706 865.878 97.871L869.183 104.656ZM885.404 86.1988C886.749 82.2179 887.383 78.1557 887.694 74.3801L880.173 73.7601C879.892 77.1664 879.338 80.5751 878.254 83.7819L885.404 86.1988ZM888.035 62.9733C888.061 60.8198 888.123 59.1667 888.307 57.9291L880.841 56.8209C880.573 58.6262 880.514 60.7517 880.488 62.8833L888.035 62.9733Z" fill="#B4000F"/>
<path d="M559.48 431.283C559.39 429.201 557.629 427.586 555.546 427.677C553.464 427.767 551.85 429.528 551.94 431.61L559.48 431.283ZM508.71 460.152L508.094 463.875L508.71 460.152ZM460.727 499.38C461.493 501.318 463.685 502.269 465.623 501.503L497.21 489.025C499.148 488.259 500.099 486.067 499.333 484.129C498.567 482.19 496.375 481.24 494.437 482.005L466.36 493.097L455.268 465.021C454.502 463.082 452.31 462.132 450.372 462.897C448.434 463.663 447.483 465.855 448.249 467.794L460.727 499.38ZM551.664 436.182C551.339 438.241 552.745 440.173 554.804 440.497C556.863 440.822 558.794 439.416 559.119 437.357L551.664 436.182ZM555.083 448.696C556.14 446.9 555.54 444.587 553.744 443.53C551.948 442.474 549.635 443.073 548.578 444.869L555.083 448.696ZM542.484 451.65C540.811 452.894 540.463 455.258 541.707 456.93C542.95 458.603 545.314 458.951 546.986 457.707L542.484 451.65ZM536.302 463.005C538.295 462.397 539.418 460.288 538.81 458.294C538.202 456.301 536.093 455.178 534.1 455.786L536.302 463.005ZM524.47 457.413C522.389 457.53 520.797 459.312 520.915 461.393C521.032 463.474 522.814 465.065 524.894 464.948L524.47 457.413ZM513.638 464.626C515.711 464.842 517.566 463.336 517.782 461.263C517.997 459.19 516.492 457.335 514.419 457.12L513.638 464.626ZM503.429 455.715C501.35 455.562 499.541 457.123 499.388 459.202C499.235 461.28 500.796 463.089 502.875 463.242L503.429 455.715ZM492.777 463.716C494.823 463.319 496.16 461.339 495.763 459.293C495.367 457.247 493.387 455.91 491.341 456.307L492.777 463.716ZM479.697 460.987C477.963 462.143 477.495 464.486 478.651 466.22C479.808 467.954 482.151 468.422 483.884 467.266L479.697 460.987ZM477.176 474.122C478.332 472.388 477.863 470.045 476.128 468.889C474.394 467.734 472.051 468.203 470.896 469.937L477.176 474.122ZM465.624 480.76C464.921 482.722 465.942 484.882 467.904 485.585C469.866 486.288 472.026 485.268 472.729 483.306L465.624 480.76ZM469.609 493.73C470.172 491.724 469.003 489.641 466.996 489.077C464.99 488.514 462.906 489.684 462.343 491.69L469.609 493.73ZM551.94 431.61C552 432.974 551.925 434.527 551.664 436.182L559.119 437.357C559.456 435.214 559.562 433.158 559.48 431.283L551.94 431.61ZM548.578 444.869C547.13 447.331 545.147 449.671 542.484 451.65L546.986 457.707C550.515 455.084 553.16 451.965 555.083 448.696L548.578 444.869ZM534.1 455.786C531.347 456.626 528.157 457.205 524.47 457.413L524.894 464.948C529.125 464.71 532.916 464.037 536.302 463.005L534.1 455.786ZM514.419 457.12C512.791 456.95 511.095 456.722 509.326 456.429L508.094 463.875C510.005 464.191 511.852 464.441 513.638 464.626L514.419 457.12ZM509.326 456.429C507.276 456.09 505.311 455.853 503.429 455.715L502.875 463.242C504.515 463.362 506.252 463.57 508.094 463.875L509.326 456.429ZM491.341 456.307C486.802 457.187 482.955 458.814 479.697 460.987L483.884 467.266C486.283 465.666 489.189 464.412 492.777 463.716L491.341 456.307ZM470.896 469.937C468.566 473.434 466.902 477.194 465.624 480.76L472.729 483.306C473.882 480.088 475.299 476.939 477.176 474.122L470.896 469.937ZM462.343 491.69C461.761 493.764 461.273 495.344 460.775 496.492L467.699 499.495C468.425 497.82 469.033 495.783 469.609 493.73L462.343 491.69Z" fill="#B4000F"/>
<path d="M69.1169 461.058C69.2074 458.976 70.9686 457.362 73.0507 457.452C75.1328 457.543 76.7474 459.304 76.6569 461.386L69.1169 461.058ZM119.887 489.927L120.504 493.65L119.887 489.927ZM167.87 529.155C167.104 531.094 164.912 532.044 162.974 531.278L131.387 518.8C129.449 518.034 128.498 515.842 129.264 513.904C130.03 511.966 132.222 511.015 134.16 511.781L162.237 522.873L173.329 494.796C174.095 492.858 176.287 491.907 178.225 492.673C180.163 493.439 181.114 495.631 180.348 497.569L167.87 529.155ZM76.9334 465.958C77.2578 468.016 75.852 469.948 73.7933 470.272C71.7346 470.597 69.8027 469.191 69.4783 467.132L76.9334 465.958ZM73.514 478.472C72.4573 476.675 73.0569 474.362 74.8532 473.306C76.6495 472.249 78.9623 472.849 80.019 474.645L73.514 478.472ZM86.1133 481.426C87.7858 482.669 88.1338 485.033 86.8905 486.706C85.6472 488.378 83.2834 488.726 81.6108 487.483L86.1133 481.426ZM92.2954 492.78C90.302 492.172 89.179 490.063 89.7871 488.07C90.3953 486.076 92.5042 484.953 94.4976 485.561L92.2954 492.78ZM104.127 487.188C106.208 487.306 107.8 489.087 107.683 491.168C107.565 493.249 105.783 494.841 103.703 494.723L104.127 487.188ZM114.959 494.402C112.886 494.617 111.031 493.112 110.815 491.039C110.6 488.966 112.105 487.111 114.178 486.895L114.959 494.402ZM125.169 485.49C127.247 485.338 129.056 486.898 129.209 488.977C129.362 491.055 127.801 492.864 125.722 493.017L125.169 485.49ZM135.82 493.492C133.774 493.095 132.437 491.115 132.834 489.069C133.23 487.023 135.211 485.686 137.257 486.082L135.82 493.492ZM148.9 490.762C150.634 491.918 151.102 494.261 149.946 495.995C148.79 497.729 146.447 498.197 144.713 497.041L148.9 490.762ZM151.421 503.897C150.265 502.163 150.734 499.82 152.469 498.665C154.203 497.509 156.546 497.978 157.701 499.712L151.421 503.897ZM162.973 510.536C163.676 512.498 162.655 514.658 160.693 515.361C158.731 516.064 156.571 515.043 155.868 513.081L162.973 510.536ZM158.988 523.506C158.425 521.499 159.595 519.416 161.601 518.853C163.608 518.289 165.691 519.459 166.254 521.466L158.988 523.506ZM76.6569 461.386C76.5976 462.749 76.6727 464.303 76.9334 465.958L69.4783 467.132C69.1407 464.99 69.0354 462.933 69.1169 461.058L76.6569 461.386ZM80.019 474.645C81.4668 477.106 83.4499 479.446 86.1133 481.426L81.6108 487.483C78.0817 484.859 75.437 481.741 73.514 478.472L80.019 474.645ZM94.4976 485.561C97.2507 486.401 100.44 486.98 104.127 487.188L103.703 494.723C99.472 494.485 95.6809 493.813 92.2954 492.78L94.4976 485.561ZM114.178 486.895C115.806 486.726 117.503 486.497 119.271 486.205L120.504 493.65C118.592 493.967 116.745 494.216 114.959 494.402L114.178 486.895ZM119.271 486.205C121.322 485.865 123.286 485.629 125.169 485.49L125.722 493.017C124.082 493.138 122.345 493.345 120.504 493.65L119.271 486.205ZM137.257 486.082C141.795 486.962 145.642 488.59 148.9 490.762L144.713 497.041C142.315 495.442 139.408 494.187 135.82 493.492L137.257 486.082ZM157.701 499.712C160.032 503.209 161.695 506.969 162.973 510.536L155.868 513.081C154.715 509.864 153.298 506.714 151.421 503.897L157.701 499.712ZM166.254 521.466C166.836 523.539 167.324 525.12 167.822 526.268L160.898 529.27C160.172 527.596 159.564 525.558 158.988 523.506L166.254 521.466Z" fill="#B4000F"/>
<path d="M815.182 396.065C813.779 394.524 811.392 394.412 809.851 395.816C808.31 397.219 808.199 399.605 809.602 401.146L815.182 396.065ZM869.534 413.7L867.822 410.337L867.822 410.337L869.534 413.7ZM915.412 449.48C917.309 450.342 919.546 449.503 920.409 447.606L934.462 416.688C935.325 414.791 934.486 412.554 932.588 411.691C930.691 410.829 928.454 411.668 927.592 413.565L915.1 441.048L887.617 428.556C885.72 427.693 883.483 428.532 882.62 430.429C881.758 432.327 882.597 434.564 884.494 435.426L915.412 449.48ZM815.73 406.944C817.335 408.274 819.714 408.052 821.044 406.448C822.374 404.844 822.153 402.465 820.548 401.135L815.73 406.944ZM833.06 409.252C831.187 408.338 828.928 409.116 828.014 410.989C827.1 412.862 827.878 415.121 829.751 416.035L833.06 409.252ZM845.906 421.158C847.969 421.457 849.883 420.026 850.181 417.964C850.479 415.901 849.049 413.987 846.986 413.689L845.906 421.158ZM861.167 412.913C859.155 413.458 857.967 415.531 858.512 417.543C859.057 419.554 861.129 420.743 863.141 420.198L861.167 412.913ZM877.839 414.829C879.896 414.49 881.288 412.548 880.948 410.492C880.609 408.436 878.667 407.044 876.611 407.383L877.839 414.829ZM894.736 410.868C892.922 409.842 890.619 410.48 889.593 412.294C888.567 414.108 889.205 416.411 891.019 417.437L894.736 410.868ZM902.051 427.262C903.361 428.883 905.737 429.135 907.358 427.825C908.978 426.515 909.231 424.139 907.921 422.518L902.051 427.262ZM917.079 436.913C916.145 435.05 913.878 434.296 912.015 435.23C910.151 436.164 909.398 438.431 910.331 440.294L917.079 436.913ZM809.602 401.146C811.252 402.958 813.321 404.945 815.73 406.944L820.548 401.135C818.389 399.343 816.578 397.597 815.182 396.065L809.602 401.146ZM829.751 416.035C834.636 418.419 840.097 420.318 845.906 421.158L846.986 413.689C842.098 412.982 837.39 411.365 833.06 409.252L829.751 416.035ZM863.141 420.198C865.846 419.465 868.555 418.433 871.246 417.063L867.822 410.337C865.593 411.472 863.37 412.316 861.167 412.913L863.141 420.198ZM871.246 417.063C873.568 415.881 875.766 415.171 877.839 414.829L876.611 407.383C873.715 407.86 870.78 408.831 867.822 410.337L871.246 417.063ZM891.019 417.437C895.031 419.707 898.75 423.177 902.051 427.262L907.921 422.518C904.235 417.958 899.824 413.747 894.736 410.868L891.019 417.437ZM910.331 440.294C911.596 442.817 912.637 445.228 913.44 447.369L920.507 444.719C919.608 442.322 918.459 439.667 917.079 436.913L910.331 440.294Z" fill="#B4000F"/>
<path d="M49.3233 201.351C51.1362 202.379 53.4392 201.743 54.4672 199.93C55.4951 198.117 54.8588 195.814 53.0458 194.786L49.3233 201.351ZM13.9881 109.12L10.3312 108.19L13.9881 109.12ZM105.092 35.2666L105.201 39.0385L105.092 35.2666ZM157.894 3.5432C157.642 1.47445 155.76 0.00191305 153.691 0.254199L119.979 4.36544C117.911 4.61773 116.438 6.4993 116.69 8.56805C116.943 10.6368 118.824 12.1093 120.893 11.857L150.859 8.20261L154.514 38.169C154.766 40.2378 156.648 41.7103 158.716 41.458C160.785 41.2057 162.258 39.3241 162.005 37.2554L157.894 3.5432ZM47.9409 191.505C46.2449 190.294 43.8882 190.687 42.6771 192.383C41.4659 194.08 41.8591 196.436 43.5551 197.647L47.9409 191.505ZM33.2268 188.924C34.7115 190.386 37.1007 190.368 38.5632 188.884C40.0257 187.399 40.0077 185.01 38.523 183.547L33.2268 188.924ZM30.368 174.241C29.1137 172.577 26.7476 172.245 25.0833 173.499C23.4189 174.753 23.0864 177.119 24.3407 178.783L30.368 174.241ZM17.057 167.403C18.0398 169.241 20.3264 169.934 22.1641 168.951C24.0019 167.968 24.695 165.682 23.7121 163.844L17.057 167.403ZM18.8207 152.56C18.1549 150.586 16.0142 149.524 14.0394 150.19C12.0645 150.856 11.0033 152.997 11.6691 154.972L18.8207 152.56ZM8.4565 141.777C8.7721 143.837 10.6979 145.251 12.758 144.936C14.818 144.62 16.2322 142.694 15.9166 140.634L8.4565 141.777ZM15.1072 128.388C15.1462 126.305 13.4885 124.584 11.4048 124.545C9.3211 124.506 7.60037 126.164 7.56146 128.248L15.1072 128.388ZM8.89932 114.795C8.53257 116.846 9.89837 118.806 11.9499 119.173C14.0015 119.54 15.9619 118.174 16.3286 116.123L8.89932 114.795ZM19.3091 104.026C19.9058 102.029 18.7708 99.9266 16.774 99.3299C14.7771 98.7333 12.6747 99.8683 12.078 101.865L19.3091 104.026ZM16.4217 89.4507C15.6373 91.3815 16.5667 93.5826 18.4975 94.367C20.4283 95.1514 22.6295 94.2221 23.4139 92.2912L16.4217 89.4507ZM28.6901 81.1418C29.6928 79.3148 29.0246 77.0209 27.1975 76.0182C25.3705 75.0155 23.0766 75.6837 22.0739 77.5107L28.6901 81.1418ZM29.2417 66.314C27.9962 67.985 28.3413 70.3492 30.0123 71.5946C31.6833 72.8401 34.0475 72.4951 35.2929 70.824L29.2417 66.314ZM43.3069 61.6551C44.8004 60.2015 44.8328 57.8124 43.3792 56.3189C41.9256 54.8255 39.5366 54.7931 38.0431 56.2467L43.3069 61.6551ZM48.3995 47.7374C46.6832 48.9197 46.2502 51.2694 47.4325 52.9857C48.6148 54.702 50.9645 55.1349 52.6808 53.9527L48.3995 47.7374ZM63.2264 47.9152C65.1131 47.0298 65.9248 44.7827 65.0394 42.896C64.154 41.0093 61.9068 40.1976 60.0202 41.083L63.2264 47.9152ZM72.4787 36.3445C70.4826 36.9437 69.3502 39.0476 69.9494 41.0437C70.5485 43.0398 72.6524 44.1722 74.6485 43.573L72.4787 36.3445ZM86.6447 40.7917C88.6993 40.4425 90.0818 38.4938 89.7326 36.4392C89.3834 34.3846 87.4347 33.0021 85.3801 33.3513L86.6447 40.7917ZM98.4444 31.8145C96.3654 31.9596 94.7977 33.7627 94.9428 35.8417C95.0879 37.9207 96.8909 39.4884 98.97 39.3433L98.4444 31.8145ZM110.55 38.6922C112.623 38.4799 114.131 36.627 113.919 34.5538C113.707 32.4806 111.854 30.972 109.781 31.1844L110.55 38.6922ZM119.08 29.415C117.078 29.9953 115.926 32.0884 116.506 34.0901C117.087 36.0917 119.18 37.244 121.181 36.6637L119.08 29.415ZM131.318 32.5064C133.147 31.5072 133.82 29.2146 132.821 27.3856C131.822 25.5567 129.529 24.884 127.7 25.8831L131.318 32.5064ZM135.341 20.533C133.769 21.9011 133.604 24.2847 134.972 25.8568C136.34 27.429 138.723 27.5944 140.295 26.2263L135.341 20.533ZM147.768 18.5073C149.105 16.9087 148.894 14.5289 147.295 13.1917C145.696 11.8546 143.317 12.0665 141.979 13.665L147.768 18.5073ZM148.056 5.79684C146.812 7.46948 147.161 9.83327 148.833 11.0765C150.506 12.3198 152.87 11.9717 154.113 10.299L148.056 5.79684ZM53.0458 194.786C51.4749 193.895 49.7554 192.801 47.9409 191.505L43.5551 197.647C45.5659 199.083 47.5064 200.321 49.3233 201.351L53.0458 194.786ZM38.523 183.547C35.7439 180.81 32.9759 177.702 30.368 174.241L24.3407 178.783C27.185 182.558 30.2003 185.943 33.2268 188.924L38.523 183.547ZM23.7121 163.844C21.8304 160.325 20.1695 156.561 18.8207 152.56L11.6691 154.972C13.1594 159.392 14.9906 163.539 17.057 167.403L23.7121 163.844ZM15.9166 140.634C15.3191 136.734 15.0276 132.651 15.1072 128.388L7.56146 128.248C7.47371 132.946 7.79489 137.459 8.4565 141.777L15.9166 140.634ZM16.3286 116.123C16.6843 114.133 17.1212 112.109 17.6451 110.051L10.3312 108.19C9.76296 110.422 9.28737 112.624 8.89932 114.795L16.3286 116.123ZM17.6451 110.051C18.1713 107.984 18.7264 105.976 19.3091 104.026L12.078 101.865C11.4649 103.917 10.8823 106.025 10.3312 108.19L17.6451 110.051ZM23.4139 92.2912C25.0419 88.2838 26.8062 84.5746 28.6901 81.1418L22.0739 77.5107C20.0427 81.2118 18.1543 85.186 16.4217 89.4507L23.4139 92.2912ZM35.2929 70.824C37.8238 67.4283 40.5034 64.3837 43.3069 61.6551L38.0431 56.2467C34.9496 59.2575 32.0074 62.6031 29.2417 66.314L35.2929 70.824ZM52.6808 53.9527C56.0706 51.6176 59.5955 49.6191 63.2264 47.9152L60.0202 41.083C56.0338 42.9538 52.1471 45.1559 48.3995 47.7374L52.6808 53.9527ZM74.6485 43.573C78.5751 42.3943 82.5846 41.4818 86.6447 40.7917L85.3801 33.3513C81.0466 34.0878 76.7323 35.0677 72.4787 36.3445L74.6485 43.573ZM98.97 39.3433C101.046 39.1984 103.124 39.0987 105.201 39.0385L104.983 31.4946C102.811 31.5576 100.629 31.662 98.4444 31.8145L98.97 39.3433ZM105.201 39.0385C107.05 38.985 108.832 38.8682 110.55 38.6922L109.781 31.1844C108.252 31.3409 106.654 31.4462 104.983 31.4946L105.201 39.0385ZM121.181 36.6637C124.93 35.5769 128.286 34.1629 131.318 32.5064L127.7 25.8831C125.145 27.2791 122.297 28.4824 119.08 29.415L121.181 36.6637ZM140.295 26.2263C143.124 23.765 145.573 21.1322 147.768 18.5073L141.979 13.665C139.959 16.0799 137.788 18.4035 135.341 20.533L140.295 26.2263ZM154.113 10.299C155.149 8.90441 156.138 7.58101 157.12 6.32567L151.177 1.67433C150.129 3.01233 149.09 4.4049 148.056 5.79684L154.113 10.299Z" fill="#B4000F"/>
</svg>
