<svg width="838" height="712" viewBox="0 0 838 712" fill="none" xmlns="http://www.w3.org/2000/svg">
<path d="M506.5 453C506.5 591.393 394.972 703.5 257.5 703.5C120.028 703.5 8.5 591.393 8.5 453C8.5 314.606 120.028 202.5 257.5 202.5C394.972 202.5 506.5 314.606 506.5 453Z" fill="white" stroke="#581B34" stroke-width="17"/>
<path d="M478 452.5C478 574.868 379.465 674 258 674C136.535 674 38 574.868 38 452.5C38 330.131 136.535 231 258 231C379.465 231 478 330.131 478 452.5Z" stroke="#581B34" stroke-width="12"/>
<path d="M226.892 338.529C228.403 340.061 228.338 343.025 230.246 346.783C231.43 342.859 230.778 340.101 231.959 338.164C233.207 335.981 235.842 335.296 237.63 336.04C239.286 337.279 240.033 339.93 238.769 342.176C237.666 344.067 234.936 344.859 232.17 347.762C236.363 347.693 238.826 346.166 240.961 346.606C243.467 347.145 244.932 349.591 244.711 351.652C244.078 353.272 241.907 354.943 239.278 354.371C236.924 354.005 235.353 351.464 231.471 349.629C232.893 353.72 235.22 355.669 235.477 357.924C235.853 360.477 233.892 362.601 231.991 363.02C230.021 362.955 227.842 361.444 227.544 358.846C227.507 358.24 227.549 357.589 227.715 356.971C228.046 355.734 228.675 354.379 229.138 352.648C229.354 351.844 229.586 350.979 229.665 349.94C226.191 352.521 225.198 355.236 223.086 356.194C221.96 356.688 220.888 356.732 219.899 356.467C218.725 356.152 217.806 355.376 217.23 354.559C216.918 353.746 216.902 352.815 217.134 351.949C217.482 350.651 218.386 349.502 219.809 348.889C221.843 347.976 224.744 349.019 228.95 348.158C225.498 345.709 222.518 345.706 220.982 343.77C219.747 342.446 219.526 340.796 219.907 339.374C220.073 338.756 220.362 338.171 220.742 337.743C221.794 337.031 223.258 336.761 224.618 337.125C225.422 337.34 226.237 337.758 226.892 338.529ZM230.31 348.523L230.401 348.679L230.541 348.651L230.557 348.589L230.327 348.461L230.31 348.523Z" fill="#F1520D"/>
<path d="M235 521.676C231.539 520.748 229.464 517.609 230.392 514.147C231.303 510.747 234.669 509.065 238.131 509.992C241.593 510.92 243.605 514.043 242.694 517.443C241.766 520.905 238.462 522.604 235 521.676ZM240.549 500.967C237.088 500.039 235.014 496.899 235.941 493.437C236.852 490.037 240.218 488.355 243.68 489.283C247.142 490.21 249.154 493.334 248.243 496.734C247.316 500.195 244.011 501.894 240.549 500.967Z" fill="#B4000F"/>
<path d="M203.971 426.164C203.427 427.107 202.798 427.556 201.973 427.45C201.29 427.351 196.497 426.949 192.451 424.613C188.627 422.405 187.082 419.961 186.286 416.988L185.489 414.016C184.95 412.005 184.441 410.455 181.67 408.855C178.622 407.095 175.562 407.915 174.378 409.966C173.45 411.573 174.04 412.727 174.816 413.175C176.312 414.039 177.393 413.702 179.721 415.046C180.774 415.654 182.648 417.401 180.696 420.782C179.128 423.498 176.476 423.74 174.425 422.556C172.54 421.468 171.13 419.175 170.742 417.03C170.138 413.725 170.452 410.877 172.18 407.884C176.34 400.679 184.229 399.174 189.55 402.246C192.987 404.23 194.506 407.102 195.411 410.655L196.714 415.693C197.581 418.928 198.44 420.385 201.765 422.305C202.32 422.625 202.842 423 203.673 423.48C204.893 424.184 204.323 425.555 203.971 426.164ZM215.365 432.669C213.861 435.274 210.921 436.015 208.482 434.607C205.988 433.167 205.215 430.282 206.719 427.677C208.191 425.127 211.108 424.299 213.602 425.739C216.041 427.147 216.837 430.119 215.365 432.669Z" fill="#455B16"/>
<path d="M253.005 604.744L252.365 605.96L254.477 608.136C258.957 612.936 260.301 613.96 262.861 613.96C265.613 613.96 267.661 611.912 269.261 609.288L271.373 610.632C268.941 616.072 264.717 621.64 258.509 621.64C253.965 621.64 250.445 619.464 246.605 615.688C243.469 619.4 239.181 622.024 233.549 622.024C224.013 622.024 217.933 616.328 217.933 609.864C217.933 603.976 221.901 600.328 228.621 597.512L229.773 597C226.189 592.968 223.949 590.408 223.949 585.224C223.949 578.376 229.709 572.232 238.989 572.232C246.221 572.232 251.533 577.224 251.533 583.368C251.533 589.576 246.925 593.288 242.253 595.272L250.445 603.912L252.365 600.2C254.285 596.424 257.101 593.16 261.389 593.16C265.101 593.16 267.213 595.592 267.213 598.664C267.213 601.608 265.549 604.296 262.413 604.296C259.661 604.296 257.805 602.376 257.805 599.944C257.805 599.24 257.485 598.984 256.973 598.984C255.693 598.984 254.733 601.352 253.005 604.744ZM240.077 592.968L240.205 593.16C243.853 590.344 244.813 587.272 244.813 583.496C244.813 578.12 243.277 574.728 239.309 574.728C235.405 574.728 233.485 577.992 233.485 581.64C233.485 585.864 235.149 587.72 240.077 592.968ZM242.061 610.824L231.757 599.24C230.285 601.288 229.581 603.464 229.581 607.304C229.581 612.488 232.397 617.096 237.581 617.096C240.397 617.096 242.637 615.816 244.621 613.64L242.061 610.824Z" fill="#581B34"/>
<path d="M160.298 488.336C156.458 488.336 153.77 486.608 152.874 483.28C150.826 486.224 148.266 488.336 144.49 488.336C139.626 488.336 136.234 484.368 136.234 476.88C136.234 465.232 141.866 455.568 151.402 455.568C154.346 455.568 156.906 456.976 158.314 459.28C160.618 457.04 163.37 455.888 166.25 455.888C167.466 455.888 168.554 456.656 168.554 457.68C168.554 458.064 168.298 459.216 167.978 460.368L163.69 477.776C163.434 478.736 163.242 479.696 163.242 480.208C163.242 481.744 163.946 482.32 165.034 482.32C169.258 482.32 174.826 474.896 174.826 465.36C174.826 454.288 166.826 446.736 155.37 446.736C141.418 446.736 130.09 460.496 130.09 476.752C130.09 488.144 137.258 495.248 149.418 495.248C156.842 495.248 163.754 493.2 167.53 491.6C167.914 491.408 168.362 491.344 168.618 491.344C169.386 491.344 170.09 492.048 170.09 492.816C170.09 493.52 169.386 494.032 168.49 494.416C163.05 497.232 156.074 498.704 149.29 498.704C133.482 498.704 120.618 488.336 120.618 473.232C120.618 454.864 135.402 442.704 153.386 442.704C167.978 442.704 178.218 452.304 178.218 465.168C178.218 478.8 169.642 488.336 160.298 488.336ZM148.97 482.896C150.762 482.896 153.066 477.776 154.282 474.384L156.97 463.504C156.586 460.944 155.498 459.28 154.026 459.28C150.378 459.28 146.986 471.248 146.986 477.776C146.986 481.296 148.01 482.896 148.97 482.896Z" fill="#581B34"/>
<path d="M116.749 550C119.366 540.232 119.96 533.567 116.801 527.552C115.221 524.545 113.546 522.638 109.987 520.094C109.604 519.793 109.439 519.418 109.555 518.985C109.804 518.058 110.765 517.189 111.26 517.321C111.384 517.355 111.614 517.483 111.783 517.594C121.304 522.862 130.985 536.189 126.578 552.633C122.156 569.139 107.108 575.841 96.2291 575.642C96.0271 575.655 95.7633 575.65 95.6396 575.617C95.1451 575.484 94.7632 574.189 94.9951 573.324C95.1111 572.891 95.4412 572.648 95.9236 572.579C100.278 572.155 102.699 571.28 105.554 569.527C111.358 565.915 114.115 559.829 116.749 550Z" fill="#455B16"/>
<path d="M273.395 536.592C273.395 527.696 278.451 522.896 284.275 522.896C284.915 522.896 285.491 522.96 286.067 523.088C286.259 523.088 286.387 523.088 286.515 523.152C291.251 524.176 292.851 528.4 299.379 528.4C305.075 528.4 308.147 525.968 313.011 523.28C313.459 523.024 313.907 522.896 314.547 522.896C316.659 522.896 317.619 524.176 317.619 525.776C317.619 526.48 317.427 526.928 317.043 527.632L285.235 571.472C284.851 571.984 283.955 572.56 282.995 572.56C280.883 572.56 279.923 571.28 279.923 569.68C279.923 568.976 280.115 568.4 280.499 567.824L308.531 529.168C306.099 530.64 303.539 531.728 299.955 531.728C297.267 531.728 295.219 531.216 293.619 530.384C294.131 532.112 294.451 534.16 294.451 536.336C294.451 545.168 290.419 549.968 284.275 549.968C278.579 549.968 273.395 545.296 273.395 536.592ZM303.411 557.776C303.411 548.88 308.467 544.08 314.291 544.08C320.563 544.08 324.467 549.2 324.467 557.52C324.467 566.288 320.435 571.152 314.291 571.152C308.595 571.152 303.411 566.48 303.411 557.776ZM312.499 557.776C312.499 563.472 313.587 567.504 316.851 567.504C319.731 567.504 321.587 563.088 321.587 557.584C321.587 552.016 319.731 547.728 316.787 547.728C313.587 547.728 312.499 552.016 312.499 557.776ZM282.483 536.592C282.483 542.352 283.571 546.32 286.835 546.32C289.715 546.32 291.571 541.904 291.571 536.4C291.571 530.832 289.715 526.544 286.771 526.544C283.571 526.544 282.483 530.896 282.483 536.592Z" fill="#F1520D"/>
<path d="M163.992 526.956L166.481 542.75C166.39 543.112 166.209 543.383 165.938 543.655C164.625 544.967 162.725 545.148 161.638 544.062L158.878 525.01C158.742 524.241 159.104 523.336 159.738 522.702C160.281 522.159 161.231 521.752 162 521.887L181.098 524.603C182.184 525.689 181.958 527.635 180.645 528.947C180.374 529.219 180.102 529.4 179.74 529.49L163.992 526.956Z" fill="#F1520D"/>
<path d="M78.5313 432.287L80.2375 438.655C87.9119 437.129 94.9807 439.276 96.4383 444.716C97.4156 448.364 96.1287 451.226 92.7286 452.137C90.5031 452.734 87.4595 451.76 86.6147 448.607C85.5711 444.713 89.054 444.111 88.5737 442.318C88.2755 441.205 85.1745 440.512 80.9829 441.437L84.8258 455.779L88.9491 456.33C97.2906 457.541 102.262 460.515 103.819 466.326C106.221 475.29 100.593 482.231 92.6608 485.019L94.5326 492.005C94.3726 492.644 93.9277 492.962 93.3713 493.111C92.6913 493.293 92.1305 493.179 91.7507 492.75L89.8789 485.765C82.4849 487.348 74.0561 485.565 72.3334 479.136C71.3396 475.427 72.6386 472.362 76.2242 471.401C78.6351 470.755 81.819 471.757 82.7134 475.096C83.8067 479.176 80.1384 479.827 80.6518 481.744C80.9997 483.042 84.5137 484.287 89.1667 483.106L84.9427 467.343L82.2668 466.999C74.177 465.987 68.933 462.489 67.3097 456.43C65.1728 448.456 70.0296 441.854 77.4556 439.4L75.7495 433.033C75.8642 432.472 76.2925 432.092 76.9726 431.91C77.5289 431.761 78.0732 431.814 78.5313 432.287ZM88.3815 467.813L88.0393 467.772L91.8823 482.114C95.6355 480.048 97.1233 476.204 96.1957 472.742C95.5331 470.269 92.9707 468.372 88.3815 467.813ZM74.9992 450.262C75.5458 452.302 77.8654 454.53 81.7292 455.35L78.2341 442.306C75.342 443.876 74.1378 447.048 74.9992 450.262Z" fill="#F1520D"/>
<path d="M92.2688 397.57L99.5721 388.633L94.2513 385.561C93.921 384.853 94.0193 384.17 94.3713 383.561C95.1073 382.286 96.0627 381.655 97.3804 381.677L102.757 384.781L110.674 375.163L105.298 372.059C104.968 371.351 105.034 370.724 105.386 370.115C106.154 368.784 107.165 368.186 108.427 368.175L113.859 371.311L121.218 362.405C122.188 362.005 123.179 362.208 124.121 362.752C124.953 363.232 125.569 363.957 125.485 364.869L118.127 373.775L126.884 378.831L134.243 369.925C135.213 369.525 136.204 369.728 137.091 370.24C137.978 370.752 138.594 371.477 138.455 372.357L131.096 381.263L136.362 384.303C136.747 385.043 136.704 385.757 136.352 386.367C135.712 387.476 134.606 388.241 133.233 388.187L127.912 385.115L119.994 394.733L125.315 397.805C125.733 398.489 125.634 399.172 125.25 399.837C124.61 400.945 123.559 401.742 122.186 401.689L116.809 398.585L109.506 407.522C108.536 407.923 107.489 407.688 106.658 407.208C105.715 406.664 105.155 405.971 105.294 405.09L112.597 396.153L103.84 391.097L96.4811 400.002C95.5663 400.435 94.4641 400.168 93.6327 399.688C92.7459 399.176 92.1853 398.483 92.2688 397.57ZM114.942 377.627L107.024 387.245L115.782 392.301L123.699 382.683L114.942 377.627Z" fill="#B4000F"/>
<path d="M289.321 393.316C289.465 392.615 290.09 390.99 292.562 390.327C294.973 389.681 297.42 391.146 298.115 393.743C298.828 396.401 297.215 399.284 294.31 400.063C290.539 401.073 285.909 398.139 284.601 393.256C283.458 388.99 284.447 385.015 287.976 381.618C288.359 381.316 289.503 380.148 290.183 379.966C290.616 379.85 291.763 380.669 291.962 381.411C292.045 381.72 291.773 382.19 291.329 382.508C287.462 386.128 287.325 389.08 287.872 391.12C288.236 392.48 288.806 393.123 289.321 393.316ZM304.282 389.307C304.425 388.606 305.05 386.981 307.523 386.319C309.933 385.673 312.38 387.138 313.076 389.734C313.788 392.392 312.175 395.276 309.27 396.054C305.499 397.065 300.87 394.131 299.561 389.247C298.418 384.982 299.407 381.006 302.936 377.609C303.319 377.308 304.464 376.14 305.144 375.957C305.576 375.841 306.724 376.661 306.922 377.402C307.005 377.711 306.734 378.182 306.289 378.5C302.422 382.12 302.285 385.072 302.832 387.112C303.196 388.472 303.766 389.114 304.282 389.307Z" fill="#581B34"/>
<path d="M234.566 304.694C233.956 304.342 233.174 303.521 233.13 302.83C241.674 288.032 239.816 282.673 243.944 275.523C245.8 272.308 249.472 271.325 252.687 273.181C255.901 275.037 256.885 278.708 255.061 281.868C250.037 290.57 245.434 290.351 236.954 305.038C236.333 305.345 235.287 305.11 234.566 304.694ZM227.846 316.334C225.297 314.862 224.556 311.921 225.964 309.482C227.404 306.988 230.289 306.215 232.838 307.687C235.443 309.191 236.216 312.076 234.776 314.57C233.368 317.009 230.451 317.838 227.846 316.334Z" fill="#B4000F"/>
<path d="M155.63 310.884C160.718 319.697 164.957 324.862 171.499 326.849C174.71 327.803 177.275 328.022 181.59 327.304C182.074 327.246 182.456 327.395 182.68 327.783C183.128 328.559 183.094 329.909 182.651 330.165C182.54 330.229 182.286 330.302 182.088 330.342C171.631 333.35 155.362 330.771 146.818 315.972C138.306 301.229 144.207 285.85 152.04 278.297C152.174 278.146 152.364 277.963 152.475 277.899C152.918 277.643 154.072 278.233 154.552 279.064C154.776 279.452 154.714 279.857 154.422 280.248C151.643 283.626 150.518 285.901 149.771 289.215C148.276 295.842 150.574 302.127 155.63 310.884Z" fill="#581B34"/>
<path d="M266.736 353.167L260.735 351.824C260.262 351.366 260.225 350.76 260.391 350.142C260.556 349.523 260.891 349.017 261.547 348.795L264.947 349.706C265.318 349.805 265.755 349.657 265.821 349.41L274.882 315.595C275.743 312.38 275.083 309.156 272.363 308.427L271.807 308.278C271.412 307.774 271.342 307.292 271.508 306.674C271.674 306.056 272.008 305.549 272.602 305.311L278.639 307.259L284.657 308.541C285.584 308.789 286.144 309.668 286.439 310.542L299.393 341.576C299.45 341.857 299.524 342.075 299.833 342.158C300.142 342.241 300.563 342.155 300.695 341.66L306.94 318.354C307.006 318.107 306.718 317.699 306.347 317.599L302.267 316.506C301.794 316.048 301.757 315.442 301.923 314.823C302.089 314.205 302.423 313.699 303.079 313.477L309.611 315.558L315.628 316.839C316.085 317.359 316.122 317.965 315.956 318.584C315.79 319.202 315.456 319.708 314.817 319.868L311.355 318.941C310.984 318.841 310.592 319.068 310.526 319.315L299.742 359.559C299.229 361.476 297.801 362.352 296.008 361.872C294.772 361.541 293.759 360.871 292.85 358.574L278.126 323.024C278.007 322.727 277.933 322.508 277.623 322.425C277.253 322.326 276.894 322.429 276.761 322.923L269.407 350.371C269.34 350.618 269.645 350.965 270.016 351.064L274.096 352.157C274.553 352.677 274.589 353.284 274.424 353.902C274.258 354.52 273.924 355.027 273.284 355.187L266.736 353.167ZM310.316 332.709C312.419 324.858 319.733 321.053 327.152 323.041C334.508 325.012 338.878 331.948 336.774 339.799C334.654 347.712 327.402 351.533 320.046 349.562C312.627 347.574 308.196 340.622 310.316 332.709ZM320.021 335.31C317.769 343.717 318.112 346.393 320.708 347.089C323.428 347.818 325.002 345.655 327.254 337.248C329.474 328.964 329.209 326.243 326.489 325.514C323.893 324.818 322.241 327.026 320.021 335.31ZM330.508 360.713L305.409 353.988C304.895 353.188 304.863 352.318 305.128 351.329C305.393 350.34 305.889 349.479 306.734 349.043L331.833 355.768C332.347 356.568 332.408 357.578 332.143 358.568C331.878 359.557 331.353 360.277 330.508 360.713Z" fill="#455B16"/>
<path d="M315.488 497.057C314.803 497.475 313.038 498.229 310.599 496.821C308.16 495.413 307.396 492.385 308.9 489.78C310.436 487.12 313.965 486.128 316.847 487.792C320.616 489.968 321.978 495.927 319.162 500.805C316.698 505.073 312.775 507.389 307.306 507.261C306.79 507.259 304.956 507.235 304.291 506.851C303.848 506.595 303.569 505.03 303.985 504.309C304.177 503.977 304.757 503.868 305.384 503.935C311.304 504.175 313.704 501.939 314.888 499.889C315.688 498.503 315.771 497.591 315.488 497.057ZM322.719 479.284C319.616 477.492 318.425 473.922 320.217 470.819C321.977 467.77 325.664 467.017 328.767 468.809C331.871 470.601 333.007 474.138 331.247 477.187C329.455 480.29 325.823 481.076 322.719 479.284Z" fill="#455B16"/>
<path d="M783.741 449.238L528.999 247.819L496.499 308.318L745.021 497.826C751.34 502.644 759.519 505.224 766.853 502.168C780.38 496.533 788.294 485.307 792.503 474.894C796.286 465.536 791.659 455.498 783.741 449.238Z" fill="white" stroke="#581B34" stroke-width="12"/>
<path d="M401.047 320.147C344.538 335.288 285.067 298.941 268.743 238.018C252.419 177.095 285.748 115.882 342.257 100.741C398.766 85.5992 458.237 121.946 474.561 182.869C478.594 197.92 479.591 213.005 477.953 227.414L460.725 276.128C447.106 297.292 426.45 313.34 401.047 320.147Z" fill="white" stroke="#581B34" stroke-width="12"/>
<path d="M529.514 190.457C529.514 180.818 531.511 174.4 534.378 170.202C543.064 157.485 553.339 172.476 550.855 187.675C547.853 206.048 541.899 223.814 533.223 240.286L511.014 282.456L481.292 334.185C478.896 338.354 476.94 342.761 475.454 347.334C472.393 356.753 467.821 366.084 459.881 372.002C437.236 388.882 455.666 333.497 477.689 298.978C491.791 276.874 529.514 223.239 529.514 190.457Z" fill="white" stroke="#581B34" stroke-width="12"/>
<path d="M389.408 199.867L406.157 206.666L445.431 218.716L510 245L480 294.5L423.729 257.299L382.32 239.996L371.667 235.568C366.808 232.38 358.639 222.821 364.84 210.091C371.041 197.361 383.802 197.971 389.408 199.867Z" fill="white" stroke="#581B34" stroke-width="12"/>
<ellipse cx="384.356" cy="219.06" rx="6.33033" ry="7.0337" transform="rotate(75 384.356 219.06)" fill="#581B34"/>
<path d="M794.129 469.713C811.253 480.174 840.327 503.349 829.008 519.714C815.099 539.825 784.334 512.873 770.243 500.143" stroke="#581B34" stroke-width="12"/>
</svg>
