<svg width="927" height="809" viewBox="0 0 927 809" fill="none" xmlns="http://www.w3.org/2000/svg">
<path d="M243.716 491.859C291.44 324.056 377.167 216.183 428.071 170.431C438.073 161.441 452.901 161.777 463.484 170.075L645.322 312.643L830.597 457.906C839.353 464.771 843.119 476.23 840.141 486.951C819.336 561.856 779.657 630.446 725.19 685.916C717.502 693.745 705.88 696.31 695.627 692.405L474.656 608.246L261.726 527.15C247.514 521.737 239.556 506.486 243.716 491.859Z" fill="#7EBC9D" stroke="#581B34" stroke-width="12"/>
<path d="M432.912 591.645C527.5 527.374 589.358 360.27 609.559 284.976L722.134 372.833C704.131 508.102 611.72 610.509 568.054 643.95L432.912 591.645Z" stroke="#581B34" stroke-width="12"/>
<path d="M472.334 171.727C426.098 347.998 322.092 478.313 263.579 533.318C255.552 540.864 243.592 541.826 234.05 536.317C224.319 530.698 219.225 519.456 221.686 508.491C267.241 305.476 372.441 186.203 431.457 142.473C439.664 136.392 450.611 136.352 459.457 141.459C470.041 147.57 475.434 159.905 472.334 171.727Z" fill="white" stroke="#581B34" stroke-width="12"/>
<path d="M668.061 372.873C667.445 373.731 666.103 374.777 665.065 374.74C644.248 359.786 635.973 361.761 625.915 354.536C621.393 351.287 620.471 345.66 623.72 341.138C626.968 336.616 632.595 335.694 637.039 338.886C649.28 347.68 648.269 354.518 668.93 369.36C669.296 370.332 668.789 371.86 668.061 372.873ZM684.434 384.636C681.858 388.222 677.359 388.891 673.928 386.426C670.419 383.906 669.695 379.485 672.271 375.898C674.904 372.234 679.325 371.509 682.834 374.029C686.264 376.494 687.067 380.971 684.434 384.636Z" fill="white"/>
<path d="M656.178 474.664C655.427 475.17 654.52 475.081 653.644 474.689C652.767 474.298 652.095 473.683 651.883 472.747L653.878 468.276C654.035 467.925 653.889 467.545 653.539 467.388L597.611 442.42C597.26 442.264 596.88 442.409 596.723 442.76L594.727 447.231C593.976 447.736 593.07 447.647 592.193 447.256C591.316 446.864 590.645 446.249 590.432 445.313L597.171 431.395L602.994 417.174C603.873 416.62 604.779 416.709 605.655 417.1C606.532 417.492 607.204 418.107 607.29 419.092L605.294 423.562C605.137 423.913 605.283 424.293 605.634 424.45L648.412 443.548L617.394 403.522L615.466 402.661C615.027 402.466 614.647 402.611 614.491 402.962L612.495 407.433C611.743 407.938 610.837 407.849 609.96 407.458C609.084 407.066 608.412 406.451 608.199 405.515L614.938 391.597L620.762 377.376C621.601 376.909 622.546 376.911 623.423 377.302C624.299 377.694 624.932 378.396 625.057 379.293L623.061 383.764C622.904 384.115 623.05 384.495 623.401 384.652L679.329 409.62C679.679 409.776 680.06 409.631 680.216 409.28L682.212 404.809C683.051 404.343 683.996 404.344 684.873 404.736C685.75 405.127 686.382 405.83 686.507 406.727L679.895 420.596L673.945 434.866C673.194 435.372 672.287 435.282 671.411 434.891C670.534 434.5 669.863 433.885 669.65 432.948L671.646 428.478C671.802 428.127 671.657 427.747 671.306 427.59L628.615 408.532L659.633 448.557L661.561 449.418C661.912 449.574 662.292 449.429 662.449 449.078L664.445 444.607C665.323 444.053 666.229 444.143 667.106 444.534C667.983 444.925 668.654 445.54 668.74 446.525L662.128 460.394L656.178 474.664ZM602.703 410.526C599.181 418.415 592.068 422.809 586.584 420.256C584.042 419.121 581.863 416.466 583.703 412.346C585.151 409.103 587.89 408.854 589.341 409.607C591.669 410.751 592.232 411.844 593.635 412.47C595.524 413.419 597.359 412.135 598.885 408.716C600.411 405.297 600.142 403.075 598.214 402.214C596.811 401.587 595.426 402.336 593.098 401.191C591.647 400.438 589.925 398.408 591.412 395.077C593.212 391.045 596.644 390.894 599.186 392.029C604.748 394.407 606.225 402.636 602.703 410.526Z" fill="white"/>
<path d="M620.179 541.32L610.39 553.288C609.525 553.557 608.683 553.212 607.955 552.586C607.227 551.96 606.76 551.178 606.824 550.22L610.017 546.508C610.267 546.217 610.237 545.811 609.946 545.561L563.514 505.618C563.223 505.368 562.817 505.398 562.566 505.689L559.373 509.401C558.509 509.67 557.666 509.325 556.938 508.699C556.21 508.073 555.743 507.291 555.807 506.333L566.251 494.929L589.427 467.252C589.74 466.888 590.146 466.858 590.51 467.171L606.939 480.164C607.27 480.956 606.998 481.861 606.372 482.589C605.746 483.317 604.891 483.721 603.996 483.584L600.335 481.068C593.17 476.297 587.993 477.162 582.568 482.88L576.329 489.543C576.016 489.907 575.984 490.386 576.275 490.636L597.526 508.917L600.313 505.236C603.288 501.337 602.472 497.722 598.833 494.592L597.741 493.653C597.336 492.798 597.682 491.955 598.308 491.227C598.934 490.5 599.716 490.032 600.621 490.305L609.468 498.422L619.106 506.207C619.511 507.061 619.166 507.904 618.54 508.632C617.914 509.36 617.132 509.827 616.226 509.554L614.989 508.49C611.278 505.297 607.644 504.958 604.17 508.554L600.947 511.86L621.979 529.953C622.707 530.579 623.988 530.415 624.614 529.687L630.772 521.94C636.188 515.203 635.959 509.434 630.003 503.55L625.731 499.242C625.326 498.387 625.671 497.545 626.297 496.817C626.923 496.089 627.705 495.622 628.611 495.894L645.566 511.367C645.93 511.68 645.961 512.086 645.647 512.45L620.179 541.32Z" fill="white"/>
<path d="M556.058 626.9C555.259 627.326 554.366 627.145 553.534 626.666C552.702 626.188 552.097 625.507 551.98 624.554L554.421 620.31C554.613 619.977 554.507 619.584 554.174 619.393L501.081 588.855C500.749 588.664 500.355 588.77 500.164 589.103L497.723 593.347C496.924 593.773 496.031 593.592 495.199 593.114C494.367 592.635 493.762 591.955 493.645 591.002L501.767 577.843L522.445 541.893L529.687 528.339C530.617 527.878 531.509 528.059 532.342 528.537C533.174 529.016 533.779 529.696 533.764 530.685L531.371 534.846C531.18 535.178 531.286 535.572 531.619 535.763L584.711 566.3C585.044 566.492 585.437 566.386 585.629 566.053L588.022 561.892C588.952 561.43 589.844 561.611 590.677 562.09C591.509 562.569 592.114 563.249 592.099 564.237L584.108 577.361L576.783 590.867C575.936 591.376 575.044 591.195 574.211 590.717C573.379 590.238 572.774 589.558 572.705 588.521L575.099 584.361C575.29 584.028 575.184 583.634 574.851 583.443L522.924 553.576C522.591 553.384 522.198 553.49 522.006 553.823L511.811 571.548C511.62 571.881 511.726 572.275 512.059 572.466L563.986 602.333C564.319 602.525 564.712 602.419 564.903 602.086L567.345 597.842C568.275 597.38 569.167 597.561 569.999 598.04C570.832 598.518 571.437 599.199 571.422 600.187L563.431 613.31L556.058 626.9Z" fill="white"/>
<path d="M195.663 152.021L398.118 346.34L376.118 383.34L164.508 183.672C159.12 178.588 159.064 170.035 164.385 164.88L177.615 152.063C182.64 147.195 190.615 147.176 195.663 152.021Z" fill="#F1520D"/>
</svg>
