<svg width="500" height="284" viewBox="0 0 500 284" fill="none" xmlns="http://www.w3.org/2000/svg">
<rect x="7.69028" y="169.786" width="473.937" height="113.149" rx="24" transform="rotate(-20 7.69028 169.786)" fill="#FFD175" stroke="#7EBC9D" stroke-width="12"/>
<path d="M365.088 71.5186C359.086 73.7032 353.548 72.129 351.843 67.8619C350.867 65.3912 351.013 61.5957 355.262 60.0492C357.555 59.2147 358.603 60.2077 359.039 61.1947C360.236 64.2725 357.422 65.984 358.177 67.8478C358.907 69.6441 361.31 69.5331 364.21 68.4776C367.919 67.1275 370.01 64.6865 369.181 62.6204C368.77 61.7008 367.715 61.3209 367.182 60.0641C366.5 58.4027 366.592 55.9255 369.896 54.7227C372.594 53.7408 374.17 54.9238 374.759 56.5423C376.76 61.6187 373.585 68.4258 365.088 71.5186ZM350.422 136.353C350.011 136.273 349.729 135.917 349.557 135.445C349.238 134.569 349.391 133.52 349.826 132.827L353.333 131.551C353.67 131.428 353.866 131.127 353.762 130.631L346.685 86.0069C346.654 85.7126 346.538 84.7622 346.488 84.6274C346.415 84.425 346.163 84.3638 346.029 84.4129L342.589 85.6647C342.178 85.5852 341.921 85.297 341.749 84.825C341.454 84.0157 341.491 82.8568 342.128 82.0902L353.041 78.4999L363.439 74.3335C363.807 74.5051 363.997 74.8177 364.169 75.2898C364.464 76.0991 364.378 77.1231 363.833 77.9326L360.326 79.2091C360.056 79.3072 359.86 79.6077 359.964 80.1044L365.315 113.9L373.324 76.3111C373.293 76.0168 373.109 75.091 373.06 74.9561C372.986 74.7538 372.802 74.668 372.6 74.7416L369.161 75.9935C368.817 75.8894 368.56 75.6012 368.388 75.1292C368.093 74.3199 368.062 73.1855 368.7 72.4189L379.613 68.8287L390.011 64.6622C390.379 64.8338 390.569 65.1465 390.741 65.6186C391.035 66.4278 391.017 67.4273 390.472 68.2368L386.965 69.5132C386.695 69.6114 386.432 69.9365 386.536 70.4331L393.588 114.99C393.619 115.284 393.803 116.21 393.877 116.412C393.95 116.614 394.134 116.7 394.337 116.626L397.776 115.375C398.169 115.614 398.494 115.877 398.666 116.349C398.96 117.159 398.899 118.25 398.305 118.925L387.753 122.46L376.993 126.681C376.65 126.577 376.368 126.222 376.196 125.749C375.877 124.873 375.962 123.849 376.465 123.131L379.905 121.879C380.242 121.757 380.505 121.432 380.401 120.935L375.05 87.139L367.017 124.661C367.047 124.955 367.232 125.881 367.305 126.083C367.379 126.286 367.563 126.371 367.698 126.322L371.137 125.07C371.53 125.309 371.922 125.548 372.094 126.02C372.389 126.83 372.26 127.946 371.666 128.62L361.114 132.155L350.422 136.353Z" fill="#7EBC9D"/>
<path d="M306.324 152.097L300.623 154.478C300.279 154.374 300.046 154.153 299.85 153.613C299.506 152.669 299.616 151.713 300.094 150.928L303.264 149.774C303.669 149.627 304.227 149.271 304.324 148.701L310.722 95.3537C310.9 93.5326 312.23 92.3611 314.118 91.6738C315.872 91.0356 317.331 91.2681 318.055 92.8376L339.737 136.041C339.811 136.243 340.087 136.372 340.289 136.298L343.796 135.022C344.188 135.261 344.581 135.5 344.753 135.972C345.047 136.781 344.894 137.83 344.324 138.572L332.963 142.401L322.271 146.598C321.928 146.494 321.646 146.139 321.425 145.532C321.13 144.722 321.24 143.766 321.743 143.048L325.857 141.551C326.733 141.232 326.414 140.355 326.15 139.84L320.34 128.284L310.427 131.892L308.953 146.1C308.88 146.737 308.8 147.148 308.874 147.35C308.972 147.62 309.199 147.614 309.536 147.491L313.245 146.141C313.546 146.337 314.006 146.552 314.202 147.091C314.521 147.968 314.344 148.949 313.774 149.691L306.324 152.097ZM310.922 127.588L318.678 124.765L312.45 112.062L310.922 127.588Z" fill="#7EBC9D"/>
<path d="M226.936 181.297C226.593 181.193 226.378 180.812 226.231 180.408C225.936 179.598 225.997 178.507 226.475 177.722L230.05 176.421C230.32 176.323 230.516 176.022 230.436 175.593L223.359 130.969C223.353 130.743 223.144 129.749 223.071 129.547C222.997 129.345 222.813 129.259 222.611 129.332L219.239 130.56C218.803 130.413 218.454 130.082 218.306 129.677C217.987 128.8 218.14 127.752 218.71 127.01L229.219 123.567L239.28 119.523C239.647 119.695 239.905 119.983 240.101 120.522C240.396 121.332 240.268 122.448 239.808 123.073L237.043 124.08C236.706 124.202 236.51 124.503 236.638 125.067L243.623 169.648C243.654 169.942 243.838 170.868 243.887 171.003C243.961 171.205 244.145 171.291 244.347 171.217L253.182 168.002C253.519 167.879 253.691 167.511 253.586 167.014L246.559 122.525C246.528 122.231 246.344 121.305 246.27 121.103C246.196 120.901 246.012 120.815 245.81 120.889L243.113 121.87C242.745 121.699 242.395 121.368 242.248 120.963C241.929 120.086 242.082 119.038 242.584 118.32L252.486 115.098L262.479 111.079C262.847 111.251 263.105 111.539 263.301 112.078C263.596 112.888 263.467 114.004 263.007 114.629L260.242 115.636C259.905 115.758 259.709 116.059 259.838 116.623L266.823 161.204C266.854 161.498 267.038 162.424 267.087 162.559C267.161 162.761 267.344 162.847 267.547 162.773L276.449 159.533C276.719 159.435 276.89 159.067 276.81 158.638L269.758 114.081C269.727 113.787 269.543 112.861 269.47 112.659C269.396 112.457 269.212 112.371 269.01 112.445L266.312 113.426C265.944 113.255 265.595 112.924 265.447 112.519C265.128 111.642 265.281 110.594 265.784 109.876L275.685 106.654L286.353 102.39C286.721 102.561 287.046 102.825 287.242 103.364C287.537 104.174 287.409 105.29 286.881 105.94L283.442 107.192C283.105 107.314 282.909 107.615 283.038 108.179L290.047 152.827C290.053 153.054 290.262 154.047 290.286 154.115C290.36 154.317 290.544 154.403 290.746 154.329L294.186 153.078C294.554 153.249 294.879 153.513 295.051 153.985C295.345 154.794 295.309 155.953 294.647 156.652L283.758 160.31L237.359 177.198L226.936 181.297Z" fill="#7EBC9D"/>
<path d="M194.334 194.077C188.602 196.164 184.922 192.768 183.424 188.654C182.148 185.147 182.797 181.474 186.439 180.149C188.799 179.29 190.614 180.08 191.326 182.036C192.897 186.352 189.102 188.726 189.569 190.007C190.011 191.221 191.421 191.319 193.377 190.607C196.344 189.527 197.662 187.062 198.218 182.506L198.279 182.255L174.485 147.305C174.478 147.078 174.202 146.95 174.068 146.999L170.426 148.324C170.082 148.22 169.776 147.797 169.628 147.392C169.334 146.583 169.327 145.516 169.965 144.75L181.013 141.11L191.613 136.87C191.957 136.974 192.196 137.422 192.368 137.894C192.662 138.703 192.669 139.77 192.074 140.445L188.095 141.893C187.691 142.04 187.593 142.611 187.715 142.948C187.813 143.218 188.102 143.8 188.574 144.468L201.395 163.325L204.349 137.657C204.422 137.02 204.459 136.701 204.293 136.456C204.195 136.186 204.011 136.1 203.809 136.174L199.088 137.892C198.904 137.806 198.511 137.567 198.315 137.028C197.996 136.151 198.1 134.968 198.627 134.317L206.708 131.758L212.52 129.261C212.863 129.365 213.152 129.947 213.274 130.285C213.569 131.094 213.575 132.161 212.981 132.835L209.946 133.94C209.406 134.136 208.898 134.627 208.757 136.129L202.902 179.426C201.923 186.809 201.011 191.647 194.334 194.077Z" fill="#7EBC9D"/>
<path d="M170.151 202.881C162.328 205.729 158.384 202.658 156.347 197.06C155.807 195.577 155.377 193.977 155.076 192.1C154.658 189.274 154.192 187.152 153.627 185.601C152.375 182.162 150.499 181.623 146.52 183.071L146.183 183.194L149.426 203.856C149.457 204.151 149.641 205.076 149.715 205.279C149.788 205.481 149.972 205.567 150.107 205.518L153.614 204.241C154.007 204.48 154.332 204.744 154.504 205.216C154.798 206.025 154.713 207.049 154.143 207.791L143.524 211.351L132.831 215.548C132.42 215.469 132.138 215.113 131.966 214.641C131.647 213.764 131.8 212.716 132.236 212.023L135.742 210.746C136.08 210.623 136.276 210.323 136.171 209.826L129.095 165.202C129.064 164.908 128.947 163.958 128.898 163.823C128.824 163.621 128.573 163.559 128.438 163.608L124.999 164.86C124.588 164.781 124.33 164.493 124.158 164.021C123.864 163.211 123.9 162.052 124.538 161.286L135.451 157.696L145.849 153.529C146.217 153.701 146.407 154.013 146.579 154.485C146.873 155.295 146.855 156.294 146.31 157.104L142.735 158.405C142.466 158.503 142.27 158.803 142.374 159.3L145.507 179.239L145.709 179.165C150.7 177.349 153.513 173.957 153.052 169.543L152.222 162.436C151.454 155.079 152.409 150.149 158.276 148.013C162.01 146.73 164.586 148.772 165.506 151.721C166.58 155.301 165.576 158.416 162.627 159.337C158.108 160.982 158.131 155.169 156.04 155.93C154.826 156.372 155.177 159.223 155.503 162.006L156.222 168.389C156.708 172.871 155.488 176.446 151.197 178.925C150.884 179.115 150.909 179.182 150.909 179.182C150.933 179.25 151.025 179.293 151.16 179.244C160.51 175.764 165.784 178.503 167.87 184.236C168.239 185.247 168.496 186.376 168.687 187.528C169.197 190.398 169.235 194.279 169.677 197.173C169.701 197.24 169.793 197.283 169.793 197.283C170.254 198.338 171.02 198.975 172.234 198.534C172.976 198.264 173.889 197.626 174.343 196.773C174.625 196.289 175.048 195.982 175.52 195.81C176.127 195.589 176.697 195.687 176.943 196.362C177.581 198.115 176.153 200.697 170.151 202.881Z" fill="#7EBC9D"/>
<path d="M110.826 218.973C113.523 217.991 116.337 215.44 117.807 211.926C119.4 207.909 118.719 203.728 118.546 201.575C118.442 200.239 118.858 199.705 119.735 199.386C120.612 199.067 121.391 199.318 121.906 200.734C122.465 202.059 123.319 208.392 120.69 214.39C118.98 218.296 115.358 222.822 108.816 225.203C98.4304 228.984 88.0299 224.75 82.9488 210.789C76.714 193.66 83.4779 175.312 99.1916 169.592C106.205 167.04 107.929 169.467 110.694 168.461C111.503 168.166 111.902 167.792 111.693 166.799L111.595 166.529C111.392 165.763 111.766 165.321 112.441 165.076C113.183 164.806 113.777 164.971 114.293 165.547L117.468 183.714C117.37 184.285 116.641 185.008 115.966 185.254C115.292 185.499 114.562 185.383 114.231 184.893L113.267 181.196C113.089 180.497 112.708 179.031 112.291 177.885C110.352 172.557 106.163 170.492 101.982 172.014C96.2497 174.1 93.4743 181.373 97.0912 199.914C98.0922 204.972 99.0252 208.375 100.436 211.833C103.32 218.497 106.779 220.446 110.826 218.973Z" fill="#7EBC9D"/>
</svg>
