<svg width="575" height="496" viewBox="0 0 575 496" fill="none" xmlns="http://www.w3.org/2000/svg">
<rect x="63.6677" y="150.884" width="473.937" height="113.149" rx="24" transform="rotate(10 63.6677 150.884)" fill="#FFD175" stroke="#581B34" stroke-width="12"/>
<path d="M409.534 298.098C396.888 295.868 389.377 285.409 392.06 270.192C395.399 251.259 411.426 241.415 426.643 244.098C439.86 246.428 446.544 257.404 443.987 271.908C440.711 290.483 424.823 300.794 409.534 298.098ZM409.374 294.829C420.233 296.743 428.244 270.531 430.171 259.6C431.746 250.67 430.006 248.006 426.719 247.426C415.574 245.461 407.669 271.913 405.792 282.558C404.167 291.774 406.23 294.274 409.374 294.829Z" fill="#581B34"/>
<path d="M363.575 288.816L352.022 287.073C351.774 286.809 351.707 286.355 351.795 285.855C351.959 284.926 352.551 284.073 353.354 283.698L356.998 284.341C357.355 284.404 357.75 284.253 357.909 283.765L365.685 263.479L352.397 261.135L345.024 280.388C344.902 280.661 344.596 281.565 344.558 281.779C344.52 281.993 344.638 282.162 344.781 282.187L348.424 282.829C348.647 283.237 348.87 283.644 348.782 284.145C348.63 285.002 347.967 285.842 347.092 286.204L336.069 283.966L324.588 282.236C324.268 281.958 324.201 281.505 324.289 281.004C324.453 280.076 325.117 279.235 325.848 278.848L329.563 279.503C329.92 279.566 330.244 279.403 330.403 278.915L346.762 236.274C346.884 236.001 347.262 235.11 347.287 234.967C347.325 234.753 347.136 234.572 346.993 234.547L343.349 233.904C343.03 233.627 342.95 233.245 343.038 232.745C343.189 231.887 343.807 230.891 344.752 230.542L356.12 232.915L367.329 234.523C367.564 234.859 367.573 235.229 367.484 235.729C367.333 236.587 366.741 237.44 365.854 237.873L362.139 237.218C361.853 237.167 361.53 237.331 361.37 237.819L353.888 257.273L367.177 259.616L374.268 241.124C374.39 240.851 374.696 239.947 374.722 239.805C374.759 239.59 374.642 239.422 374.427 239.384L370.784 238.742C370.536 238.477 370.456 238.095 370.544 237.595C370.695 236.737 371.241 235.729 372.187 235.38L383.555 237.753L394.763 239.361C394.999 239.697 395.007 240.067 394.919 240.567C394.768 241.424 394.247 242.29 393.36 242.723L389.645 242.068C389.359 242.017 388.964 242.169 388.805 242.656L372.459 285.226C372.337 285.499 372.03 286.402 371.992 286.617C371.955 286.831 372.072 286.999 372.287 287.037L375.93 287.679C376.153 288.087 376.304 288.482 376.216 288.982C376.065 289.839 375.473 290.693 374.599 291.054L363.575 288.816Z" fill="#581B34"/>
<path d="M303.59 274.114C306.448 274.618 310.201 273.806 313.264 271.474C316.689 268.763 318.205 264.757 319.142 262.786C319.726 261.563 320.361 261.307 321.29 261.471C322.218 261.634 322.773 262.248 322.509 263.748C322.328 265.19 319.875 271.166 314.542 275.088C311.071 277.643 305.613 279.775 298.683 278.553C287.68 276.613 280.715 267.65 283.323 252.861C286.523 234.714 301.717 222.071 318.364 225.006C325.794 226.316 326.076 229.312 329.005 229.829C329.862 229.98 330.4 229.854 330.72 228.879L330.77 228.593C330.98 227.82 331.531 227.622 332.245 227.748C333.031 227.887 333.468 228.332 333.628 229.097L327.226 246.606C326.852 247.055 325.847 247.32 325.133 247.194C324.418 247.068 323.838 246.598 323.796 246.001L324.821 242.277C325.019 241.575 325.426 240.1 325.64 238.886C326.635 233.242 324.013 229.317 319.583 228.536C313.51 227.465 307.405 232.429 301.2 250.488C299.52 255.422 298.617 258.872 298.105 262.613C297.261 269.904 299.304 273.358 303.59 274.114Z" fill="#581B34"/>
<path d="M242.073 268.571C236 267.5 234.495 262.667 235.263 258.309C235.918 254.594 238.343 251.707 242.201 252.387C244.701 252.828 245.891 254.437 245.525 256.509C244.719 261.081 240.197 261.242 239.958 262.599C239.731 263.885 240.916 264.683 242.988 265.049C246.132 265.603 248.531 264.111 251.321 260.404L251.502 260.215L248.336 217.593C248.445 217.392 248.268 217.14 248.125 217.114L244.267 216.434C244.02 216.169 243.965 215.644 244.04 215.215C244.192 214.358 244.725 213.421 245.671 213.072L257.182 215.47L268.604 217.116C268.852 217.38 268.836 217.893 268.747 218.393C268.596 219.251 268.063 220.188 267.201 220.478L262.986 219.735C262.557 219.659 262.183 220.109 262.12 220.466C262.07 220.752 262.028 221.407 262.104 222.231L263.796 245.219L279.355 224.242C279.742 223.721 279.935 223.46 279.914 223.162C279.964 222.876 279.847 222.708 279.632 222.67L274.631 221.788C274.514 221.62 274.291 221.212 274.392 220.641C274.555 219.712 275.244 218.729 276.034 218.426L284.402 220.27L290.752 221.021C291 221.286 290.958 221.941 290.895 222.299C290.744 223.156 290.21 224.093 289.349 224.383L286.134 223.816C285.562 223.716 284.869 223.888 283.987 225.132L256.978 260.075C252.389 266.044 249.146 269.818 242.073 268.571Z" fill="#581B34"/>
<path d="M216.454 264.053C208.166 262.592 206.266 257.911 207.311 251.981C207.589 250.409 208.021 248.791 208.706 246.996C209.769 244.311 210.433 242.218 210.722 240.575C211.365 236.931 209.995 235.511 205.779 234.767L205.422 234.704L197.818 254.432C197.696 254.705 197.39 255.609 197.352 255.823C197.314 256.037 197.432 256.206 197.575 256.231L201.29 256.886C201.513 257.293 201.664 257.688 201.576 258.189C201.425 259.046 200.832 259.899 199.958 260.261L188.863 258.01L177.382 256.28C177.062 256.002 176.995 255.549 177.083 255.049C177.247 254.12 177.911 253.279 178.642 252.892L182.357 253.547C182.714 253.61 183.038 253.447 183.198 252.959L199.556 210.318C199.678 210.045 200.056 209.154 200.081 209.011C200.119 208.797 199.93 208.616 199.787 208.591L196.143 207.948C195.824 207.671 195.744 207.289 195.832 206.789C195.983 205.931 196.601 204.935 197.547 204.586L208.915 206.959L220.123 208.567C220.358 208.903 220.367 209.273 220.279 209.773C220.127 210.631 219.606 211.496 218.72 211.929L214.933 211.262C214.648 211.211 214.324 211.375 214.164 211.863L206.829 230.901L207.044 230.939C212.331 231.871 216.508 230.324 218.335 226.226L221.2 219.586C224.246 212.756 227.574 208.923 233.79 210.019C237.707 210.784 238.93 213.872 238.245 216.919C237.376 220.596 234.922 222.816 231.875 222.131C227.088 221.287 230.046 216.21 227.831 215.82C226.545 215.593 225.411 218.266 224.289 220.867L221.693 226.818C219.853 230.987 216.979 233.501 211.969 233.502C211.6 233.51 211.587 233.582 211.587 233.582C211.574 233.653 211.633 233.737 211.776 233.762C221.719 235.442 224.952 240.505 223.881 246.578C223.692 247.65 223.348 248.768 222.932 249.873C221.928 252.643 219.999 256.06 218.924 258.817C218.911 258.888 218.97 258.972 218.97 258.972C218.84 260.128 219.189 261.073 220.475 261.3C221.261 261.439 222.383 261.342 223.211 260.825C223.702 260.543 224.228 260.488 224.728 260.577C225.371 260.69 225.82 261.064 225.694 261.778C225.367 263.636 222.812 265.174 216.454 264.053Z" fill="#581B34"/>
<path d="M138.007 249.041L126.526 247.311C126.278 247.046 126.211 246.592 126.324 245.949C126.475 245.092 127.055 244.31 127.858 243.936L131.501 244.579C131.787 244.629 131.968 244.44 132.09 244.167L148.692 200.98C148.814 200.706 149.057 200.16 149.083 200.017C149.12 199.803 148.931 199.622 148.717 199.584L145.073 198.942C144.825 198.677 144.745 198.295 144.846 197.723C145.01 196.794 145.686 195.882 146.548 195.592L157.773 197.94L172.041 200.161C179.042 201.396 183.96 206.093 182.713 213.166C180.936 223.24 170.809 225.948 164.803 225.331C164.303 225.243 163.908 225.394 163.833 225.823C163.757 226.251 163.959 226.361 164.388 226.436C170.347 228.15 175.382 231.763 173.946 239.908C172.422 248.553 163.95 253.984 152.948 252.044L138.007 249.041ZM155.465 222.727L156.465 222.903C160.752 223.659 166.332 218.75 167.995 209.319C168.713 205.247 167.305 202.788 164.59 202.31L164.019 202.209C163.733 202.158 163.409 202.322 163.3 202.524L155.465 222.727ZM154.339 225.769L146.135 247.233L147.135 247.409C151.993 248.266 157.801 244.575 159.64 234.144C160.446 229.572 158.84 226.563 155.125 225.908L154.339 225.769Z" fill="#581B34"/>
</svg>
