<svg width="1318" height="186" viewBox="0 0 1318 186" fill="none" xmlns="http://www.w3.org/2000/svg">
<path d="M107.5 60.5252C58.7851 59.9779 30.855 68.4498 16.6314 76.8446C7.56556 82.1953 6.64303 93.5884 16.2438 97.9062C29.6147 103.919 56.8039 109.525 107.5 109.525C147.901 109.525 174.021 105.965 190.284 101.476C207.873 96.6199 207.2 79.1317 190.099 72.7645C173.176 66.4629 146.645 60.9651 107.5 60.5252Z" stroke="#F1520D" stroke-width="17"/>
<path d="M196.5 76.5C220.338 80.632 268.634 78.7025 279.66 40.3683C280.764 36.5306 280.769 32.4144 281.96 28.6026C284.679 19.8955 293.764 9.00005 316.5 9.00005C344.9 9.00005 557 9.00005 659.5 9.00005" stroke="#F1520D" stroke-width="17"/>
<path d="M196 99.5001C219.057 100.132 267.016 110.52 283.553 146.32C285.405 150.331 286.091 154.767 287.278 159.023C291.876 175.504 306.03 177.5 355 177.5C409.8 177.5 580.833 177.5 659.5 177.5" stroke="#F1520D" stroke-width="17"/>
<path d="M287 157.5C282.667 127.833 275.6 60.5 282 28.5" stroke="#F1520D" stroke-width="17" stroke-linecap="round"/>
<path d="M1211 125.975C1259.71 126.522 1287.64 118.05 1301.87 109.656C1310.93 104.305 1311.86 92.9117 1302.26 88.594C1288.89 82.5807 1261.7 76.9747 1211 76.9747C1170.6 76.9747 1144.48 80.5351 1128.22 85.0246C1110.63 89.8802 1111.3 107.368 1128.4 113.736C1145.32 120.037 1171.85 125.535 1211 125.975Z" stroke="#F1520D" stroke-width="17"/>
<path d="M1122 110C1098.16 105.868 1049.87 107.798 1038.84 146.132C1037.74 149.969 1037.73 154.086 1036.54 157.897C1033.82 166.605 1024.74 177.5 1002 177.5C973.6 177.5 761.5 177.5 659 177.5" stroke="#F1520D" stroke-width="17"/>
<path d="M1122.5 87C1099.44 86.3683 1051.48 75.9798 1034.95 40.1799C1033.09 36.1692 1032.41 31.7327 1031.22 27.4772C1026.62 10.9964 1012.47 9.00002 963.5 9.00002C908.7 9.00001 737.667 9 659 8.99999" stroke="#F1520D" stroke-width="17"/>
<path d="M1031.5 29C1035.83 58.6667 1042.9 126 1036.5 158" stroke="#F1520D" stroke-width="17" stroke-linecap="round"/>
</svg>
