<svg width="1440" height="116" viewBox="0 0 1440 116" fill="none" xmlns="http://www.w3.org/2000/svg">
<rect x="-5" y="58" width="58" height="58" rx="5" fill="#B4000F"/>
<rect x="459" y="58" width="58" height="58" rx="5" fill="#B4000F"/>
<rect x="923" y="58" width="58" height="58" rx="5" fill="#B4000F"/>
<rect x="227" y="58" width="58" height="58" rx="5" fill="#B4000F"/>
<rect x="691" y="58" width="58" height="58" rx="5" fill="#B4000F"/>
<rect x="1155" y="58" width="58" height="58" rx="5" fill="#B4000F"/>
<rect x="111" y="58" width="58" height="58" rx="5" fill="#B4000F"/>
<rect x="575" y="58" width="58" height="58" rx="5" fill="#B4000F"/>
<rect x="1039" y="58" width="58" height="58" rx="5" fill="#B4000F"/>
<rect x="343" y="58" width="58" height="58" rx="5" fill="#B4000F"/>
<rect x="807" y="58" width="58" height="58" rx="5" fill="#B4000F"/>
<rect x="1271" y="58" width="58" height="58" rx="5" fill="#B4000F"/>
<rect x="53" width="58" height="58" rx="5" fill="#B4000F"/>
<rect x="517" width="58" height="58" rx="5" fill="#B4000F"/>
<rect x="981" width="58" height="58" rx="5" fill="#B4000F"/>
<rect x="285" width="58" height="58" rx="5" fill="#B4000F"/>
<rect x="749" width="58" height="58" rx="5" fill="#B4000F"/>
<rect x="1213" width="58" height="58" rx="5" fill="#B4000F"/>
<rect x="169" width="58" height="58" rx="5" fill="#B4000F"/>
<rect x="633" width="58" height="58" rx="5" fill="#B4000F"/>
<rect x="1097" width="58" height="58" rx="5" fill="#B4000F"/>
<rect x="401" width="58" height="58" rx="5" fill="#B4000F"/>
<rect x="865" width="58" height="58" rx="5" fill="#B4000F"/>
<rect x="1329" width="58" height="58" rx="5" fill="#B4000F"/>
<rect x="1387" y="58" width="58" height="58" rx="5" fill="#B4000F"/>
</svg>
