<svg width="734" height="774" viewBox="0 0 734 774" fill="none" xmlns="http://www.w3.org/2000/svg">
<path d="M419.5 731.5H695.5C712.069 731.5 725.5 718.069 725.5 701.5V39C725.5 22.4315 712.069 9 695.5 9H39C22.4315 9 9 22.4315 9 39V701.5C9 718.069 22.4315 731.5 39 731.5H303" stroke="#F1520D" stroke-width="17" stroke-linecap="round"/>
<path d="M37 9V675.5C37 692.069 50.4315 705.5 67 705.5H285.074C293.03 705.5 300.001 709.253 302.017 716.95C306.841 735.366 314 767.5 360.5 767.5C404.926 767.5 413.716 735.702 416.91 717.571C418.29 709.735 423.97 705.5 431.926 705.5H666.5C683.069 705.5 696.5 692.069 696.5 675.5V9" stroke="#F1520D" stroke-width="12" stroke-linecap="round"/>
</svg>
