<svg width="1440" height="641" viewBox="0 0 1440 641" fill="none" xmlns="http://www.w3.org/2000/svg">
<path d="M1461 464H-21" stroke="#581B34" stroke-width="8"/>
<path d="M1461 635H-21" stroke="#581B34" stroke-width="11"/>
<path d="M1116.3 508.469C1117.65 505.733 1120.43 504 1123.48 504H1300.12C1302.85 504 1305.39 505.391 1306.86 507.691L1335.63 552.691C1339.03 558.016 1335.21 565 1328.89 565H1101.35C1095.43 565 1091.56 558.785 1094.17 553.469L1116.3 508.469Z" fill="white"/>
<path d="M1061.3 508.469C1062.65 505.733 1065.43 504 1068.48 504H1245.12C1247.85 504 1250.39 505.391 1251.86 507.691L1280.63 552.691C1284.03 558.016 1280.21 565 1273.89 565H1046.35C1040.43 565 1036.56 558.785 1039.17 553.469L1061.3 508.469Z" fill="white" fill-opacity="0.7"/>
<path d="M426.302 508.469C427.648 505.733 430.432 504 433.481 504H610.119C612.849 504 615.39 505.391 616.86 507.691L645.63 552.691C649.035 558.016 645.21 565 638.89 565H411.35C405.425 565 401.556 558.785 404.171 553.469L426.302 508.469Z" fill="white"/>
<path d="M371.302 508.469C372.648 505.733 375.432 504 378.481 504H555.119C557.849 504 560.39 505.391 561.86 507.691L590.63 552.691C594.035 558.016 590.21 565 583.89 565H356.35C350.425 565 346.556 558.785 349.171 553.469L371.302 508.469Z" fill="white" fill-opacity="0.7"/>
<path d="M771.302 508.469C772.648 505.733 775.432 504 778.481 504H955.119C957.849 504 960.39 505.391 961.86 507.691L990.63 552.691C994.035 558.016 990.21 565 983.89 565H756.35C750.425 565 746.556 558.785 749.171 553.469L771.302 508.469Z" fill="white"/>
<path d="M716.302 508.469C717.648 505.733 720.432 504 723.481 504H900.119C902.849 504 905.39 505.391 906.86 507.691L935.63 552.691C939.035 558.016 935.21 565 928.89 565H701.35C695.425 565 691.556 558.785 694.171 553.469L716.302 508.469Z" fill="white" fill-opacity="0.7"/>
<path d="M81.3019 508.469C82.6476 505.733 85.4316 504 88.4807 504H265.119C267.849 504 270.39 505.391 271.86 507.691L300.63 552.691C304.035 558.016 300.21 565 293.89 565H66.3496C60.4255 565 56.5564 558.785 59.1708 553.469L81.3019 508.469Z" fill="white"/>
<path d="M26.3019 508.469C27.6476 505.733 30.4316 504 33.4807 504H210.119C212.849 504 215.39 505.391 216.86 507.691L245.63 552.691C249.035 558.016 245.21 565 238.89 565H11.3496C5.42548 565 1.55635 558.785 4.17077 553.469L26.3019 508.469Z" fill="white" fill-opacity="0.7"/>
<path d="M338.752 437.052C344.085 300.052 368.752 26.3523 424.752 27.5523C558.085 13.5523 857.452 -6.04769 988.252 27.5523C1006.42 37.5523 1059.65 84.8522 1127.25 194.052C1178.69 197.404 1258.24 211.126 1306.68 241.695C1332.52 257.997 1345 287.633 1351.16 317.551C1357.96 350.563 1363.8 394.045 1362 437.052C1389.37 464.42 1341.42 487.552 1302.72 487.552H1270H621H397.641C359.935 487.552 307.619 458.326 338.752 437.052Z" fill="#FFD175"/>
<path d="M338.752 437.052C344.085 300.052 368.752 26.3523 424.752 27.5523C558.085 13.5523 857.452 -6.04769 988.252 27.5523M338.752 437.052H621H1040.75H1101.5M338.752 437.052V437.052C307.619 458.326 359.935 487.552 397.641 487.552H621C801.227 487.552 1270 487.552 1270 487.552H1302.72C1341.42 487.552 1389.37 464.42 1362 437.052V437.052M988.252 27.5523C1006.42 37.5523 1059.65 84.8522 1127.25 194.052M988.252 27.5523C999.508 62.5847 1020.42 119.73 1040.75 157.114C1052.63 178.956 1064.31 194.052 1073.75 194.052C1099.35 194.052 1120.09 194.052 1127.25 194.052M1127.25 194.052C1178.69 197.404 1258.24 211.126 1306.68 241.695C1332.52 257.997 1345 287.633 1351.16 317.551C1357.96 350.563 1363.8 394.045 1362 437.052M1270 437.052H1362" stroke="#F1520D" stroke-width="17"/>
<path d="M1123.73 190.636C1084.37 115.998 1025.2 57.837 996.024 34.3013C994.52 33.0883 992.448 34.6049 993.002 36.4556C1027.54 151.93 1057.39 189.107 1068.45 193.442C1068.66 193.523 1068.87 193.553 1069.09 193.553H1121.97C1123.46 193.553 1124.43 191.962 1123.73 190.636Z" fill="white" stroke="#F1520D" stroke-width="10"/>
<path d="M392.752 294.552C391.552 267.352 365.919 261.885 353.252 262.552C350.452 266.152 344.419 342.719 341.752 380.552C408.252 386.052 394.252 328.552 392.752 294.552Z" fill="#FF2E2E" stroke="#F1520D" stroke-width="17"/>
<path d="M612.211 499.607C593.5 558.175 542.411 590.341 500.541 576.964C458.67 563.587 435.694 507.759 454.405 449.192C473.116 390.624 524.205 358.458 566.075 371.835C607.946 385.212 630.922 441.04 612.211 499.607Z" fill="#FFD175" stroke="#F1520D" stroke-width="17"/>
<path d="M576.058 487.332C566.152 518.339 538.969 535.695 516.399 528.485C493.829 521.274 481.744 491.373 491.65 460.366C501.556 429.359 528.739 412.003 551.309 419.214C573.879 426.424 585.964 456.326 576.058 487.332Z" fill="#581B34" stroke="#581B34" stroke-width="7.35902"/>
<path d="M1259.76 499.607C1241.05 558.175 1189.96 590.341 1148.09 576.964C1106.22 563.587 1083.24 507.759 1101.95 449.192C1120.66 390.624 1171.75 358.458 1213.62 371.835C1255.49 385.212 1278.47 441.04 1259.76 499.607Z" fill="#FFD175" stroke="#F1520D" stroke-width="17"/>
<path d="M1223.6 487.332C1213.7 518.339 1186.51 535.695 1163.94 528.485C1141.38 521.274 1129.29 491.373 1139.2 460.366C1149.1 429.359 1176.28 412.003 1198.85 419.214C1221.42 426.424 1233.51 456.326 1223.6 487.332Z" fill="#581B34" stroke="#581B34" stroke-width="7.35902"/>
<path d="M1290.34 294C1287.14 262.4 1307.34 253.5 1317.84 253C1339.84 267.8 1353.01 332.167 1356.84 362.5C1310.34 371.5 1294.34 333.5 1290.34 294Z" fill="white" stroke="#F1520D" stroke-width="17"/>
<path d="M326 52H75.5" stroke="#F1520D" stroke-width="10" stroke-linecap="round" stroke-linejoin="round"/>
<path d="M325.5 95L200.5 95" stroke="#F1520D" stroke-width="10" stroke-linecap="round" stroke-linejoin="round"/>
<path d="M325.5 143L137.5 143" stroke="#F1520D" stroke-width="10" stroke-linecap="round" stroke-linejoin="round"/>
<path d="M461.5 386.806C479.197 362.909 521.303 330.101 572.5 346.347M617.5 378C608.5 367.5 602.527 360.891 594.5 356.217" stroke="#F1520D" stroke-width="10" stroke-linecap="round" stroke-linejoin="round"/>
<path d="M1109.5 386.806C1127.2 362.909 1169.3 330.101 1220.5 346.347M1265.5 378C1256.5 367.5 1250.53 360.891 1242.5 356.217" stroke="#F1520D" stroke-width="10" stroke-linecap="round" stroke-linejoin="round"/>
<path d="M568.003 595.999C540.728 607.847 487.859 615.206 451.644 575.538M428.5 525.626C431.044 539.219 432.912 547.929 437.527 555.99" stroke="#F1520D" stroke-width="10" stroke-linecap="round" stroke-linejoin="round"/>
<path d="M1216 595.999C1188.73 607.847 1135.86 615.206 1099.64 575.538M1076.5 525.626C1079.04 539.219 1080.91 547.929 1085.53 555.99" stroke="#F1520D" stroke-width="10" stroke-linecap="round" stroke-linejoin="round"/>
<path d="M485.5 336C494.5 330.667 517.4 319.8 537 319" stroke="#F1520D" stroke-width="10" stroke-linecap="round" stroke-linejoin="round"/>
<path d="M1132.5 336C1141.5 330.667 1164.4 319.8 1184 319" stroke="#F1520D" stroke-width="10" stroke-linecap="round" stroke-linejoin="round"/>
<path d="M1066 197C1074.31 219.885 1081.56 256.866 1083.79 302" stroke="#F1520D" stroke-width="17" stroke-linecap="round"/>
<path d="M765.455 190.5C769.067 227.58 772.175 266.09 774.29 302" stroke="#F1520D" stroke-width="17" stroke-linecap="round"/>
<path d="M356 209.999C494.833 193.999 828.4 181.9 1064 195.5" stroke="#F1520D" stroke-width="17"/>
<path d="M982 238.499C987.275 237.485 995.5 235 1012 235C1020.62 235.397 1030 237 1039 240.5" stroke="#F1520D" stroke-width="18" stroke-linecap="round"/>
<path d="M484.839 84.9054L477.223 85.0946C476.845 84.8581 476.703 84.4324 476.703 83.9594C476.703 83.4864 476.845 83.0606 477.223 82.7768H479.636C479.825 82.7768 479.967 82.6349 479.967 82.4457V52.2674C479.967 52.0782 479.825 51.9363 479.636 51.9363H477.223C476.845 51.6998 476.703 51.2741 476.703 50.801C476.703 50.328 476.845 49.9023 477.223 49.6185L484.839 49.855L495.245 49.5712C501.631 49.5712 505.935 53.4026 505.935 58.0855C505.935 63.194 500.827 66.3632 496.759 66.6943C496.475 66.6943 496.286 66.7889 496.286 67.0254C496.286 67.3093 496.475 67.4039 496.759 67.4039C501.867 67.735 506.692 70.4785 506.692 76.2965C506.692 82.02 502.009 85.1419 495.482 85.1419L484.839 84.9054ZM489.663 68.1607V82.8241H489.995C494.062 82.8241 496.286 81.074 496.286 75.3032C496.286 69.8635 494.11 68.1607 490.468 68.1607H489.663ZM489.663 66.0794H490.42C493.826 66.0794 495.529 64.282 495.529 58.9842C495.529 53.5918 493.495 51.889 489.995 51.889C489.758 51.9363 489.663 52.0782 489.663 52.2201V66.0794ZM523.834 84.9054L516.313 85.0946C515.888 84.8581 515.746 84.4324 515.746 83.9594C515.746 83.4864 515.888 83.0606 516.313 82.7768H518.678C518.962 82.7768 519.057 82.6349 519.057 82.3984V69.1067L510.448 52.2201C510.353 52.0309 510.259 51.9363 510.07 51.9363H507.752C507.373 51.6998 507.184 51.2741 507.184 50.801C507.184 50.328 507.373 49.9023 507.752 49.6185L516.171 49.855L523.598 49.6185C524.024 49.9023 524.165 50.328 524.165 50.801C524.165 51.2741 524.024 51.6998 523.598 51.9363H521.091C520.76 51.9363 520.665 52.0782 520.665 52.2674C520.665 52.4566 520.902 52.9296 521.233 53.4972L526.72 64.6131L532.396 53.2607C532.632 52.835 532.822 52.4093 532.822 52.2674C532.822 52.0782 532.68 51.9363 532.538 51.9363H529.369C528.99 51.6998 528.848 51.2741 528.848 50.801C528.848 50.328 528.99 49.9023 529.369 49.6185L534.099 49.855L539.018 49.6185C539.444 49.9023 539.586 50.328 539.586 50.801C539.586 51.2741 539.444 51.6998 539.018 51.9363H536.7C536.417 51.9363 536.085 52.2201 535.943 52.4093L528.754 66.5997V82.3984C528.754 82.6349 528.848 82.7768 529.132 82.7768H531.497C531.876 83.0606 532.065 83.4864 532.065 83.9594C532.065 84.4324 531.876 84.8581 531.497 85.0946L523.834 84.9054Z" fill="#9B2A16"/>
<path d="M556.692 62.4626L553.908 62.5374C553.74 62.4439 553.684 62.2758 553.684 62.0889C553.684 61.902 553.74 61.7338 553.908 61.6217H555.179C555.254 61.6217 555.31 61.5657 555.31 61.4909V49.6433C555.31 49.5686 555.254 49.5125 555.179 49.5125H553.908C553.74 49.4004 553.684 49.2322 553.684 49.0454C553.684 48.8585 553.74 48.6903 553.908 48.5969L556.692 48.6716L560.729 48.5969C563.139 48.5782 564.84 50.0358 564.84 52.054C564.84 53.96 563.158 55.4924 561.345 55.4737C561.233 55.4737 561.159 55.5484 561.159 55.6419C561.159 55.7353 561.233 55.7914 561.383 55.7914C563.364 55.8287 564.616 57.2116 564.616 58.6879C564.616 59.8278 564.335 60.2576 564.335 61.0237C564.335 61.6778 564.653 61.9955 565.195 61.9955C565.419 61.9955 565.662 61.902 565.849 61.7151C566.073 61.4909 566.167 61.1732 566.447 61.1732C566.615 61.1732 566.783 61.3227 566.783 61.547C566.783 62.1449 565.999 62.799 564.784 62.799C562.13 62.799 561.644 60.7995 561.644 58.501C561.644 56.3146 560.43 56.1277 559.346 56.1277H558.113V61.4909C558.113 61.5657 558.169 61.6217 558.243 61.6217H559.72C559.869 61.7338 559.944 61.902 559.944 62.0889C559.944 62.2758 559.869 62.4439 559.72 62.5374L556.692 62.4626ZM558.113 55.2681H559.383C560.747 55.2681 561.775 54.2777 561.775 52.2595C561.775 50.26 560.691 49.4938 559.346 49.4938H558.262C558.169 49.4938 558.113 49.5499 558.113 49.6247V55.2681ZM569.873 62.4813L567.594 62.5374C567.444 62.4439 567.369 62.2758 567.369 62.0889C567.369 61.902 567.444 61.7338 567.594 61.6217H568.49C568.565 61.6217 568.621 61.5657 568.621 61.4909V53.8105C568.621 53.7171 568.565 53.6611 568.49 53.6611H567.575C567.407 53.5676 567.351 53.3994 567.351 53.2126C567.351 53.0257 567.407 52.8575 567.575 52.7641C568.079 52.7828 568.733 52.8201 569.126 52.8201C569.743 52.8201 570.116 52.6706 570.565 52.6706C570.957 52.6706 571.125 52.8949 571.125 53.2686V61.4909C571.125 61.5657 571.163 61.6217 571.237 61.6217H572.134C572.303 61.7338 572.359 61.902 572.359 62.0889C572.359 62.2758 572.303 62.4439 572.134 62.5374L569.873 62.4813ZM569.873 51.3812C569.07 51.3812 568.416 50.7833 568.416 50.0545C568.416 49.2883 569.07 48.709 569.873 48.709C570.696 48.709 571.312 49.2883 571.312 50.0545C571.312 50.7833 570.696 51.3812 569.873 51.3812ZM573.575 57.6788C573.575 54.8196 575.612 52.4838 578.415 52.4838C579.948 52.4838 581.181 53.2312 581.798 54.1095C582.059 54.4646 582.246 55.0065 582.246 55.4176C582.246 56.109 581.779 56.8005 580.844 56.8005C580.134 56.8005 579.649 56.352 579.649 55.6979C579.649 55.2308 580.097 54.7449 580.097 54.3338C580.097 53.5676 579.312 53.3247 578.695 53.3247C577.294 53.3247 576.416 54.7449 576.416 57.5853C576.416 60.4631 577.088 61.7899 578.733 61.7899C580.041 61.7899 581.237 60.706 581.499 59.3045C581.573 58.9682 581.723 58.7439 581.984 58.7439C582.246 58.7439 582.377 58.9308 582.377 59.2111C582.377 59.4727 582.209 60.0707 582.059 60.3697C581.499 61.7899 580.004 62.799 578.284 62.799C575.631 62.799 573.575 60.7808 573.575 57.6788ZM583.795 57.6788C583.795 54.8196 585.832 52.4838 588.635 52.4838C590.167 52.4838 591.4 53.2312 592.017 54.1095C592.279 54.4646 592.465 55.0065 592.465 55.4176C592.465 56.109 591.998 56.8005 591.064 56.8005C590.354 56.8005 589.868 56.352 589.868 55.6979C589.868 55.2308 590.316 54.7449 590.316 54.3338C590.316 53.5676 589.532 53.3247 588.915 53.3247C587.513 53.3247 586.635 54.7449 586.635 57.5853C586.635 60.4631 587.308 61.7899 588.952 61.7899C590.26 61.7899 591.456 60.706 591.718 59.3045C591.793 58.9682 591.942 58.7439 592.204 58.7439C592.465 58.7439 592.596 58.9308 592.596 59.2111C592.596 59.4727 592.428 60.0707 592.279 60.3697C591.718 61.7899 590.223 62.799 588.504 62.799C585.85 62.799 583.795 60.7808 583.795 57.6788ZM599.807 60.8929H599.695C599.284 61.7338 598.424 62.6682 596.817 62.6682C595.453 62.6682 594.089 61.8086 594.089 59.9399C594.089 56.9313 597.677 55.9035 599.639 55.8848V54.5954C599.639 53.7732 599.265 53.3247 598.256 53.3247C597.116 53.3247 596.574 53.7358 596.574 54.0535C596.574 54.3525 596.855 54.6515 596.855 55.0252C596.855 55.5671 596.331 56.053 595.621 56.053C594.818 56.053 594.332 55.5111 594.332 54.8757C594.332 53.3621 596.873 52.4838 598.649 52.4838C600.966 52.4838 602.143 53.1004 602.143 54.9318V60.8369C602.143 61.2106 602.33 61.3414 602.554 61.3414C602.834 61.3414 602.984 61.1172 603.133 60.8182C603.246 60.5752 603.376 60.4818 603.582 60.4818C603.806 60.4818 603.993 60.65 603.993 60.9116C603.993 61.304 603.358 62.6121 601.713 62.6121C600.442 62.6121 599.807 61.8646 599.807 60.8929ZM597.714 61.304C598.929 61.304 599.527 59.9959 599.639 58.7252V56.6883C597.994 56.707 596.5 57.6414 596.5 59.5661C596.5 60.65 596.761 61.304 597.714 61.304ZM608.11 53.2686V54.9691C608.651 53.7545 609.735 52.4838 611.062 52.4838C612.258 52.4838 612.968 53.3807 612.968 54.3338C612.968 55.0999 612.464 55.6792 611.754 55.6792C611.043 55.6792 610.726 55.1747 610.614 54.7262C610.501 54.3898 610.445 54.0909 610.109 54.0909C609.567 54.0909 608.82 55.0626 608.371 56.3146V61.4909C608.371 61.5657 608.409 61.6217 608.483 61.6217H609.829C609.978 61.7338 610.053 61.902 610.053 62.0889C610.053 62.2758 609.978 62.4439 609.829 62.5374L607.138 62.4626L604.821 62.5374C604.671 62.4439 604.615 62.2758 604.615 62.0889C604.615 61.902 604.671 61.7338 604.821 61.6217H605.755C605.83 61.6217 605.867 61.5657 605.867 61.4909V53.8105C605.867 53.7171 605.811 53.6611 605.736 53.6611H604.821C604.671 53.5676 604.615 53.3994 604.615 53.2126C604.615 53.0257 604.671 52.8575 604.821 52.7641C605.344 52.7828 605.886 52.8201 606.278 52.8201C606.895 52.8201 607.119 52.6706 607.568 52.6706C607.96 52.6706 608.11 52.8949 608.11 53.2686ZM621.404 62.6308C621.012 62.6308 620.862 62.4066 620.862 62.0141V60.706C620.227 61.7899 619.087 62.799 617.611 62.799C615.443 62.799 613.705 60.8555 613.705 57.7161C613.705 54.5767 615.798 52.4838 618.134 52.4838C619.199 52.4838 620.003 52.8762 620.601 53.5116V49.6433C620.601 49.5686 620.545 49.5125 620.47 49.5125H619.554C619.405 49.4004 619.349 49.2322 619.349 49.0454C619.349 48.8585 619.405 48.6903 619.554 48.5969C620.078 48.6156 620.732 48.6529 621.124 48.6529C621.741 48.6529 622.096 48.5034 622.544 48.5034C622.955 48.5034 623.105 48.7277 623.105 49.1201V61.4909C623.105 61.5657 623.161 61.6217 623.236 61.6217H624.151C624.301 61.7338 624.376 61.902 624.376 62.0889C624.376 62.2758 624.301 62.4439 624.151 62.5374C623.628 62.5187 623.086 62.4813 622.694 62.4813C622.077 62.4813 621.853 62.6308 621.404 62.6308ZM618.134 61.7151C619.05 61.7151 619.797 61.0424 620.601 59.697V54.857C620.115 53.904 619.461 53.5302 618.657 53.5302C617.312 53.5302 616.49 54.4646 616.49 57.7161C616.49 60.9864 617.106 61.7151 618.134 61.7151ZM625.53 57.6414C625.53 54.5207 627.772 52.4838 630.463 52.4838C633.154 52.4838 635.396 54.5207 635.396 57.6414C635.396 60.7995 633.154 62.799 630.463 62.799C627.772 62.799 625.53 60.7995 625.53 57.6414ZM628.314 57.6414C628.314 61.0424 629.23 61.9955 630.463 61.9955C631.715 61.9955 632.631 61.0424 632.631 57.6414C632.631 54.259 631.715 53.306 630.463 53.306C629.23 53.306 628.314 54.259 628.314 57.6414ZM648.26 62.799C644.672 62.799 641.682 59.9399 641.682 55.5671C641.682 51.1944 644.672 48.3353 648.26 48.3353C651.866 48.3353 654.856 51.1944 654.856 55.5671C654.856 59.9399 651.904 62.799 648.26 62.799ZM648.26 61.9207C650.782 61.9207 651.735 59.9773 651.735 55.5671C651.735 51.1383 650.764 49.1949 648.26 49.1949C645.793 49.1949 644.803 51.1383 644.803 55.5671C644.803 59.9773 645.737 61.9207 648.26 61.9207ZM658.521 62.4813L656.26 62.5374C656.092 62.4439 656.036 62.2758 656.036 62.0889C656.036 61.902 656.092 61.7338 656.26 61.6217H657.139C657.213 61.6217 657.269 61.5657 657.269 61.4909V49.6433C657.269 49.5686 657.213 49.5125 657.139 49.5125H656.223C656.073 49.4004 655.999 49.2322 655.999 49.0454C655.999 48.8585 656.073 48.6903 656.223 48.5969C656.746 48.6156 657.381 48.6529 657.793 48.6529C658.391 48.6529 658.764 48.5034 659.213 48.5034C659.624 48.5034 659.773 48.7277 659.773 49.1201V61.4909C659.773 61.5657 659.829 61.6217 659.886 61.6217H660.801C660.951 61.7338 661.007 61.902 661.007 62.0889C661.007 62.2758 660.951 62.4439 660.801 62.5374L658.521 62.4813ZM662.21 57.6414C662.21 54.5207 664.453 52.4838 667.144 52.4838C669.835 52.4838 672.077 54.5207 672.077 57.6414C672.077 60.7995 669.835 62.799 667.144 62.799C664.453 62.799 662.21 60.7995 662.21 57.6414ZM664.995 57.6414C664.995 61.0424 665.91 61.9955 667.144 61.9955C668.396 61.9955 669.311 61.0424 669.311 57.6414C669.311 54.259 668.396 53.306 667.144 53.306C665.91 53.306 664.995 54.259 664.995 57.6414ZM673.562 57.6788C673.562 54.8196 675.599 52.4838 678.402 52.4838C679.934 52.4838 681.167 53.2312 681.784 54.1095C682.046 54.4646 682.232 55.0065 682.232 55.4176C682.232 56.109 681.765 56.8005 680.831 56.8005C680.121 56.8005 679.635 56.352 679.635 55.6979C679.635 55.2308 680.083 54.7449 680.083 54.3338C680.083 53.5676 679.299 53.3247 678.682 53.3247C677.28 53.3247 676.402 54.7449 676.402 57.5853C676.402 60.4631 677.075 61.7899 678.719 61.7899C680.027 61.7899 681.223 60.706 681.485 59.3045C681.56 58.9682 681.709 58.7439 681.971 58.7439C682.232 58.7439 682.363 58.9308 682.363 59.2111C682.363 59.4727 682.195 60.0707 682.046 60.3697C681.485 61.7899 679.99 62.799 678.271 62.799C675.617 62.799 673.562 60.7808 673.562 57.6788ZM683.781 57.6788C683.781 54.8196 685.818 52.4838 688.621 52.4838C690.153 52.4838 691.387 53.2312 692.003 54.1095C692.265 54.4646 692.452 55.0065 692.452 55.4176C692.452 56.109 691.985 56.8005 691.05 56.8005C690.34 56.8005 689.854 56.352 689.854 55.6979C689.854 55.2308 690.303 54.7449 690.303 54.3338C690.303 53.5676 689.518 53.3247 688.901 53.3247C687.5 53.3247 686.621 54.7449 686.621 57.5853C686.621 60.4631 687.294 61.7899 688.939 61.7899C690.247 61.7899 691.443 60.706 691.704 59.3045C691.779 58.9682 691.929 58.7439 692.19 58.7439C692.452 58.7439 692.583 58.9308 692.583 59.2111C692.583 59.4727 692.414 60.0707 692.265 60.3697C691.704 61.7899 690.209 62.799 688.49 62.799C685.837 62.799 683.781 60.7808 683.781 57.6788ZM693.982 57.6414C693.982 54.5207 696.224 52.4838 698.915 52.4838C701.606 52.4838 703.849 54.5207 703.849 57.6414C703.849 60.7995 701.606 62.799 698.915 62.799C696.224 62.799 693.982 60.7995 693.982 57.6414ZM696.766 57.6414C696.766 61.0424 697.682 61.9955 698.915 61.9955C700.167 61.9955 701.083 61.0424 701.083 57.6414C701.083 54.259 700.167 53.306 698.915 53.306C697.682 53.306 696.766 54.259 696.766 57.6414ZM720.225 57.6788L719.758 58.5944L720.356 59.1924C721.57 60.4818 722.056 60.9303 722.841 60.9303C723.645 60.9303 724.205 60.351 724.672 59.454L725.252 59.7717C724.654 61.3414 723.589 62.6869 722.056 62.6869C720.748 62.6869 719.814 61.9955 718.543 60.6874C717.59 61.9207 716.245 62.799 714.544 62.799C711.891 62.799 710.227 61.2106 710.227 59.2671C710.227 57.3798 711.554 56.2585 713.46 55.4924L713.628 55.4363C712.582 54.2964 711.853 53.5302 711.853 51.9792C711.853 49.9984 713.46 48.3353 715.852 48.3353C717.87 48.3353 719.309 49.8115 719.309 51.5494C719.309 53.2873 718.225 54.4833 716.469 55.2121L719.16 57.9777L720.019 56.3707C720.617 55.2308 721.421 54.4459 722.523 54.4459C723.551 54.4459 724.149 55.0999 724.149 55.9596C724.149 56.7631 723.663 57.4732 722.841 57.4732C722.15 57.4732 721.664 57.006 721.664 56.3333C721.664 56.1277 721.57 56.0156 721.402 56.0156C721.085 56.0156 720.823 56.5388 720.225 57.6788ZM717.814 59.9025L714.189 56.0343C713.554 56.5575 712.75 57.305 712.75 58.7439C712.75 60.4071 713.703 61.5843 715.273 61.5843C716.394 61.5843 717.254 60.9864 717.945 60.052L717.814 59.9025ZM715.703 54.4085L715.89 54.6141C717.422 53.7919 717.702 52.7641 717.702 51.6429C717.702 50.0731 717.123 49.0827 715.89 49.0827C714.694 49.0827 713.983 50.0358 713.983 51.2878C713.983 52.5211 714.432 53.0631 715.703 54.4085ZM556.692 71.6716L559.514 71.5969C559.664 71.6903 559.738 71.8585 559.738 72.0454C559.738 72.2322 559.664 72.4004 559.514 72.5125H558.225C558.15 72.5125 558.094 72.5686 558.094 72.6433V81.557C558.094 84.1172 557.44 85.5747 556.823 86.5465C556.337 87.3687 555.459 88.1162 554.3 88.1162C553.31 88.1162 552.693 87.5556 552.693 86.752C552.693 86.098 553.161 85.4813 553.871 85.4813C554.88 85.4813 554.973 86.5278 555.553 86.5278C555.982 86.5278 556.281 86.0045 556.281 85.2944C556.281 84.0611 555.291 83.8369 555.291 82.1737V72.6433C555.291 72.5686 555.235 72.5125 555.16 72.5125H553.871C553.721 72.4004 553.665 72.2322 553.665 72.0454C553.665 71.8585 553.721 71.6903 553.871 71.5969L556.692 71.6716ZM560.581 80.6414C560.581 77.5207 562.824 75.4838 565.515 75.4838C568.206 75.4838 570.448 77.5207 570.448 80.6414C570.448 83.7995 568.206 85.799 565.515 85.799C562.824 85.799 560.581 83.7995 560.581 80.6414ZM563.366 80.6414C563.366 84.0424 564.282 84.9955 565.515 84.9955C566.767 84.9955 567.683 84.0424 567.683 80.6414C567.683 77.259 566.767 76.306 565.515 76.306C564.282 76.306 563.366 77.259 563.366 80.6414ZM580.473 85.4626L578.174 85.5374C578.006 85.4439 577.95 85.2758 577.95 85.0889C577.95 84.902 578.006 84.7338 578.174 84.6217H579.109C579.183 84.6217 579.221 84.5657 579.221 84.4909V77.6515C579.221 76.904 578.772 76.5676 578.137 76.5676C576.997 76.5676 576.193 77.6141 575.614 78.5671V84.4909C575.614 84.5657 575.652 84.6217 575.726 84.6217H576.661C576.829 84.7338 576.885 84.902 576.885 85.0889C576.885 85.2758 576.829 85.4439 576.661 85.5374L574.381 85.4626L572.064 85.5374C571.914 85.4439 571.858 85.2758 571.858 85.0889C571.858 84.902 571.914 84.7338 572.064 84.6217H572.998C573.073 84.6217 573.11 84.5657 573.11 84.4909V76.8105C573.11 76.7171 573.054 76.6611 572.979 76.6611H572.064C571.914 76.5676 571.858 76.3994 571.858 76.2126C571.858 76.0257 571.914 75.8575 572.064 75.7641C572.587 75.7828 573.129 75.8201 573.521 75.8201C574.138 75.8201 574.362 75.6706 574.811 75.6706C575.203 75.6706 575.353 75.8949 575.353 76.2686V77.558C575.969 76.6237 577.016 75.4838 578.847 75.4838C580.473 75.4838 581.725 76.3807 581.725 77.8383V84.4909C581.725 84.5657 581.762 84.6217 581.837 84.6217H582.771C582.921 84.7338 582.977 84.902 582.977 85.0889C582.977 85.2758 582.921 85.4439 582.771 85.5374L580.473 85.4626ZM589.934 83.8929H589.822C589.411 84.7338 588.552 85.6682 586.944 85.6682C585.58 85.6682 584.216 84.8086 584.216 82.9399C584.216 79.9313 587.804 78.9035 589.766 78.8848V77.5954C589.766 76.7732 589.392 76.3247 588.383 76.3247C587.243 76.3247 586.702 76.7358 586.702 77.0535C586.702 77.3525 586.982 77.6515 586.982 78.0252C586.982 78.5671 586.459 79.053 585.749 79.053C584.945 79.053 584.459 78.5111 584.459 77.8757C584.459 76.3621 587.001 75.4838 588.776 75.4838C591.093 75.4838 592.27 76.1004 592.27 77.9318V83.8369C592.27 84.2106 592.457 84.3414 592.681 84.3414C592.962 84.3414 593.111 84.1172 593.261 83.8182C593.373 83.5752 593.504 83.4818 593.709 83.4818C593.933 83.4818 594.12 83.65 594.12 83.9116C594.12 84.304 593.485 85.6121 591.84 85.6121C590.57 85.6121 589.934 84.8646 589.934 83.8929ZM587.841 84.304C589.056 84.304 589.654 82.9959 589.766 81.7252V79.6883C588.122 79.707 586.627 80.6414 586.627 82.5661C586.627 83.65 586.888 84.304 587.841 84.304ZM595.808 76.7358H594.817C594.555 76.7358 594.387 76.5489 594.387 76.2873C594.387 76.007 594.574 75.8014 594.929 75.8014C596.387 75.8014 596.704 75.5398 596.873 74.5868C596.985 74.1009 597.134 73.858 597.545 73.858C597.938 73.858 598.143 74.1196 598.143 74.3999V75.8014L600.853 75.708C601.133 75.6893 601.376 75.8949 601.376 76.2686C601.376 76.6424 601.133 76.8292 600.853 76.8292L598.312 76.7358V83.351C598.312 84.2667 598.667 84.6591 599.302 84.6591C599.881 84.6591 600.423 84.2667 600.816 83.7621C600.928 83.6313 601.077 83.4631 601.245 83.4631C601.507 83.4631 601.6 83.6687 601.6 83.8742C601.6 84.248 601.171 84.7151 600.666 85.0515C600.143 85.4253 599.377 85.7056 598.293 85.7056C597.209 85.7056 595.808 85.2571 595.808 83.7247V76.7358ZM610.925 85.4626L608.608 85.5374C608.458 85.4439 608.384 85.2758 608.384 85.0889C608.384 84.902 608.458 84.7338 608.608 84.6217H609.542C609.617 84.6217 609.654 84.5657 609.654 84.4909V77.6515C609.654 76.904 609.225 76.5676 608.571 76.5676C607.431 76.5676 606.627 77.6141 606.067 78.5484V84.4909C606.067 84.5657 606.104 84.6217 606.179 84.6217H607.076C607.244 84.7338 607.3 84.902 607.3 85.0889C607.3 85.2758 607.244 85.4439 607.076 85.5374L604.814 85.4813L602.535 85.5374C602.385 85.4439 602.31 85.2758 602.31 85.0889C602.31 84.902 602.385 84.7338 602.535 84.6217H603.432C603.506 84.6217 603.562 84.5657 603.562 84.4909V72.6433C603.562 72.5686 603.506 72.5125 603.432 72.5125H602.516C602.348 72.4004 602.292 72.2322 602.292 72.0454C602.292 71.8585 602.348 71.6903 602.516 71.5969C603.039 71.6156 603.675 71.6529 604.086 71.6529C604.684 71.6529 605.057 71.5034 605.506 71.5034C605.917 71.5034 606.067 71.7277 606.067 72.1201V77.1656C606.702 76.3247 607.692 75.4838 609.299 75.4838C610.925 75.4838 612.158 76.3807 612.158 77.7636V84.4909C612.158 84.5657 612.196 84.6217 612.271 84.6217H613.205C613.373 84.7338 613.429 84.902 613.429 85.0889C613.429 85.2758 613.373 85.4439 613.205 85.5374L610.925 85.4626ZM620.356 83.8929H620.243C619.832 84.7338 618.973 85.6682 617.366 85.6682C616.001 85.6682 614.637 84.8086 614.637 82.9399C614.637 79.9313 618.225 78.9035 620.187 78.8848V77.5954C620.187 76.7732 619.814 76.3247 618.804 76.3247C617.665 76.3247 617.123 76.7358 617.123 77.0535C617.123 77.3525 617.403 77.6515 617.403 78.0252C617.403 78.5671 616.88 79.053 616.17 79.053C615.366 79.053 614.88 78.5111 614.88 77.8757C614.88 76.3621 617.422 75.4838 619.197 75.4838C621.514 75.4838 622.691 76.1004 622.691 77.9318V83.8369C622.691 84.2106 622.878 84.3414 623.102 84.3414C623.383 84.3414 623.532 84.1172 623.682 83.8182C623.794 83.5752 623.925 83.4818 624.13 83.4818C624.355 83.4818 624.541 83.65 624.541 83.9116C624.541 84.304 623.906 85.6121 622.262 85.6121C620.991 85.6121 620.356 84.8646 620.356 83.8929ZM618.263 84.304C619.477 84.304 620.075 82.9959 620.187 81.7252V79.6883C618.543 79.707 617.048 80.6414 617.048 82.5661C617.048 83.65 617.31 84.304 618.263 84.304ZM633.778 85.4626L631.48 85.5374C631.311 85.4439 631.255 85.2758 631.255 85.0889C631.255 84.902 631.311 84.7338 631.48 84.6217H632.414C632.489 84.6217 632.526 84.5657 632.526 84.4909V77.6515C632.526 76.904 632.078 76.5676 631.442 76.5676C630.302 76.5676 629.499 77.6141 628.92 78.5671V84.4909C628.92 84.5657 628.957 84.6217 629.032 84.6217H629.966C630.134 84.7338 630.19 84.902 630.19 85.0889C630.19 85.2758 630.134 85.4439 629.966 85.5374L627.686 85.4626L625.369 85.5374C625.22 85.4439 625.163 85.2758 625.163 85.0889C625.163 84.902 625.22 84.7338 625.369 84.6217H626.303C626.378 84.6217 626.415 84.5657 626.415 84.4909V76.8105C626.415 76.7171 626.359 76.6611 626.285 76.6611H625.369C625.22 76.5676 625.163 76.3994 625.163 76.2126C625.163 76.0257 625.22 75.8575 625.369 75.7641C625.892 75.7828 626.434 75.8201 626.827 75.8201C627.443 75.8201 627.668 75.6706 628.116 75.6706C628.508 75.6706 628.658 75.8949 628.658 76.2686V77.558C629.275 76.6237 630.321 75.4838 632.152 75.4838C633.778 75.4838 635.03 76.3807 635.03 77.8383V84.4909C635.03 84.5657 635.068 84.6217 635.142 84.6217H636.077C636.226 84.7338 636.282 84.902 636.282 85.0889C636.282 85.2758 636.226 85.4439 636.077 85.5374L633.778 85.4626ZM645.2 85.4626L642.416 85.5374C642.248 85.4439 642.192 85.2758 642.192 85.0889C642.192 84.902 642.248 84.7338 642.416 84.6217H643.687C643.761 84.6217 643.817 84.5657 643.817 84.4909V72.6433C643.817 72.5686 643.761 72.5125 643.687 72.5125H642.416C642.248 72.4004 642.192 72.2322 642.192 72.0454C642.192 71.8585 642.248 71.6903 642.416 71.5969L645.2 71.6716L648.9 71.5969C651.666 71.5969 653.422 73.3161 653.422 75.6893C653.422 78.0626 651.685 79.707 648.62 79.707H646.62V84.4909C646.62 84.5657 646.676 84.6217 646.751 84.6217H648.414C648.564 84.7338 648.639 84.902 648.639 85.0889C648.639 85.2758 648.564 85.4439 648.414 85.5374L645.2 85.4626ZM646.62 78.8661H647.985C649.554 78.8661 650.302 77.4459 650.302 75.6893C650.302 73.8393 649.479 72.4938 648.022 72.4938H646.751C646.676 72.4938 646.62 72.5499 646.62 72.6247V78.8661ZM657.104 85.4813L654.824 85.5374C654.674 85.4439 654.6 85.2758 654.6 85.0889C654.6 84.902 654.674 84.7338 654.824 84.6217H655.721C655.796 84.6217 655.852 84.5657 655.852 84.4909V76.8105C655.852 76.7171 655.796 76.6611 655.721 76.6611H654.805C654.637 76.5676 654.581 76.3994 654.581 76.2126C654.581 76.0257 654.637 75.8575 654.805 75.7641C655.31 75.7828 655.964 75.8201 656.356 75.8201C656.973 75.8201 657.347 75.6706 657.795 75.6706C658.187 75.6706 658.356 75.8949 658.356 76.2686V84.4909C658.356 84.5657 658.393 84.6217 658.468 84.6217H659.365C659.533 84.7338 659.589 84.902 659.589 85.0889C659.589 85.2758 659.533 85.4439 659.365 85.5374L657.104 85.4813ZM657.104 74.3812C656.3 74.3812 655.646 73.7833 655.646 73.0545C655.646 72.2883 656.3 71.709 657.104 71.709C657.926 71.709 658.543 72.2883 658.543 73.0545C658.543 73.7833 657.926 74.3812 657.104 74.3812ZM660.806 80.6788C660.806 77.7636 662.898 75.4838 665.496 75.4838C667.813 75.4838 669.831 77.1282 669.831 80.0434C669.831 80.5853 669.532 80.903 668.99 80.903H663.59C663.59 80.9777 663.609 81.0525 663.609 81.1459C663.609 83.2202 664.281 84.7899 666.075 84.7899C667.365 84.7899 668.617 83.706 668.934 82.3045C669.009 81.9682 669.14 81.7439 669.402 81.7439C669.682 81.7439 669.794 81.9308 669.794 82.2111C669.794 82.4727 669.607 83.052 669.458 83.351C668.878 84.6965 667.327 85.799 665.496 85.799C662.88 85.799 660.806 83.7621 660.806 80.6788ZM663.627 79.95H666.972C667.215 79.95 667.346 79.8192 667.346 79.5762C667.346 77.6888 666.617 76.3247 665.515 76.3247C664.393 76.3247 663.683 77.801 663.627 79.95ZM674.773 76.2686V77.9691C675.315 76.7545 676.399 75.4838 677.726 75.4838C678.922 75.4838 679.632 76.3807 679.632 77.3338C679.632 78.0999 679.127 78.6792 678.417 78.6792C677.707 78.6792 677.389 78.1747 677.277 77.7262C677.165 77.3898 677.109 77.0909 676.773 77.0909C676.231 77.0909 675.483 78.0626 675.035 79.3146V84.4909C675.035 84.5657 675.072 84.6217 675.147 84.6217H676.492C676.642 84.7338 676.717 84.902 676.717 85.0889C676.717 85.2758 676.642 85.4439 676.492 85.5374L673.801 85.4626L671.484 85.5374C671.335 85.4439 671.279 85.2758 671.279 85.0889C671.279 84.902 671.335 84.7338 671.484 84.6217H672.419C672.493 84.6217 672.531 84.5657 672.531 84.4909V76.8105C672.531 76.7171 672.475 76.6611 672.4 76.6611H671.484C671.335 76.5676 671.279 76.3994 671.279 76.2126C671.279 76.0257 671.335 75.8575 671.484 75.7641C672.008 75.7828 672.549 75.8201 672.942 75.8201C673.559 75.8201 673.783 75.6706 674.231 75.6706C674.624 75.6706 674.773 75.8949 674.773 76.2686ZM682.981 85.4813L680.701 85.5374C680.551 85.4439 680.477 85.2758 680.477 85.0889C680.477 84.902 680.551 84.7338 680.701 84.6217H681.598C681.673 84.6217 681.729 84.5657 681.729 84.4909V76.8105C681.729 76.7171 681.673 76.6611 681.598 76.6611H680.682C680.514 76.5676 680.458 76.3994 680.458 76.2126C680.458 76.0257 680.514 75.8575 680.682 75.7641C681.187 75.7828 681.841 75.8201 682.233 75.8201C682.85 75.8201 683.224 75.6706 683.672 75.6706C684.065 75.6706 684.233 75.8949 684.233 76.2686V84.4909C684.233 84.5657 684.27 84.6217 684.345 84.6217H685.242C685.41 84.7338 685.466 84.902 685.466 85.0889C685.466 85.2758 685.41 85.4439 685.242 85.5374L682.981 85.4813ZM682.981 74.3812C682.177 74.3812 681.523 73.7833 681.523 73.0545C681.523 72.2883 682.177 71.709 682.981 71.709C683.803 71.709 684.42 72.2883 684.42 73.0545C684.42 73.7833 683.803 74.3812 682.981 74.3812ZM695.223 85.4626L692.924 85.5374C692.756 85.4439 692.7 85.2758 692.7 85.0889C692.7 84.902 692.756 84.7338 692.924 84.6217H693.858C693.933 84.6217 693.971 84.5657 693.971 84.4909V77.6515C693.971 76.904 693.522 76.5676 692.887 76.5676C691.747 76.5676 690.943 77.6141 690.364 78.5671V84.4909C690.364 84.5657 690.401 84.6217 690.476 84.6217H691.41C691.579 84.7338 691.635 84.902 691.635 85.0889C691.635 85.2758 691.579 85.4439 691.41 85.5374L689.131 85.4626L686.813 85.5374C686.664 85.4439 686.608 85.2758 686.608 85.0889C686.608 84.902 686.664 84.7338 686.813 84.6217H687.748C687.823 84.6217 687.86 84.5657 687.86 84.4909V76.8105C687.86 76.7171 687.804 76.6611 687.729 76.6611H686.813C686.664 76.5676 686.608 76.3994 686.608 76.2126C686.608 76.0257 686.664 75.8575 686.813 75.7641C687.337 75.7828 687.879 75.8201 688.271 75.8201C688.888 75.8201 689.112 75.6706 689.56 75.6706C689.953 75.6706 690.102 75.8949 690.102 76.2686V77.558C690.719 76.6237 691.766 75.4838 693.597 75.4838C695.223 75.4838 696.475 76.3807 696.475 77.8383V84.4909C696.475 84.5657 696.512 84.6217 696.587 84.6217H697.521C697.671 84.7338 697.727 84.902 697.727 85.0889C697.727 85.2758 697.671 85.4439 697.521 85.5374L695.223 85.4626ZM701.339 85.4813L699.059 85.5374C698.91 85.4439 698.835 85.2758 698.835 85.0889C698.835 84.902 698.91 84.7338 699.059 84.6217H699.956C700.031 84.6217 700.087 84.5657 700.087 84.4909V76.8105C700.087 76.7171 700.031 76.6611 699.956 76.6611H699.041C698.873 76.5676 698.817 76.3994 698.817 76.2126C698.817 76.0257 698.873 75.8575 699.041 75.7641C699.545 75.7828 700.199 75.8201 700.592 75.8201C701.208 75.8201 701.582 75.6706 702.031 75.6706C702.423 75.6706 702.591 75.8949 702.591 76.2686V84.4909C702.591 84.5657 702.629 84.6217 702.703 84.6217H703.6C703.769 84.7338 703.825 84.902 703.825 85.0889C703.825 85.2758 703.769 85.4439 703.6 85.5374L701.339 85.4813ZM701.339 74.3812C700.536 74.3812 699.882 73.7833 699.882 73.0545C699.882 72.2883 700.536 71.709 701.339 71.709C702.161 71.709 702.778 72.2883 702.778 73.0545C702.778 73.7833 702.161 74.3812 701.339 74.3812Z" fill="#9B2A16"/>
<path d="M743.873 58.049C743.873 52.2912 748.834 49.3301 752.39 49.3301C756.69 49.3301 759.336 52.4557 759.336 56.1572C759.336 61.6682 754.457 64.7939 750.736 64.7939C746.519 64.7939 743.873 61.6682 743.873 58.049Z" fill="#455B16"/>
<path d="M743.873 78.9251C743.873 73.1673 748.834 70.2062 752.39 70.2062C756.69 70.2062 759.336 73.3318 759.336 77.0333C759.336 82.5443 754.457 85.67 750.736 85.67C746.519 85.67 743.873 82.5443 743.873 78.9251Z" fill="#455B16"/>
<path d="M416.223 156.095C415.845 155.858 415.703 155.432 415.703 154.959C415.703 154.486 415.845 154.061 416.223 153.777H418.636C418.825 153.777 418.967 153.635 418.967 153.446V123.267C418.967 123.078 418.825 122.936 418.636 122.936H416.223C415.845 122.7 415.703 122.274 415.703 121.801C415.703 121.328 415.845 120.902 416.223 120.619L423.839 120.855H444.273L451.841 120.619C452.267 120.902 452.409 121.328 452.409 121.801C452.409 122.274 452.267 122.7 451.841 122.936H449.476C449.287 122.936 449.145 123.078 449.145 123.267V153.446C449.145 153.635 449.287 153.777 449.476 153.777H451.841C452.267 154.061 452.409 154.486 452.409 154.959C452.409 155.432 452.267 155.858 451.841 156.095L444.273 155.905L436.705 156.095C436.279 155.858 436.137 155.432 436.137 154.959C436.137 154.486 436.279 154.061 436.705 153.777H439.07C439.259 153.777 439.401 153.635 439.401 153.446V123.93C439.401 123.74 439.259 123.598 439.07 123.598H428.995C428.805 123.598 428.663 123.74 428.663 123.93V153.446C428.663 153.635 428.805 153.777 428.995 153.777H431.407C431.833 154.061 431.975 154.486 431.975 154.959C431.975 155.432 431.833 155.858 431.407 156.095L423.839 155.905L416.223 156.095ZM463.792 155.905L456.319 156.095C455.94 155.858 455.798 155.432 455.798 154.959C455.798 154.486 455.94 154.061 456.319 153.777H458.731C458.92 153.777 459.062 153.635 459.062 153.446V123.267C459.062 123.078 458.92 122.936 458.731 122.936H456.319C455.94 122.7 455.798 122.274 455.798 121.801C455.798 121.328 455.94 120.902 456.319 120.619L463.934 120.855L473.725 120.571C480.726 120.571 485.74 125.207 485.74 131.356C485.74 137.505 480.726 141.762 472.921 141.762H468.759V153.446C468.759 153.635 468.901 153.777 469.09 153.777H472.448C472.874 154.061 473.016 154.486 473.016 154.959C473.016 155.432 472.874 155.858 472.448 156.095L463.792 155.905ZM468.759 139.681H469.799C473.489 139.681 475.003 135.755 475.003 131.356C475.003 126.626 473.063 122.889 469.847 122.889H469.09C468.901 122.889 468.759 123.031 468.759 123.22V139.681ZM488.469 156.095C488.09 155.858 487.948 155.432 487.948 154.959C487.948 154.486 488.09 154.061 488.469 153.777H490.881C491.07 153.777 491.212 153.635 491.212 153.446V123.267C491.212 123.078 491.07 122.936 490.881 122.936H488.469C488.09 122.7 487.948 122.274 487.948 121.801C487.948 121.328 488.09 120.902 488.469 120.619L496.084 120.855L503.653 120.619C504.078 120.902 504.22 121.328 504.22 121.801C504.22 122.274 504.078 122.7 503.653 122.936H501.24C501.051 122.936 500.909 123.078 500.909 123.267V146.351L512.687 124.355V123.315C512.687 123.078 512.545 122.936 512.356 122.936H509.944C509.565 122.7 509.423 122.274 509.423 121.801C509.423 121.328 509.565 120.902 509.944 120.619L517.559 120.855L525.127 120.619C525.506 120.902 525.695 121.328 525.695 121.801C525.695 122.274 525.506 122.7 525.127 122.936H522.715C522.526 122.936 522.384 123.078 522.384 123.267V153.446C522.384 153.635 522.526 153.777 522.715 153.777H525.127C525.506 154.061 525.695 154.486 525.695 154.959C525.695 155.432 525.506 155.858 525.127 156.095L517.559 155.905L509.944 156.095C509.565 155.858 509.423 155.432 509.423 154.959C509.423 154.486 509.565 154.061 509.944 153.777H512.356C512.545 153.777 512.687 153.635 512.687 153.446V130.41L500.909 152.405V153.446C500.909 153.635 501.051 153.777 501.24 153.777H503.653C504.078 154.061 504.22 154.486 504.22 154.959C504.22 155.432 504.078 155.858 503.653 156.095L496.084 155.905L488.469 156.095Z" fill="#9B2A16"/>
<path d="M541.908 133.537C541.74 133.444 541.684 133.276 541.684 133.089C541.684 132.902 541.74 132.734 541.908 132.622H543.179C543.254 132.622 543.31 132.566 543.31 132.491V120.643C543.31 120.569 543.254 120.513 543.179 120.513H541.908C541.74 120.4 541.684 120.232 541.684 120.045C541.684 119.858 541.74 119.69 541.908 119.597L544.73 119.672L547.533 119.597C547.682 119.69 547.757 119.858 547.757 120.045C547.757 120.232 547.682 120.4 547.533 120.513H546.243C546.169 120.513 546.113 120.569 546.113 120.643V130.174L551.793 120.886C551.793 120.868 551.793 120.606 551.775 120.606C551.775 120.55 551.719 120.513 551.663 120.513H550.373C550.224 120.4 550.149 120.232 550.149 120.045C550.149 119.858 550.224 119.69 550.373 119.597L553.195 119.672L556.017 119.597C556.166 119.69 556.222 119.858 556.222 120.045C556.222 120.232 556.166 120.4 556.017 120.513H554.727C554.653 120.513 554.597 120.569 554.597 120.643V132.491C554.597 132.566 554.653 132.622 554.727 132.622H556.017C556.166 132.734 556.222 132.902 556.222 133.089C556.222 133.276 556.166 133.444 556.017 133.537L553.195 133.463L550.373 133.537C550.224 133.444 550.149 133.276 550.149 133.089C550.149 132.902 550.224 132.734 550.373 132.622H551.663C551.737 132.622 551.793 132.566 551.793 132.491V122.942L546.113 132.248C546.113 132.248 546.113 132.528 546.131 132.528C546.131 132.584 546.187 132.622 546.243 132.622H547.533C547.682 132.734 547.757 132.902 547.757 133.089C547.757 133.276 547.682 133.444 547.533 133.537L544.73 133.463L541.908 133.537ZM559.711 137.555L557.412 137.611C557.244 137.499 557.188 137.35 557.188 137.163C557.188 136.976 557.244 136.808 557.412 136.695H558.347C558.421 136.695 558.459 136.639 558.459 136.565V124.811C558.459 124.736 558.403 124.68 558.328 124.68H557.412C557.244 124.568 557.188 124.399 557.188 124.213C557.188 124.026 557.244 123.858 557.412 123.764C557.936 123.783 558.459 123.82 558.87 123.82C559.487 123.82 559.692 123.671 560.141 123.671C560.552 123.671 560.682 123.895 560.682 124.287V125.651C561.299 124.549 562.458 123.484 563.934 123.484C566.12 123.484 567.858 125.446 567.858 128.585C567.858 131.725 565.765 133.799 563.429 133.799C562.346 133.799 561.542 133.425 560.963 132.79V136.565C560.963 136.639 561 136.695 561.075 136.695H562.402C562.57 136.808 562.626 136.976 562.626 137.163C562.626 137.35 562.57 137.499 562.402 137.611L559.711 137.555ZM563.429 124.568C562.533 124.568 561.766 125.24 560.963 126.586V131.482C561.449 132.416 562.103 132.771 562.888 132.771C564.233 132.771 565.074 131.818 565.074 128.585C565.074 125.315 564.457 124.568 563.429 124.568ZM569.517 133.537C569.368 133.444 569.293 133.276 569.293 133.089C569.293 132.902 569.368 132.734 569.517 132.622H570.414C570.489 132.622 570.526 132.566 570.526 132.491V124.829C570.526 124.754 570.489 124.698 570.414 124.698H569.517C569.368 124.605 569.293 124.437 569.293 124.25C569.293 124.063 569.368 123.895 569.517 123.801L571.797 123.858L574.058 123.801C574.226 123.895 574.282 124.063 574.282 124.25C574.282 124.437 574.226 124.605 574.058 124.698H573.142C573.086 124.698 573.049 124.754 573.049 124.829V130.828L576.655 124.96V124.829C576.655 124.754 576.599 124.698 576.525 124.698H575.646C575.478 124.605 575.422 124.437 575.422 124.25C575.422 124.063 575.478 123.895 575.646 123.801L577.908 123.858L580.187 123.801C580.337 123.895 580.393 124.063 580.393 124.25C580.393 124.437 580.337 124.605 580.187 124.698H579.272C579.216 124.698 579.16 124.754 579.16 124.829V132.491C579.16 132.566 579.216 132.622 579.272 132.622H580.187C580.337 132.734 580.393 132.902 580.393 133.089C580.393 133.276 580.337 133.444 580.187 133.537L577.908 133.481L575.646 133.537C575.478 133.444 575.422 133.276 575.422 133.089C575.422 132.902 575.478 132.734 575.646 132.622H576.525C576.599 132.622 576.655 132.566 576.655 132.491V126.511L573.049 132.379V132.51C573.049 132.584 573.105 132.622 573.142 132.622H574.058C574.226 132.734 574.282 132.902 574.282 133.089C574.282 133.276 574.226 133.444 574.058 133.537L571.797 133.481L569.517 133.537ZM581.981 133.537C581.832 133.444 581.757 133.276 581.757 133.089C581.757 132.902 581.832 132.734 581.981 132.622H582.878C582.953 132.622 582.99 132.566 582.99 132.491V124.829C582.99 124.754 582.953 124.698 582.878 124.698H581.981C581.832 124.605 581.757 124.437 581.757 124.25C581.757 124.063 581.832 123.895 581.981 123.801L584.261 123.858L586.522 123.801C586.69 123.895 586.746 124.063 586.746 124.25C586.746 124.437 586.69 124.605 586.522 124.698H585.606C585.55 124.698 585.513 124.754 585.513 124.829V128.212H588.895V124.829C588.895 124.754 588.858 124.698 588.783 124.698H587.886C587.737 124.605 587.662 124.437 587.662 124.25C587.662 124.063 587.737 123.895 587.886 123.801L590.166 123.858L592.427 123.801C592.595 123.895 592.651 124.063 592.651 124.25C592.651 124.437 592.595 124.605 592.427 124.698H591.512C591.455 124.698 591.418 124.754 591.418 124.829V132.491C591.418 132.566 591.455 132.622 591.512 132.622H592.427C592.595 132.734 592.651 132.902 592.651 133.089C592.651 133.276 592.595 133.444 592.427 133.537L590.166 133.481L587.886 133.537C587.737 133.444 587.662 133.276 587.662 133.089C587.662 132.902 587.737 132.734 587.886 132.622H588.783C588.858 132.622 588.895 132.566 588.895 132.491V129.034H585.513V132.491C585.513 132.566 585.55 132.622 585.606 132.622H586.522C586.69 132.734 586.746 132.902 586.746 133.089C586.746 133.276 586.69 133.444 586.522 133.537L584.261 133.481L581.981 133.537ZM599.87 131.893H599.758C599.346 132.734 598.487 133.668 596.88 133.668C595.516 133.668 594.151 132.809 594.151 130.94C594.151 127.931 597.739 126.903 599.702 126.885V125.595C599.702 124.773 599.328 124.325 598.319 124.325C597.179 124.325 596.637 124.736 596.637 125.053C596.637 125.352 596.917 125.651 596.917 126.025C596.917 126.567 596.394 127.053 595.684 127.053C594.88 127.053 594.394 126.511 594.394 125.876C594.394 124.362 596.936 123.484 598.711 123.484C601.028 123.484 602.206 124.1 602.206 125.932V131.837C602.206 132.211 602.392 132.341 602.617 132.341C602.897 132.341 603.047 132.117 603.196 131.818C603.308 131.575 603.439 131.482 603.644 131.482C603.869 131.482 604.056 131.65 604.056 131.912C604.056 132.304 603.42 133.612 601.776 133.612C600.505 133.612 599.87 132.865 599.87 131.893ZM597.777 132.304C598.991 132.304 599.589 130.996 599.702 129.725V127.688C598.057 127.707 596.562 128.641 596.562 130.566C596.562 131.65 596.824 132.304 597.777 132.304ZM615.608 133.799C612.431 133.799 609.554 131.089 609.554 126.604C609.554 122.213 612.581 119.335 615.702 119.335C616.954 119.335 617.795 119.728 618.467 120.064C618.71 120.195 618.916 120.326 619.159 120.326C619.402 120.326 619.476 120.176 619.476 119.933V119.728C619.476 119.559 619.57 119.429 619.813 119.429C620.037 119.429 620.131 119.578 620.187 119.69L620.392 124.343C620.317 124.512 620.149 124.568 619.962 124.568C619.794 124.568 619.626 124.512 619.533 124.343L619.458 123.428C619.29 121.391 617.589 120.195 615.982 120.195C613.683 120.195 612.656 122.045 612.656 126.604C612.656 131.332 613.721 132.921 616.131 132.921C617.795 132.921 619.29 131.725 619.476 129.464L619.551 128.529C619.645 128.361 619.813 128.305 620 128.305C620.168 128.305 620.336 128.361 620.429 128.529L620.28 133.444C620.224 133.556 620.112 133.706 619.888 133.706C619.663 133.706 619.551 133.575 619.551 133.407V133.22C619.551 132.958 619.495 132.809 619.234 132.809C618.972 132.809 618.729 132.958 618.467 133.108C617.72 133.5 616.916 133.799 615.608 133.799ZM628.029 133.687C627.805 133.687 627.524 133.537 627.431 133.238L624.553 125.072C624.534 124.997 624.497 124.923 624.441 124.923C624.404 124.923 624.366 124.96 624.366 125.11V132.547C624.366 132.603 624.385 132.622 624.441 132.622H625.431C625.581 132.734 625.637 132.902 625.637 133.089C625.637 133.276 625.581 133.425 625.431 133.537L623.806 133.481L622.311 133.537C622.161 133.444 622.105 133.276 622.105 133.089C622.105 132.902 622.161 132.734 622.311 132.622H623.301C623.357 132.622 623.394 132.603 623.394 132.547V124.829C623.394 124.754 623.357 124.698 623.282 124.698H622.292C622.124 124.605 622.068 124.437 622.068 124.25C622.068 124.063 622.124 123.895 622.292 123.801L623.693 123.839L626.16 123.783C626.496 123.783 626.59 123.839 626.777 124.325L628.702 129.781C628.739 129.875 628.795 129.931 628.814 129.931C628.87 129.931 628.926 129.875 628.963 129.763L630.907 124.157C631.019 123.895 631.168 123.801 631.691 123.801C631.86 123.783 631.916 123.801 632.159 123.82L635.261 123.801C635.429 123.895 635.485 124.063 635.485 124.25C635.485 124.437 635.429 124.605 635.261 124.698H634.364C634.308 124.698 634.252 124.754 634.252 124.829V132.491C634.252 132.566 634.308 132.622 634.364 132.622H635.261C635.429 132.734 635.485 132.902 635.485 133.089C635.485 133.276 635.429 133.444 635.261 133.537L633 133.481L630.869 133.537C630.72 133.444 630.664 133.276 630.664 133.089C630.664 132.902 630.72 132.734 630.869 132.622H631.617C631.691 132.622 631.748 132.566 631.748 132.491V124.904C631.748 124.754 631.729 124.698 631.654 124.698C631.542 124.698 631.505 124.867 631.449 125.035L628.645 133.238C628.552 133.537 628.29 133.687 628.029 133.687ZM637.057 133.537C636.907 133.444 636.832 133.276 636.832 133.089C636.832 132.902 636.907 132.734 637.057 132.622H637.954C638.028 132.622 638.066 132.566 638.066 132.491V124.829C638.066 124.754 638.028 124.698 637.954 124.698H637.057C636.907 124.605 636.832 124.437 636.832 124.25C636.832 124.063 636.907 123.895 637.057 123.801L639.337 123.858L641.598 123.801C641.766 123.895 641.822 124.063 641.822 124.25C641.822 124.437 641.766 124.605 641.598 124.698H640.682C640.626 124.698 640.589 124.754 640.589 124.829V130.828L644.195 124.96V124.829C644.195 124.754 644.139 124.698 644.064 124.698H643.186C643.018 124.605 642.962 124.437 642.962 124.25C642.962 124.063 643.018 123.895 643.186 123.801L645.447 123.858L647.727 123.801C647.876 123.895 647.933 124.063 647.933 124.25C647.933 124.437 647.876 124.605 647.727 124.698H646.811C646.755 124.698 646.699 124.754 646.699 124.829V132.491C646.699 132.566 646.755 132.622 646.811 132.622H647.727C647.876 132.734 647.933 132.902 647.933 133.089C647.933 133.276 647.876 133.444 647.727 133.537L645.447 133.481L643.186 133.537C643.018 133.444 642.962 133.276 642.962 133.089C642.962 132.902 643.018 132.734 643.186 132.622H644.064C644.139 132.622 644.195 132.566 644.195 132.491V126.511L640.589 132.379V132.51C640.589 132.584 640.645 132.622 640.682 132.622H641.598C641.766 132.734 641.822 132.902 641.822 133.089C641.822 133.276 641.766 133.444 641.598 133.537L639.337 133.481L637.057 133.537ZM651.576 137.555L649.278 137.611C649.11 137.499 649.054 137.35 649.054 137.163C649.054 136.976 649.11 136.808 649.278 136.695H650.212C650.287 136.695 650.324 136.639 650.324 136.565V124.811C650.324 124.736 650.268 124.68 650.194 124.68H649.278C649.11 124.568 649.054 124.399 649.054 124.213C649.054 124.026 649.11 123.858 649.278 123.764C649.801 123.783 650.324 123.82 650.735 123.82C651.352 123.82 651.558 123.671 652.006 123.671C652.417 123.671 652.548 123.895 652.548 124.287V125.651C653.165 124.549 654.323 123.484 655.8 123.484C657.986 123.484 659.724 125.446 659.724 128.585C659.724 131.725 657.631 133.799 655.295 133.799C654.211 133.799 653.408 133.425 652.828 132.79V136.565C652.828 136.639 652.866 136.695 652.94 136.695H654.267C654.435 136.808 654.492 136.976 654.492 137.163C654.492 137.35 654.435 137.499 654.267 137.611L651.576 137.555ZM655.295 124.568C654.398 124.568 653.632 125.24 652.828 126.586V131.482C653.314 132.416 653.968 132.771 654.753 132.771C656.099 132.771 656.94 131.818 656.94 128.585C656.94 125.315 656.323 124.568 655.295 124.568ZM661.383 133.537C661.233 133.444 661.158 133.276 661.158 133.089C661.158 132.902 661.233 132.734 661.383 132.622H662.28C662.354 132.622 662.392 132.566 662.392 132.491V124.829C662.392 124.754 662.354 124.698 662.28 124.698H661.383C661.233 124.605 661.158 124.437 661.158 124.25C661.158 124.063 661.233 123.895 661.383 123.801L663.662 123.858L665.924 123.801C666.092 123.895 666.148 124.063 666.148 124.25C666.148 124.437 666.092 124.605 665.924 124.698H665.008C664.952 124.698 664.914 124.754 664.914 124.829V128.212H668.297V124.829C668.297 124.754 668.259 124.698 668.185 124.698H667.288C667.138 124.605 667.063 124.437 667.063 124.25C667.063 124.063 667.138 123.895 667.288 123.801L669.568 123.858L671.829 123.801C671.997 123.895 672.053 124.063 672.053 124.25C672.053 124.437 671.997 124.605 671.829 124.698H670.913C670.857 124.698 670.82 124.754 670.82 124.829V132.491C670.82 132.566 670.857 132.622 670.913 132.622H671.829C671.997 132.734 672.053 132.902 672.053 133.089C672.053 133.276 671.997 133.444 671.829 133.537L669.568 133.481L667.288 133.537C667.138 133.444 667.063 133.276 667.063 133.089C667.063 132.902 667.138 132.734 667.288 132.622H668.185C668.259 132.622 668.297 132.566 668.297 132.491V129.034H664.914V132.491C664.914 132.566 664.952 132.622 665.008 132.622H665.924C666.092 132.734 666.148 132.902 666.148 133.089C666.148 133.276 666.092 133.444 665.924 133.537L663.662 133.481L661.383 133.537ZM673.46 128.641C673.46 125.521 675.702 123.484 678.393 123.484C681.084 123.484 683.326 125.521 683.326 128.641C683.326 131.799 681.084 133.799 678.393 133.799C675.702 133.799 673.46 131.799 673.46 128.641ZM676.244 128.641C676.244 132.042 677.16 132.995 678.393 132.995C679.645 132.995 680.561 132.042 680.561 128.641C680.561 125.259 679.645 124.306 678.393 124.306C677.16 124.306 676.244 125.259 676.244 128.641ZM684.979 133.519C684.811 133.425 684.755 133.257 684.755 133.07C684.755 132.883 684.811 132.715 684.979 132.622H685.839C685.913 132.622 685.951 132.566 685.951 132.491V124.829C685.951 124.754 685.913 124.698 685.839 124.698H684.979C684.811 124.605 684.755 124.437 684.755 124.25C684.755 124.063 684.811 123.895 684.979 123.801L687.221 123.858L689.464 123.801C691.949 123.801 693.313 124.642 693.332 126.231C693.313 127.464 692.491 128.099 691.221 128.361C691.164 128.38 691.052 128.398 691.052 128.436C691.052 128.455 691.146 128.492 691.221 128.492C692.715 128.66 693.725 129.333 693.725 130.641C693.725 132.341 692.23 133.519 689.632 133.519L687.221 133.463L684.979 133.519ZM688.455 128.081H689.202C690.267 128.081 690.922 127.483 690.922 126.306C690.922 125.222 690.361 124.698 689.24 124.698H688.567C688.511 124.698 688.455 124.754 688.455 124.829V128.081ZM688.604 132.603H689.389C690.66 132.603 691.202 131.893 691.202 130.697C691.202 129.464 690.641 128.866 689.277 128.866H688.455V132.472C688.455 132.547 688.511 132.603 688.604 132.603ZM701.024 131.893H700.912C700.501 132.734 699.641 133.668 698.034 133.668C696.67 133.668 695.306 132.809 695.306 130.94C695.306 127.931 698.894 126.903 700.856 126.885V125.595C700.856 124.773 700.482 124.325 699.473 124.325C698.333 124.325 697.791 124.736 697.791 125.053C697.791 125.352 698.071 125.651 698.071 126.025C698.071 126.567 697.548 127.053 696.838 127.053C696.035 127.053 695.549 126.511 695.549 125.876C695.549 124.362 698.09 123.484 699.865 123.484C702.183 123.484 703.36 124.1 703.36 125.932V131.837C703.36 132.211 703.547 132.341 703.771 132.341C704.051 132.341 704.201 132.117 704.35 131.818C704.462 131.575 704.593 131.482 704.799 131.482C705.023 131.482 705.21 131.65 705.21 131.912C705.21 132.304 704.575 133.612 702.93 133.612C701.659 133.612 701.024 132.865 701.024 131.893ZM698.931 132.304C700.146 132.304 700.744 130.996 700.856 129.725V127.688C699.211 127.707 697.716 128.641 697.716 130.566C697.716 131.65 697.978 132.304 698.931 132.304ZM720.78 128.679L720.313 129.594L720.911 130.192C722.126 131.482 722.612 131.93 723.396 131.93C724.2 131.93 724.761 131.351 725.228 130.454L725.807 130.772C725.209 132.341 724.144 133.687 722.612 133.687C721.304 133.687 720.369 132.995 719.098 131.687C718.145 132.921 716.8 133.799 715.099 133.799C712.446 133.799 710.783 132.211 710.783 130.267C710.783 128.38 712.11 127.259 714.016 126.492L714.184 126.436C713.137 125.296 712.409 124.53 712.409 122.979C712.409 120.998 714.016 119.335 716.408 119.335C718.426 119.335 719.865 120.812 719.865 122.549C719.865 124.287 718.781 125.483 717.024 126.212L719.715 128.978L720.575 127.371C721.173 126.231 721.976 125.446 723.079 125.446C724.107 125.446 724.705 126.1 724.705 126.96C724.705 127.763 724.219 128.473 723.396 128.473C722.705 128.473 722.219 128.006 722.219 127.333C722.219 127.128 722.126 127.016 721.958 127.016C721.64 127.016 721.378 127.539 720.78 128.679ZM718.37 130.903L714.744 127.034C714.109 127.558 713.305 128.305 713.305 129.744C713.305 131.407 714.259 132.584 715.828 132.584C716.949 132.584 717.809 131.986 718.5 131.052L718.37 130.903ZM716.258 125.409L716.445 125.614C717.977 124.792 718.258 123.764 718.258 122.643C718.258 121.073 717.678 120.083 716.445 120.083C715.249 120.083 714.539 121.036 714.539 122.288C714.539 123.521 714.987 124.063 716.258 125.409ZM541.908 156.537C541.74 156.444 541.684 156.276 541.684 156.089C541.684 155.902 541.74 155.734 541.908 155.622H543.179C543.254 155.622 543.31 155.566 543.31 155.491V143.643C543.31 143.569 543.254 143.513 543.179 143.513H541.908C541.74 143.4 541.684 143.232 541.684 143.045C541.684 142.858 541.74 142.69 541.908 142.597L544.73 142.672L547.533 142.597C547.682 142.69 547.757 142.858 547.757 143.045C547.757 143.232 547.682 143.4 547.533 143.513H546.243C546.169 143.513 546.113 143.569 546.113 143.643V153.174L551.793 143.886C551.793 143.868 551.793 143.606 551.775 143.606C551.775 143.55 551.719 143.513 551.663 143.513H550.373C550.224 143.4 550.149 143.232 550.149 143.045C550.149 142.858 550.224 142.69 550.373 142.597L553.195 142.672L556.017 142.597C556.166 142.69 556.222 142.858 556.222 143.045C556.222 143.232 556.166 143.4 556.017 143.513H554.727C554.653 143.513 554.597 143.569 554.597 143.643V155.491C554.597 155.566 554.653 155.622 554.727 155.622H556.017C556.166 155.734 556.222 155.902 556.222 156.089C556.222 156.276 556.166 156.444 556.017 156.537L553.195 156.463L550.373 156.537C550.224 156.444 550.149 156.276 550.149 156.089C550.149 155.902 550.224 155.734 550.373 155.622H551.663C551.737 155.622 551.793 155.566 551.793 155.491V145.942L546.113 155.248C546.113 155.248 546.113 155.528 546.131 155.528C546.131 155.584 546.187 155.622 546.243 155.622H547.533C547.682 155.734 547.757 155.902 547.757 156.089C547.757 156.276 547.682 156.444 547.533 156.537L544.73 156.463L541.908 156.537ZM558.883 156.687C557.706 156.687 557.071 156.126 557.071 155.024C557.071 154.37 557.426 153.884 558.042 153.884C558.678 153.884 559.051 154.258 559.051 154.762C559.051 155.173 558.79 155.304 558.79 155.603C558.79 155.753 558.865 155.921 559.089 155.921C559.481 155.921 559.818 155.229 560.117 153.641C560.247 152.931 560.36 152.09 560.472 151.23L560.715 148.446C560.752 147.904 560.64 147.698 560.079 147.698H559.481C559.294 147.642 559.201 147.455 559.201 147.269C559.201 147.044 559.294 146.858 559.5 146.801L561.836 146.858H565.143L567.405 146.801C567.554 146.895 567.61 147.063 567.61 147.25C567.61 147.437 567.554 147.605 567.405 147.698H566.489C566.433 147.698 566.377 147.754 566.377 147.848V155.491C566.377 155.566 566.433 155.622 566.489 155.622H567.405C567.554 155.734 567.61 155.902 567.61 156.089C567.61 156.276 567.554 156.444 567.405 156.537L565.143 156.481L562.92 156.537C562.751 156.444 562.695 156.276 562.695 156.089C562.695 155.902 562.751 155.734 562.92 155.622H563.761C563.835 155.622 563.873 155.566 563.873 155.491V147.811C563.873 147.736 563.817 147.68 563.742 147.68H562.34C561.724 147.68 561.668 147.885 561.63 148.446C561.518 149.679 561.462 150.614 561.387 151.23C561.275 152.109 561.182 153.006 561.032 153.79C560.659 155.771 560.117 156.687 558.883 156.687ZM569.207 156.519C569.057 156.425 568.983 156.257 568.983 156.07C568.983 155.883 569.057 155.715 569.207 155.622H570.104C570.179 155.622 570.216 155.566 570.216 155.491V147.829C570.216 147.754 570.179 147.698 570.104 147.698H569.207C569.057 147.605 568.983 147.437 568.983 147.25C568.983 147.063 569.057 146.895 569.207 146.801L571.487 146.858L573.897 146.801C574.047 146.895 574.103 147.063 574.103 147.25C574.103 147.437 574.047 147.605 573.897 147.698H572.832C572.776 147.698 572.739 147.754 572.739 147.829V150.595H573.729C576.065 150.614 577.896 151.342 577.896 153.379C577.896 155.267 576.383 156.519 573.823 156.519L571.487 156.463L569.207 156.519ZM572.869 155.622H573.636C574.85 155.622 575.374 154.818 575.374 153.417C575.374 152.071 574.813 151.417 573.524 151.417H572.739V155.491C572.739 155.566 572.776 155.622 572.869 155.622ZM580.533 156.743C578.795 156.743 578.608 155.173 578.664 153.94C578.683 153.566 578.907 153.248 579.15 153.267C579.412 153.267 579.431 153.529 579.431 153.734C579.393 154.706 579.505 155.79 579.935 155.79C580.216 155.79 580.346 155.547 580.421 154.93C580.496 154.388 580.571 153.846 580.776 153.267C581.131 152.37 581.617 151.866 582.776 151.828C582.869 151.81 582.906 151.754 582.906 151.679C582.906 151.641 582.869 151.585 582.776 151.585C581.075 151.529 580.103 150.95 580.103 149.399C580.103 147.736 581.598 146.801 584.102 146.801L586.401 146.858L588.643 146.801C588.793 146.895 588.868 147.063 588.868 147.25C588.868 147.437 588.793 147.605 588.643 147.698H587.784C587.709 147.698 587.653 147.754 587.653 147.829V155.491C587.653 155.566 587.709 155.622 587.784 155.622H588.643C588.793 155.715 588.868 155.883 588.868 156.07C588.868 156.257 588.793 156.425 588.643 156.519C588.718 156.519 586.326 156.463 586.401 156.463C586.476 156.463 583.953 156.519 584.028 156.519C583.878 156.425 583.822 156.257 583.822 156.07C583.822 155.883 583.878 155.715 584.028 155.622H585.037C585.112 155.622 585.149 155.566 585.149 155.491V152.052H584.7C583.71 152.052 583.448 152.464 583.187 153.66L583.037 154.5C582.757 155.958 582.178 156.743 580.533 156.743ZM584.457 151.23H585.149V147.848C585.149 147.773 585.112 147.717 585.018 147.717H584.327C583.243 147.717 582.645 148.072 582.645 149.53C582.645 150.819 583.075 151.23 584.457 151.23ZM598.053 156.463L595.268 156.537C595.1 156.444 595.044 156.276 595.044 156.089C595.044 155.902 595.1 155.734 595.268 155.622H596.539C596.614 155.622 596.67 155.566 596.67 155.491V143.643C596.67 143.569 596.614 143.513 596.539 143.513H595.268C595.1 143.4 595.044 143.232 595.044 143.045C595.044 142.858 595.1 142.69 595.268 142.597L598.053 142.672L601.753 142.597C604.518 142.597 606.275 144.316 606.275 146.689C606.275 149.063 604.537 150.707 601.472 150.707H599.473V155.491C599.473 155.566 599.529 155.622 599.604 155.622H601.267C601.416 155.734 601.491 155.902 601.491 156.089C601.491 156.276 601.416 156.444 601.267 156.537L598.053 156.463ZM599.473 149.866H600.837C602.407 149.866 603.154 148.446 603.154 146.689C603.154 144.839 602.332 143.494 600.874 143.494H599.604C599.529 143.494 599.473 143.55 599.473 143.625V149.866ZM615.151 146.82L616.665 146.745C616.815 146.876 616.871 147.007 616.871 147.194C616.871 147.381 616.815 147.549 616.665 147.661H616.03C615.88 147.661 615.787 147.736 615.731 147.904L611.414 158.948C610.966 160.144 610.05 160.574 609.34 160.574C608.592 160.574 607.976 160.107 607.976 159.453C607.976 158.929 608.368 158.425 608.947 158.425C609.788 158.425 609.732 159.228 610.125 159.228C610.274 159.228 610.442 158.817 610.536 158.574L611.339 156.519L607.976 147.904C607.92 147.736 607.864 147.661 607.733 147.661H607.041C606.892 147.549 606.836 147.381 606.836 147.194C606.836 147.007 606.892 146.876 607.041 146.745L609.284 146.82L611.713 146.745C611.863 146.876 611.919 147.007 611.919 147.194C611.919 147.381 611.863 147.549 611.713 147.661H610.704C610.61 147.661 610.536 147.717 610.536 147.829C610.536 147.885 610.554 147.979 610.592 148.072L612.591 153.323L614.385 148.726C614.553 148.278 614.684 147.997 614.684 147.848C614.684 147.68 614.61 147.661 614.441 147.661H613.357C613.208 147.549 613.152 147.381 613.152 147.194C613.152 147.007 613.208 146.876 613.357 146.745L615.151 146.82ZM617.452 158.929C617.266 158.929 617.116 158.836 617.023 158.686V156.033C617.023 155.753 617.135 155.622 617.415 155.622H617.864C618.63 155.098 618.947 153.716 619.246 151.268C619.358 150.408 619.471 149.623 619.583 148.446C619.657 147.904 619.545 147.698 618.985 147.698H618.387C618.2 147.642 618.106 147.455 618.106 147.269C618.106 147.044 618.2 146.858 618.405 146.801L620.816 146.858H624.217L626.478 146.801C626.646 146.895 626.702 147.063 626.702 147.25C626.702 147.437 626.646 147.605 626.478 147.698H625.581C625.507 147.698 625.469 147.754 625.469 147.848V155.491C625.469 155.566 625.507 155.622 625.581 155.622H626.516C626.777 155.622 626.908 155.753 626.908 156.033V158.686C626.815 158.836 626.665 158.929 626.478 158.929C626.273 158.929 626.048 158.799 626.011 158.387L625.974 157.808C625.899 156.743 625.376 156.481 624.217 156.481H619.714C618.536 156.481 618.032 156.762 617.957 157.808L617.92 158.387C617.882 158.799 617.658 158.929 617.452 158.929ZM619.022 155.622H622.834C622.909 155.622 622.965 155.566 622.965 155.491V147.811C622.965 147.736 622.909 147.68 622.834 147.68H621.227C620.611 147.68 620.554 147.885 620.48 148.446C620.349 149.735 620.237 150.632 620.143 151.268C619.844 153.51 619.545 154.893 619.022 155.622ZM628.221 151.679C628.221 148.764 630.314 146.484 632.911 146.484C635.228 146.484 637.246 148.128 637.246 151.043C637.246 151.585 636.947 151.903 636.406 151.903H631.005C631.005 151.978 631.024 152.052 631.024 152.146C631.024 154.22 631.696 155.79 633.49 155.79C634.78 155.79 636.032 154.706 636.349 153.305C636.424 152.968 636.555 152.744 636.817 152.744C637.097 152.744 637.209 152.931 637.209 153.211C637.209 153.473 637.022 154.052 636.873 154.351C636.293 155.696 634.742 156.799 632.911 156.799C630.295 156.799 628.221 154.762 628.221 151.679ZM631.042 150.95H634.387C634.63 150.95 634.761 150.819 634.761 150.576C634.761 148.689 634.032 147.325 632.93 147.325C631.809 147.325 631.098 148.801 631.042 150.95ZM640.974 160.555L638.675 160.611C638.507 160.499 638.451 160.35 638.451 160.163C638.451 159.976 638.507 159.808 638.675 159.695H639.61C639.684 159.695 639.722 159.639 639.722 159.565V147.811C639.722 147.736 639.666 147.68 639.591 147.68H638.675C638.507 147.568 638.451 147.399 638.451 147.213C638.451 147.026 638.507 146.858 638.675 146.764C639.198 146.783 639.722 146.82 640.133 146.82C640.749 146.82 640.955 146.671 641.403 146.671C641.815 146.671 641.945 146.895 641.945 147.287V148.651C642.562 147.549 643.721 146.484 645.197 146.484C647.383 146.484 649.121 148.446 649.121 151.585C649.121 154.725 647.028 156.799 644.692 156.799C643.609 156.799 642.805 156.425 642.226 155.79V159.565C642.226 159.639 642.263 159.695 642.338 159.695H643.665C643.833 159.808 643.889 159.976 643.889 160.163C643.889 160.35 643.833 160.499 643.665 160.611L640.974 160.555ZM644.692 147.568C643.795 147.568 643.029 148.24 642.226 149.586V154.482C642.712 155.416 643.366 155.771 644.15 155.771C645.496 155.771 646.337 154.818 646.337 151.585C646.337 148.315 645.72 147.568 644.692 147.568ZM656.461 156.687C656.237 156.687 655.956 156.537 655.863 156.238L652.985 148.072C652.966 147.997 652.929 147.923 652.873 147.923C652.836 147.923 652.798 147.96 652.798 148.11V155.547C652.798 155.603 652.817 155.622 652.873 155.622H653.863C654.013 155.734 654.069 155.902 654.069 156.089C654.069 156.276 654.013 156.425 653.863 156.537L652.238 156.481L650.743 156.537C650.593 156.444 650.537 156.276 650.537 156.089C650.537 155.902 650.593 155.734 650.743 155.622H651.733C651.789 155.622 651.826 155.603 651.826 155.547V147.829C651.826 147.754 651.789 147.698 651.714 147.698H650.724C650.556 147.605 650.5 147.437 650.5 147.25C650.5 147.063 650.556 146.895 650.724 146.801L652.125 146.839L654.592 146.783C654.928 146.783 655.022 146.839 655.209 147.325L657.134 152.781C657.171 152.875 657.227 152.931 657.246 152.931C657.302 152.931 657.358 152.875 657.395 152.763L659.339 147.157C659.451 146.895 659.6 146.801 660.123 146.801C660.292 146.783 660.348 146.801 660.591 146.82L663.693 146.801C663.861 146.895 663.917 147.063 663.917 147.25C663.917 147.437 663.861 147.605 663.693 147.698H662.796C662.74 147.698 662.684 147.754 662.684 147.829V155.491C662.684 155.566 662.74 155.622 662.796 155.622H663.693C663.861 155.734 663.917 155.902 663.917 156.089C663.917 156.276 663.861 156.444 663.693 156.537L661.432 156.481L659.301 156.537C659.152 156.444 659.096 156.276 659.096 156.089C659.096 155.902 659.152 155.734 659.301 155.622H660.049C660.123 155.622 660.18 155.566 660.18 155.491V147.904C660.18 147.754 660.161 147.698 660.086 147.698C659.974 147.698 659.937 147.867 659.881 148.035L657.077 156.238C656.984 156.537 656.722 156.687 656.461 156.687ZM671.132 154.893H671.02C670.609 155.734 669.749 156.668 668.142 156.668C666.778 156.668 665.414 155.809 665.414 153.94C665.414 150.931 669.002 149.903 670.964 149.885V148.595C670.964 147.773 670.59 147.325 669.581 147.325C668.441 147.325 667.899 147.736 667.899 148.053C667.899 148.352 668.18 148.651 668.18 149.025C668.18 149.567 667.656 150.053 666.946 150.053C666.143 150.053 665.657 149.511 665.657 148.876C665.657 147.362 668.198 146.484 669.974 146.484C672.291 146.484 673.468 147.1 673.468 148.932V154.837C673.468 155.211 673.655 155.341 673.879 155.341C674.159 155.341 674.309 155.117 674.458 154.818C674.571 154.575 674.701 154.482 674.907 154.482C675.131 154.482 675.318 154.65 675.318 154.912C675.318 155.304 674.683 156.612 673.038 156.612C671.767 156.612 671.132 155.865 671.132 154.893ZM669.039 155.304C670.254 155.304 670.852 153.996 670.964 152.725V150.688C669.319 150.707 667.825 151.641 667.825 153.566C667.825 154.65 668.086 155.304 669.039 155.304ZM676.146 156.537C675.997 156.444 675.922 156.276 675.922 156.089C675.922 155.902 675.997 155.734 676.146 155.622H677.043C677.118 155.622 677.155 155.566 677.155 155.491V147.829C677.155 147.754 677.118 147.698 677.043 147.698H676.146C675.997 147.605 675.922 147.437 675.922 147.25C675.922 147.063 675.997 146.895 676.146 146.801L678.426 146.858L680.687 146.801C680.855 146.895 680.911 147.063 680.911 147.25C680.911 147.437 680.855 147.605 680.687 147.698H679.771C679.715 147.698 679.678 147.754 679.678 147.829V151.212H683.06V147.829C683.06 147.754 683.023 147.698 682.948 147.698H682.051C681.902 147.605 681.827 147.437 681.827 147.25C681.827 147.063 681.902 146.895 682.051 146.801L684.331 146.858L686.592 146.801C686.76 146.895 686.816 147.063 686.816 147.25C686.816 147.437 686.76 147.605 686.592 147.698H685.676C685.62 147.698 685.583 147.754 685.583 147.829V155.491C685.583 155.566 685.62 155.622 685.676 155.622H686.592C686.76 155.734 686.816 155.902 686.816 156.089C686.816 156.276 686.76 156.444 686.592 156.537L684.331 156.481L682.051 156.537C681.902 156.444 681.827 156.276 681.827 156.089C681.827 155.902 681.902 155.734 682.051 155.622H682.948C683.023 155.622 683.06 155.566 683.06 155.491V152.034H679.678V155.491C679.678 155.566 679.715 155.622 679.771 155.622H680.687C680.855 155.734 680.911 155.902 680.911 156.089C680.911 156.276 680.855 156.444 680.687 156.537L678.426 156.481L676.146 156.537Z" fill="#9B2A16"/>
<path d="M743.873 129.049C743.873 123.291 748.834 120.33 752.39 120.33C756.69 120.33 759.336 123.456 759.336 127.157C759.336 132.668 754.457 135.794 750.736 135.794C746.519 135.794 743.873 132.668 743.873 129.049Z" fill="#455B16"/>
<path d="M743.873 149.925C743.873 144.167 748.834 141.206 752.39 141.206C756.69 141.206 759.336 144.332 759.336 148.033C759.336 153.544 754.457 156.67 750.736 156.67C746.519 156.67 743.873 153.544 743.873 149.925Z" fill="#455B16"/>
<path d="M581.482 337.084L583.444 327.669C583.804 325.938 583.582 324.137 582.812 322.546C580.068 316.874 584.642 310.401 590.905 311.093L685 321.5L823.5 319L1014.5 317H1102.83C1111.73 317 1119.78 322.297 1123.3 330.475L1123.91 331.871C1128.19 341.81 1124.07 353.368 1114.48 358.367C1109.98 360.707 1106.51 364.616 1104.71 369.352L1100.48 380.479C1098.83 384.807 1097.77 389.335 1097.33 393.943L1094 428.5L1071.5 429L833 428.5H767L658.605 424.277C653.904 424.094 649.27 423.098 644.908 421.335L642.205 420.242C633.166 416.588 626.113 409.257 622.81 400.084C620.335 393.209 615.726 387.305 609.657 383.235L596.79 374.606C584.524 366.381 578.471 351.541 581.482 337.084Z" fill="#FFD175"/>
<path d="M893 163.895C881.31 154.814 867.28 137.076 867.833 115.901C868.879 75.8428 907.841 50.3401 947.162 58.0612V58.0612C993.759 67.2114 994.357 160.952 948.13 171.821C934.138 175.111 916.062 173.592 893 163.895ZM893 163.895C890.945 163.708 883.138 170.495 873.89 179.395M873.89 179.395C885.426 192.228 910.1 217.194 916.5 214.395M873.89 179.395C873.879 179.405 873.869 179.414 873.858 179.424" stroke="#581B34" stroke-width="11" stroke-linecap="round" stroke-linejoin="round"/>
<path d="M965 164.5C952.167 167.667 923.4 167 911 139" stroke="#581B34" stroke-width="8" stroke-linecap="round" stroke-linejoin="round"/>
<ellipse cx="948.057" cy="110.831" rx="6.36183" ry="15.1093" transform="rotate(15 948.057 110.831)" fill="#581B34"/>
<ellipse cx="964" cy="114" rx="6" ry="15" fill="#581B34"/>
<path d="M919 59.0008C929.667 52.5008 957.7 41.9008 984.5 51.5008" stroke="#581B34" stroke-width="8" stroke-linecap="round" stroke-linejoin="round"/>
<path d="M963.5 66.5003C968.667 66.3336 981 66.9003 989 70.5003" stroke="#581B34" stroke-width="8" stroke-linecap="round" stroke-linejoin="round"/>
</svg>
